SplineFontDB: 3.0
FontName: LindenHill-Bold
FullName: Linden Hill Bold
FamilyName: Linden Hill
Weight: Bold
Copyright: Copyright (c) 2009 Barry Schwartz\n\nPermission is hereby granted, free of charge, to any person\nobtaining a copy of this software and associated documentation\nfiles (the "Software"), to deal in the Software without\nrestriction, including without limitation the rights to use,\ncopy, modify, merge, publish, distribute, sublicense, and/or sell\ncopies of the Software, and to permit persons to whom the\nSoftware is furnished to do so, subject to the following\nconditions:\n\nThe above copyright notice and this permission notice shall be\nincluded in all copies or substantial portions of the Software.\n\nTHE SOFTWARE IS PROVIDED "AS IS", WITHOUT WARRANTY OF ANY KIND,\nEXPRESS OR IMPLIED, INCLUDING BUT NOT LIMITED TO THE WARRANTIES\nOF MERCHANTABILITY, FITNESS FOR A PARTICULAR PURPOSE AND\nNONINFRINGEMENT. IN NO EVENT SHALL THE AUTHORS OR COPYRIGHT\nHOLDERS BE LIABLE FOR ANY CLAIM, DAMAGES OR OTHER LIABILITY,\nWHETHER IN AN ACTION OF CONTRACT, TORT OR OTHERWISE, ARISING\nFROM, OUT OF OR IN CONNECTION WITH THE SOFTWARE OR THE USE OR\nOTHER DEALINGS IN THE SOFTWARE.
UComments: "Scaling: Cut the 12-point to 640 pixels high and scale it to 122%.+AAoACgAA-Artificial emboldening: Try setting emboldening to 15 em units." 
Version: 001.000
ItalicAngle: 0
UnderlinePosition: -100
UnderlineWidth: 50
Ascent: 734
Descent: 266
LayerCount: 3
Layer: 0 0 "Back"  1
Layer: 1 0 "Fore"  0
Layer: 2 0 "backup"  1
NeedsXUIDChange: 1
XUID: [1021 658 797806517 427014]
FSType: 0
OS2Version: 0
OS2_WeightWidthSlopeOnly: 0
OS2_UseTypoMetrics: 1
CreationTime: 1249677682
ModificationTime: 1254566025
OS2TypoAscent: 0
OS2TypoAOffset: 1
OS2TypoDescent: 0
OS2TypoDOffset: 1
OS2TypoLinegap: 90
OS2WinAscent: 0
OS2WinAOffset: 1
OS2WinDescent: 0
OS2WinDOffset: 1
HheadAscent: 0
HheadAOffset: 1
HheadDescent: 0
HheadDOffset: 1
OS2Vendor: 'PfEd'

StartChar: i
Encoding: 105 105 0
Width: 318
VWidth: 0
Flags: HW
HStem: 0 37<32 100.721 215.175 300> 384 20<183.5 215> 510 129<146.13 208.21>
VStem: 101 114<37.8139 341.996> 117 122<540.256 608.091>
LayerCount: 3
Fore
Refer: 237 775 N 1 0 0 1 355 0 2
Refer: 178 305 N 1 0 0 1 0 0 2
Layer: 2
SplineSet
30.2734375 365.72265625 m 5xf0
 88.8671875 375.48828125 151.85546875 388.18359375 214.84375 404.296875 c 5
 214.84375 63.96484375 l 6
 214.84375 32.71484375 216.796875 37.59765625 299.8046875 36.62109375 c 5
 299.8046875 0 l 5
 31.25 0 l 5
 31.25 36.62109375 l 5
 87.40234375 37.109375 100.09765625 34.1796875 100.09765625 60.546875 c 6
 100.09765625 322.75390625 l 6
 100.09765625 335.44921875 95.703125 342.28515625 87.40234375 342.28515625 c 4
 84.9609375 342.28515625 31.73828125 332.51953125 31.73828125 332.51953125 c 5
 30.2734375 365.72265625 l 5xf0
148.4375 574.21875 m 4xe8
 148.4375 593.75 196.2890625 639.16015625 209.47265625 639.16015625 c 4
 229.4921875 639.16015625 270.99609375 585.9375 270.99609375 574.21875 c 4
 270.99609375 559.5703125 229.4921875 510.25390625 212.40234375 510.25390625 c 4
 196.77734375 510.25390625 148.4375 557.12890625 148.4375 574.21875 c 4xe8
EndSplineSet
AlternateSubs2: "'aalt' Access All Alternates in Latin lookup 0 subtable" i.TRK
Substitution2: "turkish subtable" i.TRK
EndChar

StartChar: j
Encoding: 106 106 1
Width: 250
VWidth: 0
Flags: HW
HStem: -259 60<11.9852 68.7585> 384 20<167.5 200> 510 129<104.13 166.21>
VStem: 75 122<540.256 608.091> 86 114<-141.719 338.996>
LayerCount: 3
Fore
Refer: 237 775 N 1 0 0 1 313 0 2
Refer: 179 567 N 1 0 0 1 0 0 2
Layer: 2
SplineSet
126.46484375 574.21875 m 0xe8
 126.46484375 593.75 174.31640625 639.16015625 187.5 639.16015625 c 0
 207.51953125 639.16015625 249.0234375 585.9375 249.0234375 574.21875 c 0
 249.0234375 559.5703125 207.51953125 510.25390625 190.4296875 510.25390625 c 0
 174.8046875 510.25390625 126.46484375 557.12890625 126.46484375 574.21875 c 0xe8
-93.26171875 -201.66015625 m 0
 -93.26171875 -174.8046875 -70.3125 -143.06640625 -56.640625 -128.90625 c 0
 -50.78125 -122.55859375 -44.921875 -120.60546875 -37.59765625 -120.60546875 c 0
 -21.97265625 -120.60546875 -14.16015625 -133.7890625 -8.30078125 -144.04296875 c 0
 11.71875 -178.22265625 21.484375 -199.21875 43.45703125 -199.21875 c 0
 77.1484375 -199.21875 86.42578125 -131.34765625 86.42578125 -31.25 c 2
 86.42578125 307.12890625 l 2
 86.42578125 326.171875 84.47265625 339.35546875 69.82421875 339.35546875 c 0
 68.84765625 339.35546875 67.3828125 338.8671875 65.91796875 338.8671875 c 0
 55.6640625 337.40234375 46.38671875 335.44921875 17.578125 330.56640625 c 1
 15.625 368.65234375 l 1
 59.5703125 375.9765625 136.23046875 389.16015625 201.171875 404.296875 c 1
 201.171875 -48.33984375 l 2xf0
 201.171875 -192.3828125 76.171875 -258.7890625 21.484375 -258.7890625 c 0
 -13.671875 -258.7890625 -93.26171875 -247.55859375 -93.26171875 -201.66015625 c 0
EndSplineSet
EndChar

StartChar: l
Encoding: 108 108 2
Width: 312
VWidth: 0
Flags: MW
HStem: 0 37<31 98.1583 213.587 295> 707 20G<187 213>
VStem: 99 114<39.0388 648.992>
AnchorPoint: "commaright" 288 654 basechar 0
AnchorPoint: "cedilla" 153 -93 basechar 0
AnchorPoint: "top" 137 732 basechar 0
LayerCount: 3
Fore
SplineSet
24 678 m 1
 107 693 161 710 213 727 c 1
 213 63 l 2
 213 34 228 39 295 37 c 1
 295 0 l 1
 31 0 l 1
 31 37 l 1
 53 37 l 2
 85 37 99 39 99 64 c 2
 99 597 l 2
 99 638 95 649 80 649 c 0
 72 649 55 644 27 640 c 1
 24 678 l 1
EndSplineSet
EndChar

StartChar: .notdef
Encoding: 65536 -1 4
Width: 500
VWidth: 0
Flags: W
HStem: 0 34<211.477 267.957> 129 31<213.238 264.221> 653 56<166.207 272.136>
VStem: 52 268<452.688 542.016> 52 140<48.5222 114.704> 52 110<206.51 343.002> 52 84<575.006 623.693> 224 224<203.728 297.122> 288 160<48.7331 116.736> 377 71<406.541 545.147>
LayerCount: 3
Fore
SplineSet
52 0 m 17xe240
 52 709 l 9
 448 709 l 25
 448 0 l 25
 52 0 l 17xe240
136 591 m 0
 136 583 139 575 153 575 c 0
 182 575 194 576 208 576 c 0
 265 576 320 537 320 507 c 0xf0
 320 420 162 384 162 279 c 0
 162 205 222 160 248 160 c 0
 258 160 265 165 265 176 c 0
 265 196 224 207 224 253 c 0xe5
 224 299 290 329 351 401 c 0
 371 425 377 444 377 474 c 0
 377 567 262 653 221 653 c 0
 180 653 136 609 136 591 c 0
192 82 m 0xe880
 192 68 221 35 239 34 c 1
 263 35 288 75 288 82 c 0
 288 98 260 129 241 129 c 0
 227 129 192 102 192 82 c 0xe880
EndSplineSet
EndChar

StartChar: k
Encoding: 107 107 5
Width: 633
VWidth: 0
Flags: MW
HStem: 0 37<32 98.748 214.199 308 529.051 607> 355 37<351 418.973 487.919 598> 707 20G<169.5 214>
VStem: 100 114<39.1606 147 197 645.993>
DStem2: 214 197 258 178 0.819987 0.572383<0 25.2041 135.883 253.271> 349 241 258 178 0.6444 -0.764688<0 222.31>
AnchorPoint: "cedilla" 322 -93 basechar 0
LayerCount: 3
Fore
SplineSet
18 637 m 1
 16 676 l 1
 76 687 125 695 214 727 c 1
 214 197 l 1
 401 327 l 2
 414 336 419 342 419 346 c 0
 419 357 382 354 351 355 c 1
 351 392 l 1
 599 392 l 1
 598 355 l 1
 571 355 l 2
 527 355 509 353 469 325 c 2
 349 241 l 1
 497 83 l 2
 537 41 562 37 587 37 c 2
 608 37 l 1
 607 0 l 1
 408 0 l 1
 258 178 l 1
 214 147 l 1
 214 59 l 2
 214 35 230 38 308 37 c 1
 309 0 l 1
 32 0 l 1
 31 37 l 1
 84 38 100 36 100 67 c 2
 100 607 l 2
 100 636 97 646 78 646 c 0
 66 646 47 642 18 637 c 1
EndSplineSet
EndChar

StartChar: n
Encoding: 110 110 6
Width: 528
VWidth: 0
Flags: MW
HStem: 0 37<13 81.2042 196.978 244 274 331.25 447.341 514> 329 69<277.344 403.5> 388 20G<118.553 195>
VStem: 82 114<37.8259 315.925> 332 114<39.1094 321.182>
AnchorPoint: "cedilla" 256 -93 basechar 0
AnchorPoint: "top" 262 488 basechar 0
LayerCount: 3
Fore
SplineSet
12 37 m 1xd8
 76 38 82 32 82 72 c 2
 82 315 l 2
 82 335 78 338 68 338 c 0
 58 338 46 333 16 327 c 1
 14 361 l 1
 196 408 l 1xb8
 194 384 195 369 194 335 c 1
 211 342 295 398 368 398 c 0
 439 398 446 347 446 302 c 2
 446 67 l 2
 446 38 464 37 506 37 c 2
 514 37 l 1
 514 0 l 1
 274 0 l 1
 274 37 l 1
 300 37 l 2
 324 37 332 39 332 67 c 2
 332 264 l 2
 332 314 312 329 286 329 c 0
 243 329 196 308 196 308 c 1
 196 72 l 2
 196 32 206 38 244 37 c 1
 244 0 l 1
 13 0 l 1
 12 37 l 1xd8
EndSplineSet
EndChar

StartChar: a
Encoding: 97 97 7
Width: 421
VWidth: 0
Flags: W
HStem: -20 21G<300.5 312> -11 64<87 193.246> 192 37<167.302 229> 351 54<116.478 279>
VStem: 25 97<61.7034 134> 39 58<262.028 317.994> 229 93<75.7211 192 229 337.469>
AnchorPoint: "top" 191 488 basechar 0
LayerCount: 3
Fore
SplineSet
25 68 m 0x7a
 25 190 206 228 229 229 c 1
 229 282 l 2
 229 318 213 351 165 351 c 0
 102 351 94 318 94 318 c 1
 94 318 97 310 97 299 c 0
 97 281 78 257 62 257 c 0
 58 257 39 260 39 287 c 0
 39 307 64 405 231 405 c 0
 327 405 328 352 328 292 c 0
 328 230 322 185 322 139 c 0
 322 38 398 75 398 52 c 0
 398 31 314 -20 310 -20 c 0xb6
 291 -20 255 13 237 54 c 1
 210 2 139 -11 121 -11 c 0
 53 -11 25 25 25 68 c 0x7a
122 104 m 0x7a
 122 62 156 53 176 53 c 0
 203 53 229 75 229 108 c 2
 229 192 l 1
 163 192 122 142 122 104 c 0x7a
EndSplineSet
Layer: 2
SplineSet
230.46875 398.4375 m 0
 324.21875 398.4375 325.68359375 346.6796875 325.68359375 288.0859375 c 0
 325.68359375 227.5390625 319.82421875 182.6171875 319.82421875 137.20703125 c 0
 319.82421875 38.0859375 395.01953125 74.70703125 395.01953125 52.24609375 c 0
 395.01953125 32.2265625 312.5 -18.06640625 308.10546875 -18.06640625 c 0
 290.0390625 -18.06640625 253.90625 14.6484375 236.328125 54.6875 c 1
 209.9609375 3.90625 140.625 -9.765625 123.046875 -9.765625 c 0
 56.640625 -9.765625 28.80859375 25.87890625 28.80859375 67.87109375 c 0
 28.80859375 187.01171875 205.078125 225.09765625 228.02734375 226.07421875 c 1
 228.02734375 277.83203125 l 2
 228.02734375 312.98828125 213.37890625 345.21484375 166.015625 345.21484375 c 0
 104.4921875 345.21484375 96.6796875 313.4765625 96.6796875 313.4765625 c 1
 96.6796875 313.4765625 99.609375 306.15234375 99.609375 294.921875 c 0
 99.609375 277.83203125 80.078125 253.41796875 64.94140625 253.41796875 c 0
 60.546875 253.41796875 41.9921875 255.37109375 41.9921875 282.2265625 c 0
 41.9921875 301.26953125 66.89453125 398.4375 230.46875 398.4375 c 0
176.26953125 53.22265625 m 0
 203.125 53.22265625 228.02734375 74.21875 228.02734375 106.93359375 c 2
 228.02734375 189.453125 l 1
 163.0859375 189.453125 123.53515625 140.625 123.53515625 103.515625 c 0
 123.53515625 62.5 157.2265625 53.22265625 176.26953125 53.22265625 c 0
EndSplineSet
EndChar

StartChar: h
Encoding: 104 104 8
Width: 549
VWidth: 0
Flags: MW
HStem: 0 37<25 92.9107 208.558 260 305 343.171 458.724 526> 329 69<287.808 414.5> 709 20G<156 208>
VStem: 94 114<37.9668 316.059 336 645.993> 344 114<37.75 321.182>
AnchorPoint: "top" 298 732 basechar 0
LayerCount: 3
Fore
SplineSet
17 674 m 1
 73 687 104 696 208 729 c 1
 208 336 l 1
 225 343 306 398 379 398 c 0
 450 398 458 347 458 302 c 2
 458 67 l 2
 458 38 467 37 502 37 c 2
 527 37 l 1
 526 0 l 1
 305 0 l 1
 305 37 l 1
 333 38 344 36 344 67 c 2
 344 264 l 2
 344 314 324 329 298 329 c 0
 255 329 208 308 208 308 c 1
 208 72 l 2
 208 32 212 39 260 37 c 1
 260 0 l 1
 25 0 l 1
 24 37 l 1
 84 38 94 32 94 72 c 2
 94 604 l 2
 94 636 91 646 77 646 c 0
 66 646 52 640 20 634 c 1
 17 674 l 1
EndSplineSet
EndChar

StartChar: f
Encoding: 102 102 9
Width: 327
VWidth: 0
Flags: W
HStem: 0 37<31 99.7188 214.299 290> 343 49<30 100 214 290> 684 45<223.108 299>
VStem: 100 114<37.5625 343 392 624.551>
LayerCount: 3
Fore
SplineSet
30 343 m 1
 30 392 l 1
 100 392 l 1
 100 500 l 2
 100 697 206 729 280 729 c 0
 318 729 369 707 369 674 c 0
 369 658 329 606 306 606 c 0
 285 606 277 684 251 684 c 0
 214 684 214 634 214 589 c 2
 214 392 l 1
 290 392 l 1
 290 343 l 1
 214 343 l 1
 214 67 l 2
 214 38 216 37 260 37 c 2
 291 37 l 1
 290 0 l 1
 31 0 l 1
 30 37 l 1
 61 37 l 2
 95 37 100 38 100 64 c 2
 100 343 l 1
 30 343 l 1
EndSplineSet
Layer: 2
SplineSet
17.08984375 343.75 m 5
 28.80859375 391.6015625 l 5
 90.33203125 391.6015625 l 5
 90.33203125 502.44140625 l 6
 90.33203125 515.625 90.33203125 528.3203125 91.30859375 541.015625 c 4
 97.65625 641.6015625 163.57421875 733.88671875 270.99609375 733.88671875 c 4
 304.6875 733.88671875 353.02734375 723.6328125 353.02734375 693.359375 c 4
 353.02734375 681.640625 322.75390625 629.8828125 299.31640625 629.8828125 c 4
 279.296875 629.8828125 271.484375 688.4765625 234.86328125 688.4765625 c 4
 164.55078125 688.4765625 159.66796875 562.01171875 159.66796875 534.1796875 c 6
 159.66796875 391.6015625 l 5
 272.4609375 391.6015625 l 5
 260.7421875 343.75 l 5
 160.15625 343.75 l 5
 160.15625 62.5 l 6
 160.15625 27.83203125 169.921875 33.69140625 236.81640625 31.73828125 c 5
 235.83984375 0 l 5
 27.83203125 0 l 5
 26.85546875 31.73828125 l 5
 76.66015625 33.69140625 89.84375 26.3671875 89.84375 58.59375 c 6
 89.84375 343.75 l 5
 17.08984375 343.75 l 5
EndSplineSet
EndChar

StartChar: e
Encoding: 101 101 10
Width: 437
VWidth: 0
Flags: MW
HStem: -10 74<202.201 314.48> 365 36<169.875 240.597>
VStem: 36 105<132.783 224 258 288.582> 271 117<276 322.188>
AnchorPoint: "top" 221 488 basechar 0
LayerCount: 3
Fore
SplineSet
36 184 m 0
 36 317 120 401 221 401 c 0
 329 401 388 305 388 273 c 0
 388 262 377 257 373 257 c 2
 141 224 l 1
 141 224 142 64 268 64 c 0
 348 64 386 101 403 101 c 0
 408 101 411 97 411 88 c 0
 411 70 323 -10 221 -10 c 0
 121 -10 36 64 36 184 c 0
142 258 m 1
 271 276 l 1
 271 276 259 365 203 365 c 0
 171 365 144 326 142 258 c 1
EndSplineSet
Layer: 2
SplineSet
398.4375 89.84375 m 4
 398.4375 72.75390625 311.5234375 -6.8359375 211.42578125 -6.8359375 c 4
 113.28125 -6.8359375 30.2734375 65.91796875 30.2734375 183.59375 c 4
 30.2734375 313.96484375 112.3046875 396.97265625 211.42578125 396.97265625 c 4
 317.87109375 396.97265625 375.48828125 302.734375 375.48828125 270.99609375 c 4
 375.48828125 259.765625 364.74609375 256.34765625 360.83984375 255.859375 c 6
 132.32421875 221.6796875 l 5
 132.32421875 221.6796875 133.7890625 66.40625 257.8125 66.40625 c 4
 336.42578125 66.40625 373.53515625 102.05078125 390.13671875 102.05078125 c 4
 395.01953125 102.05078125 398.4375 98.6328125 398.4375 89.84375 c 4
133.7890625 255.859375 m 5
 258.30078125 274.4140625 l 5
 258.30078125 274.4140625 235.83984375 360.3515625 189.453125 360.3515625 c 4
 156.73828125 360.3515625 138.671875 321.2890625 133.7890625 255.859375 c 5
EndSplineSet
EndChar

StartChar: d
Encoding: 100 100 11
Width: 539
VWidth: 0
Flags: MW
HStem: -14 72<197.032 275.475> 33 33<449.294 508> 368 34<188.941 296.15> 710 20G<395.5 438>
VStem: 26 115<124.413 296.557> 324 114<65.3656 347 378 647.987>
AnchorPoint: "commaright" 513 654 basechar 0
LayerCount: 3
Fore
SplineSet
26 202 m 0xbc
 26 313 104 402 217 402 c 0
 295 402 324 378 324 378 c 1
 324 592 l 2
 324 630 324 648 304 648 c 0
 298 648 265 639 239 632 c 1
 235 675 l 1
 285 684 353 701 438 730 c 1
 438 91 l 2
 438 63 440 55 449 55 c 0
 455 55 478 62 508 66 c 1
 509 33 l 1x7c
 448 20 413 7 327 -26 c 1
 327 9 328 28 328 43 c 0
 328 51 328 57 327 60 c 1
 326 59 283 -14 206 -14 c 0
 108 -14 26 78 26 202 c 0xbc
141 224 m 0
 141 121 195 58 255 58 c 0xbc
 316 58 324 83 324 83 c 1
 324 326 l 1
 324 326 294 368 244 368 c 0
 202 368 141 349 141 224 c 0
EndSplineSet
EndChar

StartChar: c
Encoding: 99 99 12
Width: 432
VWidth: 0
Flags: W
HStem: -14 72<205.181 319.269> 363 40<176.901 257.187>
VStem: 32 116<128.421 283.86>
AnchorPoint: "cedilla" 227 -93 basechar 0
AnchorPoint: "top" 221 488 basechar 0
LayerCount: 3
Fore
SplineSet
32 185 m 0
 32 303 113 403 236 403 c 0
 322 403 384 348 384 315 c 0
 384 295 340 278 309 278 c 0
 257 278 288 363 215 363 c 0
 165 363 148 289 148 251 c 0
 148 101 208 58 270 58 c 0
 346 58 366 89 383 89 c 0
 389 89 398 84 398 72 c 0
 398 42 305 -14 227 -14 c 0
 74 -14 32 71 32 185 c 0
EndSplineSet
EndChar

StartChar: b
Encoding: 98 98 13
Width: 538
VWidth: 0
Flags: MW
HStem: -14 44<204.458 342.389> 335 66<246.607 337.419> 710 20G<166.5 194>
VStem: 80 114<42.1917 325.112 341 653.995> 394 110<102.19 272.135>
LayerCount: 3
Fore
SplineSet
6 682 m 1
 59 690 139 715 194 730 c 1
 194 341 l 1
 208 356 260 401 332 401 c 0
 452 401 504 298 504 215 c 0
 504 102 453 -14 273 -14 c 0
 201 -14 152 13 136 13 c 0
 94 13 96 -61 77 -61 c 0
 73 -61 49 -60 49 -44 c 0
 49 -27 80 49 80 153 c 2
 80 629 l 2
 80 647 74 654 61 654 c 0
 60 654 12 644 9 644 c 1
 6 682 l 1
194 82 m 2
 194 37 237 30 277 30 c 0
 322 30 394 56 394 175 c 0
 394 321 296 335 275 335 c 0
 215 335 194 312 194 312 c 1
 194 82 l 2
EndSplineSet
EndChar

StartChar: g
Encoding: 103 103 14
Width: 484
VWidth: 0
Flags: HMW
HStem: -259 54<119 298> -45 75<128 327> 85 37<194 260> 366 42<176 257>
VStem: -5 84<-168 -82> 37 123<165 321> 49 79<4 62> 289 114<162 297> 359 96<-157 -72>
AnchorPoint: "top" 228 488 basechar 0
LayerCount: 3
Fore
SplineSet
-5 -140 m 0xf880
 -5 -50 111 -35 111 -35 c 1
 111 -35 49 -16 49 24 c 0xf2
 49 73 143 94 143 94 c 1
 143 94 37 132 37 242 c 0xf4
 37 342 124 408 228 408 c 0
 301 408 350 366 357 366 c 0
 371 366 440 387 453 387 c 0
 457 387 473 329 473 321 c 0
 473 310 395 297 395 292 c 0
 395 287 403 272 403 243 c 0
 403 180 373 89 203 85 c 0
 164 84 128 68 128 50 c 0xf3
 128 29 152 29 177 29 c 0
 222 29 268 32 290 32 c 0
 433 32 455 -42 455 -88 c 0
 455 -198 310 -259 182 -259 c 0
 80 -259 -5 -220 -5 -140 c 0xf880
198 -205 m 0
 275 -205 359 -168 359 -113 c 0
 359 -42 245 -55 182 -49 c 0
 166 -48 153 -45 153 -45 c 1
 152 -45 l 2
 119 -45 79 -86 79 -119 c 0xf880
 79 -170 135 -205 198 -205 c 0
159 269 m 0xf5
 159 150 204 122 228 122 c 0
 267 122 289 168 289 220 c 0
 289 288 270 366 217 366 c 0
 169 366 159 313 159 269 c 0xf5
EndSplineSet
Layer: 2
SplineSet
-10.25390625 -139.6484375 m 4xf880
 -10.25390625 -108.3984375 0 -51.26953125 111.328125 -34.66796875 c 5
 111.328125 -34.66796875 48.828125 -16.11328125 48.828125 23.92578125 c 4xf2
 48.828125 72.75390625 142.578125 93.75 142.578125 93.75 c 5
 142.578125 93.75 36.62109375 131.34765625 36.62109375 241.69921875 c 4xf4
 36.62109375 341.30859375 124.0234375 411.1328125 228.02734375 411.1328125 c 4
 300.78125 411.1328125 350.09765625 366.2109375 357.421875 366.2109375 c 4
 371.58203125 366.2109375 439.94140625 387.20703125 453.125 387.20703125 c 4
 457.03125 387.20703125 472.65625 329.1015625 472.65625 321.2890625 c 4
 472.65625 310.546875 395.01953125 297.8515625 395.01953125 292.48046875 c 4
 395.01953125 287.59765625 402.83203125 271.484375 402.83203125 242.67578125 c 4
 402.83203125 179.6875 373.046875 89.84375 203.125 85.44921875 c 4
 164.0625 84.47265625 127.9296875 67.87109375 127.9296875 49.8046875 c 4xf3
 127.9296875 29.296875 151.3671875 29.296875 176.7578125 29.296875 c 4
 221.6796875 29.296875 267.08984375 31.73828125 289.55078125 31.73828125 c 4
 432.6171875 31.73828125 455.078125 -41.9921875 455.078125 -87.890625 c 4
 455.078125 -197.75390625 310.05859375 -258.7890625 182.12890625 -258.7890625 c 4
 80.56640625 -258.7890625 -10.25390625 -219.7265625 -10.25390625 -139.6484375 c 4xf880
74.21875 -118.1640625 m 4xf880
 74.21875 -178.22265625 133.7890625 -204.58984375 198.2421875 -204.58984375 c 4
 275.390625 -204.58984375 359.375 -167.48046875 359.375 -112.79296875 c 4
 359.375 -41.50390625 245.1171875 -54.6875 182.12890625 -48.828125 c 4
 166.015625 -47.36328125 153.3203125 -45.41015625 153.3203125 -45.41015625 c 5
 109.375 -45.41015625 74.21875 -86.9140625 74.21875 -118.1640625 c 4xf880
159.1796875 269.04296875 m 4xf5
 159.1796875 149.90234375 204.1015625 122.0703125 228.02734375 122.0703125 c 4
 267.08984375 122.0703125 283.69140625 167.96875 283.69140625 220.21484375 c 4
 283.69140625 288.57421875 270.01953125 370.60546875 216.796875 370.60546875 c 4
 168.9453125 370.60546875 159.1796875 312.98828125 159.1796875 269.04296875 c 4xf5
-5.37109375 -139.6484375 m 0xf880
 -5.37109375 -118.65234375 3.90625 -59.5703125 115.234375 -35.15625 c 1
 115.234375 -35.15625 48.828125 -16.11328125 48.828125 23.92578125 c 0xf2
 48.828125 72.75390625 142.578125 93.75 142.578125 93.75 c 1
 142.578125 93.75 36.62109375 131.34765625 36.62109375 241.69921875 c 0xf4
 36.62109375 341.30859375 124.0234375 411.1328125 228.02734375 411.1328125 c 0
 315.91796875 411.1328125 350.5859375 359.375 357.91015625 359.375 c 0
 372.0703125 359.375 439.94140625 387.20703125 453.125 387.20703125 c 0
 457.03125 387.20703125 472.65625 333.49609375 472.65625 325.68359375 c 0
 472.65625 314.94140625 395.01953125 295.8984375 395.01953125 290.52734375 c 0
 395.01953125 285.64453125 402.83203125 271.484375 402.83203125 242.67578125 c 0
 402.83203125 179.6875 373.046875 89.84375 203.125 85.44921875 c 0
 164.0625 84.47265625 127.9296875 67.87109375 127.9296875 49.8046875 c 0xf3
 127.9296875 27.34375 151.3671875 26.85546875 176.7578125 26.85546875 c 0
 221.6796875 26.85546875 267.08984375 29.296875 289.55078125 29.296875 c 0
 432.6171875 29.296875 455.078125 -41.015625 455.078125 -86.9140625 c 0
 455.078125 -200.1953125 315.91796875 -258.30078125 190.91796875 -258.30078125 c 0
 88.37890625 -258.30078125 -5.37109375 -219.23828125 -5.37109375 -139.6484375 c 0xf880
78.125 -123.53515625 m 0xf880
 78.125 -182.12890625 138.671875 -208.49609375 203.125 -208.49609375 c 0
 278.3203125 -208.49609375 359.375 -173.33984375 359.375 -111.81640625 c 0
 359.375 -48.828125 266.6015625 -53.22265625 213.37890625 -51.7578125 c 0
 185.546875 -50.78125 153.3203125 -46.38671875 153.3203125 -46.38671875 c 1
 109.375 -46.38671875 78.125 -88.8671875 78.125 -123.53515625 c 0xf880
159.1796875 269.04296875 m 0xf5
 159.1796875 149.90234375 204.1015625 122.0703125 228.02734375 122.0703125 c 0
 267.08984375 122.0703125 283.69140625 167.96875 283.69140625 220.21484375 c 0
 283.69140625 288.57421875 270.01953125 370.60546875 216.796875 370.60546875 c 0
 168.9453125 370.60546875 159.1796875 312.98828125 159.1796875 269.04296875 c 0xf5
EndSplineSet
EndChar

StartChar: r
Encoding: 114 114 15
Width: 393
VWidth: 0
Flags: HMW
HStem: 0 37<35 104.109 219.657 305> 303 96<247.5 344.419> 381 20G<154 217 303 338>
VStem: 105 114<37.9051 298.683 319 337.997>
AnchorPoint: "cedilla" 163 -93 basechar 0
AnchorPoint: "top" 204 488 basechar 0
LayerCount: 3
Fore
SplineSet
17 358 m 1xd0
 59 366 91 370 217 401 c 1xb0
 217 319 l 1
 242 336 281 399 325 399 c 0
 351 399 375 375 375 368 c 1
 375 368 350 257 338 257 c 0
 326 257 312 303 260 303 c 0
 235 303 219 284 219 273 c 2
 219 77 l 2
 219 38 219 37 270 37 c 2
 305 37 l 1
 305 0 l 1
 35 0 l 1
 35 37 l 1
 57 37 l 2
 104 37 105 39 105 78 c 2
 105 298 l 2
 105 334 98 338 88 338 c 0
 83 338 83 337 22 325 c 1
 17 358 l 1xd0
EndSplineSet
Layer: 2
SplineSet
17 358 m 5
 59 366 92 370 218 401 c 5
 218 319 l 5
 243 336 282 399 326 399 c 4
 352 399 376 375 376 368 c 5
 376 368 351 257 339 257 c 4
 327 257 313 303 261 303 c 4
 236 303 220 284 220 273 c 4
 220 208 220 142 220 77 c 4
 220 31 220 38 306 37 c 5
 306 0 l 5
 35 0 l 5
 35 37 l 5
 103 37 105 34 105 78 c 6
 105 298 l 6
 105 334 98 338 88 338 c 4
 83 338 83 337 22 325 c 5
 17 358 l 5
EndSplineSet
EndChar

StartChar: s
Encoding: 115 115 16
Width: 393
VWidth: 0
Flags: W
HStem: -13 45<110.197 249.857> 365 41<152.397 262.246>
VStem: 36 29<103.375 140> 49 36<-50 -2.03666> 59 85<255.431 352.686> 256 92<44.0678 137.02> 300 26<387.618 423> 308 30<259 315.219>
DStem2: 209 254 135 172 0.856633 -0.515927<-87.5754 131.368>
AnchorPoint: "cedilla" 194 -93 basechar 0
AnchorPoint: "top" 199 488 basechar 0
LayerCount: 3
Fore
SplineSet
188 32 m 0xe0
 222 32 256 40 256 73 c 0xe4
 256 86 247 104 223 119 c 2
 135 172 l 2
 94 196 59 228 59 285 c 0
 59 351 113 406 187 406 c 0
 240 406 263 387 288 387 c 0
 299 387 300 403 300 417 c 0
 300 419 300 421 300 423 c 1
 326 424 l 1xca
 329 368 334 315 338 259 c 1
 308 257 l 1
 305 287 l 2
 301 325 249 365 199 365 c 0
 164 365 144 345 144 324 c 0xc9
 144 295 171 275 209 254 c 2
 264 223 l 2
 310 197 348 163 348 110 c 0
 348 43 288 -13 198 -13 c 0
 151 -13 102 0 95 -0 c 0
 88 0 84 -8 84 -15 c 2
 85 -50 l 1
 49 -50 l 1xd4
 47 11 44 67 36 140 c 1
 65 141 l 1
 73 98 l 2
 81 55 149 32 188 32 c 0xe0
EndSplineSet
Layer: 2
SplineSet
188 32 m 4xe0
 222 32 256 40 256 73 c 4xe4
 256 86 247 104 223 119 c 6
 135 172 l 6
 94 196 59 228 59 285 c 4
 59 351 113 406 187 406 c 4
 240 406 263 387 288 387 c 4
 301 387 300 408 300 423 c 5
 326 424 l 5xca
 329 368 334 315 338 259 c 5
 308 257 l 5
 305 287 l 6
 301 325 249 365 199 365 c 4
 164 365 144 345 144 324 c 4xc9
 144 295 171 275 209 254 c 6
 264 223 l 6
 310 197 348 163 348 110 c 4
 348 43 288 -13 198 -13 c 4
 151 -13 102 0 95 -0 c 4
 88 0 84 -8 84 -15 c 6
 85 -50 l 5
 49 -50 l 5xd4
 47 11 44 67 36 140 c 5
 65 141 l 5
 73 98 l 6
 81 55 149 32 188 32 c 4xe0
EndSplineSet
AlternateSubs2: "'aalt' Access All Alternates lookup 0 subtable" longs
AlternateSubs2: "'aalt' Access All Alternates in Latin lookup 0 subtable" longs
Substitution2: "'hist' Historical Forms in Latin lookup 8 subtable" longs
EndChar

StartChar: o
Encoding: 111 111 17
Width: 503
VWidth: 0
Flags: W
HStem: -15 47<207.402 304.431> 363 45<198.929 297.068>
VStem: 40 122<91.4623 294.369> 339 117<89.7439 297.086>
AnchorPoint: "top" 249 488 basechar 0
LayerCount: 3
Fore
SplineSet
40 193 m 0
 40 300 104 408 251 408 c 0
 420 408 456 279 456 182 c 0
 456 67 373 -15 248 -15 c 0
 95 -15 40 94 40 193 c 0
162 204 m 0
 162 115 196 32 255 32 c 0
 325 32 339 111 339 173 c 0
 339 288 317 363 246 363 c 0
 213 363 162 340 162 204 c 0
EndSplineSet
EndChar

StartChar: w
Encoding: 119 119 18
Width: 804
VWidth: 0
Flags: W
HStem: -21 21G<239.368 278.247 526.027 562.709> 355 37<12 74.1473 203.055 256 309 372.698 495.012 544 616 674.989 728.041 781>
DStem2: 212 305 92 305 0.433899 -0.900962<-30.636 190.578> 292 132 269 -21 0.419649 0.907686<0 173.169> 501 315 404 271 0.409325 -0.912389<0.440571 193.829> 580 138 553 -21 0.436723 0.899596<0 223.893>
AnchorPoint: "top" 414 488 basechar 0
LayerCount: 3
Fore
SplineSet
12 355 m 1
 12 392 l 1
 256 392 l 1
 256 355 l 1
 248 355 l 2
 222 355 203 354 203 335 c 0
 203 328 206 319 212 305 c 2
 292 132 l 1
 382 317 l 1
 370 346 364 355 337 355 c 2
 308 355 l 1
 309 392 l 1
 544 392 l 1
 544 355 l 1
 511 355 495 352 495 336 c 0
 495 331 497 324 501 315 c 2
 580 138 l 1
 668 319 l 2
 672 328 675 336 675 341 c 0
 675 354 660 355 629 355 c 2
 616 355 l 1
 616 392 l 1
 781 392 l 1
 782 355 l 1
 753 355 735 355 720 323 c 2
 553 -21 l 1
 535 -21 l 1
 404 271 l 1
 269 -21 l 1
 249 -21 l 1
 92 305 l 2
 69 354 61 355 17 355 c 2
 12 355 l 1
EndSplineSet
EndChar

StartChar: u
Encoding: 117 117 19
Width: 574
VWidth: 0
Flags: MW
HStem: -23 21G<354.5 377> -12 74<157 286.421> 50 39<505.636 553> 379 20G<184.5 214 433 464>
VStem: 100 114<75.8143 345.29> 350 114<76.9925 344.839>
AnchorPoint: "top" 270 488 basechar 0
LayerCount: 3
Fore
SplineSet
13 383 m 1x5c
 45 385 155 391 214 399 c 1
 214 152 l 2
 214 75 244 62 272 62 c 0x5c
 321 62 350 93 350 93 c 1
 350 319 l 2
 350 344 335 345 322 345 c 0
 308 345 270 342 268 340 c 1
 267 381 l 1
 311 384 402 391 464 399 c 1
 464 112 l 2
 464 79 467 68 479 68 c 0
 485 68 507 74 553 89 c 1
 555 50 l 1
 513 34 399 -8 355 -23 c 1xbc
 354 0 354 34 354 62 c 1
 336 42 278 -12 208 -12 c 0
 106 -12 100 62 100 110 c 2
 100 321 l 2
 100 342 86 346 67 346 c 0
 57 346 45 344 15 341 c 1
 13 383 l 1x5c
EndSplineSet
EndChar

StartChar: t
Encoding: 116 116 20
Width: 358
VWidth: 0
Flags: W
HStem: -18 72<163.5 276.172> 324 61<192 307>
VStem: 87 105<67.2962 324>
AnchorPoint: "commaright" 258 654 basechar 0
AnchorPoint: "cedilla" 177 -93 basechar 0
LayerCount: 3
Fore
SplineSet
14 330 m 0
 14 342 64 377 145 460 c 0
 183 499 180 500 187 500 c 0
 191 500 192 496 192 492 c 2
 192 385 l 1
 319 385 l 1
 307 324 l 1
 192 324 l 1
 192 126 l 2
 192 80 212 54 247 54 c 0
 282 54 309 77 321 77 c 0
 327 77 331 74 331 66 c 0
 331 24 254 -18 189 -18 c 0
 138 -18 87 9 87 109 c 2
 87 324 l 1
 29 324 l 2
 18 324 14 326 14 330 c 0
EndSplineSet
EndChar

StartChar: y
Encoding: 121 121 21
Width: 590
VWidth: 0
Flags: W
HStem: -262 96<28.93 142.891> 355 37<32 97.3918 240.012 303 367 443.994 507.047 573>
DStem2: 262 290 117 304 0.480758 -0.876854<-54.919 176.607> 276 14 326 7 0.479672 0.877448<-194.786 0 136.554 349.927>
AnchorPoint: "top" 329 488 basechar 0
LayerCount: 3
Fore
SplineSet
23 -217 m 0
 23 -175 47 -166 74 -166 c 0
 90 -166 106 -170 119 -170 c 0
 171 -170 179 -145 276 14 c 1
 117 304 l 2
 91 352 87 355 50 355 c 2
 32 355 l 1
 31 392 l 1
 303 392 l 1
 303 355 l 1
 289 355 l 2
 256 355 240 354 240 341 c 0
 240 332 248 316 262 290 c 2
 343 133 l 1
 399 230 444 323 444 341 c 0
 444 354 436 355 400 355 c 2
 367 355 l 1
 367 392 l 1
 573 392 l 1
 573 355 l 1
 515 354 519 360 490 307 c 2
 326 7 l 2
 219 -188 159 -262 68 -262 c 0
 43 -262 23 -253 23 -217 c 0
EndSplineSet
Layer: 2
SplineSet
23 -217 m 4
 23 -175 47 -166 74 -166 c 4
 90 -166 106 -170 119 -170 c 4
 171 -170 179 -145 276 14 c 5
 117 304 l 6
 87 359 86 355 32 355 c 5
 31 392 l 5
 303 392 l 5
 303 355 l 5
 260 355 240 356 240 341 c 4
 240 332 248 316 262 290 c 6
 343 133 l 5
 399 230 444 323 444 341 c 4
 444 357 431 355 367 355 c 5
 367 392 l 5
 573 392 l 5
 573 355 l 5
 515 354 518 360 490 307 c 4
 252 -130 194 -262 68 -262 c 4
 43 -262 23 -253 23 -217 c 4
EndSplineSet
EndChar

StartChar: quoteright
Encoding: 8217 8217 22
Width: 242
VWidth: 0
Flags: W
HStem: 479 250
VStem: 111 94<553.146 671>
LayerCount: 3
Fore
SplineSet
111 575 m 0
 111 633 48 634 48 653 c 0
 48 669 106 729 118 729 c 0
 126 729 205 710 205 632 c 0
 205 504 74 479 63 479 c 0
 51 479 48 487 48 491 c 0
 48 519 111 518 111 575 c 0
EndSplineSet
EndChar

StartChar: G
Encoding: 71 71 23
Width: 839
VWidth: 0
Flags: W
HStem: -26 65<333.104 541.378> 258 44<447 591 732 802> 626 60<319.556 550.531>
VStem: 31 157<204.981 462.065> 591 141<73.3952 258> 631 45<639.19 702> 645 48<456 524.4>
AnchorPoint: "cedilla" 405 -93 basechar 0
AnchorPoint: "top" 420 732 basechar 0
LayerCount: 3
Fore
SplineSet
732 53 m 1xf8
 614.03907604 42.39677088 562.068205859 -26 400 -26 c 0
 116 -26 31 171 31 337 c 0
 31 545 188 686 429 686 c 0
 553 686 631 637 631 637 c 1
 629 702 l 1
 676 705 l 1xf4
 677 640 686 540 693 456 c 1
 645 453 l 1xf2
 635 555 l 1
 635 555 570 626 420 626 c 0
 233 626 188 470 188 349 c 0
 188 192 250 39 432 39 c 0
 549 39 591 91 591 91 c 1
 591 258 l 1
 447 258 l 1
 447 302 l 1
 802 302 l 1
 802 258 l 1
 732 258 l 1
 732 53 l 1xf8
EndSplineSet
Layer: 2
SplineSet
37.109375 298.33984375 m 0xf8
 37.109375 482.421875 176.7578125 677.734375 417.48046875 677.734375 c 0
 499.0234375 677.734375 559.5703125 657.2265625 621.09375 631.8359375 c 1
 621.09375 682.12890625 l 1
 661.1328125 682.12890625 l 1xf4
 667.96875 463.8671875 l 1
 628.90625 462.890625 l 1xf2
 622.0703125 567.3828125 l 1
 622.0703125 567.3828125 545.41015625 630.37109375 409.1796875 630.37109375 c 0
 215.8203125 630.37109375 126.953125 490.72265625 126.953125 345.703125 c 0
 126.953125 188.96484375 230.95703125 25.87890625 419.921875 25.87890625 c 0
 537.109375 25.87890625 593.26171875 81.0546875 593.26171875 81.0546875 c 1
 593.26171875 259.765625 l 1
 473.6328125 259.765625 l 1
 472.65625 298.33984375 l 1
 748.53515625 298.33984375 l 1
 749.51171875 259.765625 l 1
 674.31640625 259.765625 l 1
 674.31640625 54.6875 l 1
 595.703125 21.484375 526.3671875 -23.4375 401.3671875 -23.4375 c 0
 149.4140625 -23.4375 37.109375 133.30078125 37.109375 298.33984375 c 0xf8
EndSplineSet
Position2: "'cpsp' Capital Spacing in Latin lookup 1 subtable" dx=6 dy=0 dh=13 dv=0
EndChar

StartChar: A
Encoding: 65 65 24
Width: 791
VWidth: 0
Flags: W
HStem: 0 44<30 105.787 178.012 277 466 542.988 690.316 769> 250 51<275 454> 671 20G<398.415 453.715>
DStem2: 131 113 187 92 0.432173 0.901791<-25.38 176.703 231.77 439.586> 446 691 375 519 0.359893 -0.932993<134.922 366.747 421.527 624.251> 408 691 375 519 0.432173 0.901791<-612.812 -464.244 -409.177 -169.37>
AnchorPoint: "top" 420 732 basechar 0
LayerCount: 3
Fore
SplineSet
29 44 m 1
 95 45 95 38 131 113 c 2
 408 691 l 1
 446 691 l 1
 657 144 l 2
 695 45 697 44 735 44 c 2
 769 44 l 1
 770 0 l 1
 466 0 l 1
 465 44 l 1
 483 44 l 2
 527 44 543 45 543 59 c 0
 543 66 538 78 532 95 c 2
 474 250 l 1
 254 250 l 1
 187 92 l 2
 182 79 178 69 178 62 c 0
 178 46 195 44 236 44 c 2
 277 44 l 1
 277 0 l 1
 30 0 l 1
 29 44 l 1
275 301 m 1
 454 301 l 1
 375 519 l 1
 275 301 l 1
EndSplineSet
Layer: 2
SplineSet
25.390625 0 m 29
 24.4140625 39.0625 l 21
 74.21875 41.9921875 69.82421875 31.73828125 106.4453125 113.28125 c 4
 239.74609375 410.15625 240.234375 410.15625 253.90625 443.359375 c 4
 356.93359375 691.40625 352.05078125 691.40625 363.76953125 691.40625 c 6
 370.60546875 691.40625 l 6
 381.34765625 691.40625 380.37109375 679.19921875 410.64453125 605.46875 c 6
 624.0234375 82.03125 l 6
 643.5546875 34.1796875 646.484375 40.0390625 696.2890625 39.0625 c 13
 694.82421875 0 l 29
 466.796875 0 l 29
 467.7734375 39.0625 l 21
 521.97265625 40.0390625 541.9921875 37.109375 541.9921875 50.78125 c 4
 541.9921875 57.12890625 538.57421875 66.40625 532.2265625 82.03125 c 6
 458.0078125 263.671875 l 13
 225.5859375 263.671875 l 21
 146.97265625 87.890625 l 6
 141.6015625 76.171875 137.20703125 63.4765625 137.20703125 56.15234375 c 4
 137.20703125 35.15625 153.3203125 40.52734375 219.23828125 39.0625 c 13
 219.23828125 0 l 29
 25.390625 0 l 29
244.62890625 307.6171875 m 29
 440.91796875 307.6171875 l 29
 345.703125 545.41015625 l 29
 244.62890625 307.6171875 l 29
EndSplineSet
Position2: "'cpsp' Capital Spacing in Latin lookup 1 subtable" dx=6 dy=0 dh=12 dv=0
EndChar

StartChar: B
Encoding: 66 66 25
Width: 633
VWidth: 0
Flags: W
HStem: 0 49<31 102.961 244.841 381.345> 334 44<244 381.966> 618 49<25 102.337 244.015 365.454>
VStem: 103 141<50.4407 334 378 617.657> 424 136<427.934 563.376> 457 141<119.908 266.872>
LayerCount: 3
Fore
SplineSet
23 623 m 1xf4
 25 667 l 1
 311 667 l 2
 447 667 560 635 560 510 c 0xf8
 560 378 434 359 434 359 c 1
 434 359 598 342 598 180 c 0
 598 85 522 0 344 0 c 2
 31 0 l 1
 31 44 l 1
 90 46 103 39 103 73 c 2
 103 586 l 2
 103 628 78 622 23 623 c 1xf4
243 334 m 1
 244 86 l 2
 244 50 252 49 294 49 c 0
 398 49 457 119 457 190 c 0xf4
 457 248 427 334 267 334 c 2
 243 334 l 1
244 378 m 1
 325 378 l 2
 389 378 424 438 424 498 c 0xf8
 424 558 382 618 272 618 c 0
 249 618 244 610 244 595 c 2
 244 378 l 1
EndSplineSet
Position2: "'cpsp' Capital Spacing in Latin lookup 1 subtable" dx=4 dy=0 dh=9 dv=0
EndChar

StartChar: C
Encoding: 67 67 26
Width: 757
VWidth: 0
Flags: W
HStem: -20 57<325.754 533.114> 628 55<309.187 539.16>
VStem: 37 148<198.365 456.577> 620 39<645.006 701> 673 35<159.156 216>
AnchorPoint: "cedilla" 402 -93 basechar 0
AnchorPoint: "top" 400 732 basechar 0
LayerCount: 3
Fore
SplineSet
37 323 m 0
 37 611 267 683 400 683 c 0
 539 683 591 645 605 645 c 0
 617 645 620 653 620 665 c 0
 620 675 617 687 617 701 c 1
 659 706 l 1
 669 609 682 523 692 459 c 1
 648 455 l 1
 648 455 640 508 638 517 c 0
 628 554 612 567 586 584 c 0
 544 610 480 628 418 628 c 0
 377 628 337 621 304 604 c 0
 211 557 185 448 185 346 c 0
 185 88 333 37 432 37 c 0
 470 37 508 46 541 62 c 0
 617 98 631 119 635 124 c 0
 660 156 667 188 673 220 c 1
 708 216 l 1
 701 131 695 104 686 61 c 1
 681 61 l 2
 676 61 666 60 653 53 c 0
 626 39 585 13 537 -0 c 0
 495 -11 449 -20 402 -20 c 0
 156 -20 37 121 37 323 c 0
EndSplineSet
Position2: "'cpsp' Capital Spacing in Latin lookup 1 subtable" dx=5 dy=0 dh=11 dv=0
EndChar

StartChar: D
Encoding: 68 68 27
Width: 782
VWidth: 0
Flags: W
HStem: 0 49<26 101.789 246.75 428.682> 620 47<23 101.169 244.906 407.758>
VStem: 102 141<53.6041 618.45> 586 143<223.475 441.104>
LayerCount: 3
Fore
SplineSet
729 346 m 0
 729 205 650 0 333 0 c 2
 26 0 l 1
 26 44 l 1
 102 45 102 39 102 88 c 2
 102 584 l 2
 102 626 90 622 23 623 c 1
 22 667 l 1
 357 667 l 2
 468 667 553 655 639 574 c 0
 698 519 729 435 729 346 c 0
243 95 m 2
 243 53 263 49 303 49 c 0
 540 49 586 194 586 328 c 0
 586 469 491 620 292 620 c 2
 284 620 l 2
 252 620 243 615 243 573 c 2
 243 95 l 2
EndSplineSet
Layer: 2
SplineSet
21 667 m 5
 357 667 l 6
 383 667 429 666 462 661 c 4
 518 652 579 630 639 574 c 4
 698 519 729 435 729 346 c 4
 729 308 723 268 711 230 c 4
 674 115 570 0 333 0 c 6
 25 0 l 5
 25 44 l 5
 101 45 101 39 101 88 c 6
 101 584 l 6
 101 626 89 622 22 623 c 5
 21 667 l 5
243 95 m 6
 243 53 263 49 303 49 c 4
 540 49 586 194 586 328 c 4
 586 469 491 620 292 620 c 6
 284 620 l 6
 252 620 243 615 243 573 c 6
 243 95 l 6
EndSplineSet
Position2: "'cpsp' Capital Spacing in Latin lookup 1 subtable" dx=6 dy=0 dh=12 dv=0
EndChar

StartChar: E
Encoding: 69 69 28
Width: 638
VWidth: 0
Flags: W
HStem: 0 60<240.763 492.28> 0 44<27 98.4125> 350 51<240.686 438.492> 615 52<241.016 506.437> 623 44<20 98.1731>
VStem: 99 141<61.3927 349.736 401.103 612.835> 440 42<246 349.647 401.892 490> 534 39<500 577.455>
AnchorPoint: "top" 303 732 basechar 0
LayerCount: 3
Fore
SplineSet
19 667 m 1x6f
 552 667 l 1x6f
 558 610 565 555 573 500 c 1
 534 500 l 1
 514 609 502 615 441 615 c 2
 296 615 l 2
 241 615 240 612 240 567 c 2
 240 438 l 2
 240 401 247 401 271 401 c 2
 402 401 l 2
 445 401 439 407 440 490 c 1
 482 490 l 1
 482 246 l 1
 440 246 l 1
 440 295 l 2
 440 349 438 350 405 350 c 2
 274 350 l 2
 249 350 240 349 240 323 c 2
 240 101 l 2
 240 66 244 60 270 60 c 0xb7
 562 63 550 65 557 91 c 0
 564 114 573 184 577 205 c 1
 621 198 l 1
 609 144 598 63 592 0 c 1
 27 0 l 1
 26 44 l 1
 94 45 99 39 99 82 c 2
 99 580 l 2
 99 622 99 623 20 623 c 1
 19 667 l 1x6f
EndSplineSet
Position2: "'cpsp' Capital Spacing in Latin lookup 1 subtable" dx=5 dy=0 dh=10 dv=0
EndChar

StartChar: F
Encoding: 70 70 29
Width: 596
VWidth: 0
Flags: W
HStem: 0 44<24 97.9915 241.299 359> 350 51<240.686 438.492> 615 52<241.016 510.998> 623 44<20 98.1731>
VStem: 99 141<46.8743 349.736 401.103 612.835> 440 42<246 349.647 401.892 490> 542 27<501 555.379>
LayerCount: 3
Fore
SplineSet
99 88 m 2xee
 99 580 l 2
 99 622 99 623 20 623 c 1
 19 667 l 1
 563 667 l 1xde
 569 501 l 1
 542 501 l 1
 522 610 502 615 441 615 c 2
 296 615 l 2
 241 615 240 612 240 567 c 2
 240 438 l 2
 240 401 247 401 271 401 c 2
 402 401 l 2
 445 401 439 407 440 490 c 1
 482 490 l 1
 482 245 l 1
 440 246 l 1
 440 295 l 2
 440 349 438 350 405 350 c 2
 274 350 l 2
 249 350 240 349 240 323 c 2
 240 87 l 2
 240 39 246 45 359 44 c 1
 359 0 l 1
 24 0 l 1
 24 44 l 1
 93 46 99 37 99 88 c 2xee
EndSplineSet
Position2: "'cpsp' Capital Spacing in Latin lookup 1 subtable" dx=4 dy=0 dh=9 dv=0
EndChar

StartChar: H
Encoding: 72 72 30
Width: 854
VWidth: 0
Flags: W
HStem: 0 44<32 106.101 249.707 351 506 587.374 729.824 815> 333 51<248 588> 623 44<23 106.155 249.589 333 482 587.2 731.162 810>
VStem: 107 141<46.8477 333 384 620.57> 588 141<45.6034 333 384 620.289>
AnchorPoint: "top" 406 732 basechar 0
LayerCount: 3
Fore
SplineSet
729 578 m 2
 729 87 l 2
 729 39 732 45 815 44 c 1
 815 0 l 1
 506 0 l 1
 506 44 l 1
 587 45 588 39 588 88 c 2
 588 333 l 1
 248 333 l 1
 248 87 l 2
 248 39 260 45 351 44 c 1
 352 0 l 1
 32 0 l 1
 31 44 l 1
 64 44 l 2
 103 44 107 46 107 88 c 2
 107 589 l 2
 107 625 95 622 23 623 c 1
 23 667 l 1
 333 667 l 1
 333 623 l 1
 260 620 248 631 248 578 c 2
 248 384 l 1
 588 384 l 1
 588 589 l 2
 588 621 580 623 508 623 c 2
 482 623 l 1
 481 667 l 1
 810 667 l 1
 810 623 l 1
 748 620 729 631 729 578 c 2
EndSplineSet
Layer: 2
SplineSet
729.98046875 578.125 m 6
 729.98046875 87.40234375 l 6
 729.98046875 39.55078125 733.3984375 45.41015625 815.91796875 43.9453125 c 5
 815.91796875 0 l 5
 505.859375 0 l 5
 506.34765625 43.9453125 l 5
 586.9140625 45.41015625 588.37890625 39.55078125 588.37890625 88.37890625 c 6
 588.37890625 333.984375 l 5
 247.55859375 333.984375 l 5
 247.55859375 87.40234375 l 6
 247.55859375 39.0625 260.25390625 44.921875 351.07421875 43.9453125 c 5
 352.05078125 0 l 5
 32.2265625 0 l 5
 31.25 43.9453125 l 5
 102.5390625 45.41015625 105.95703125 37.59765625 105.95703125 88.37890625 c 6
 105.95703125 588.8671875 l 6
 105.95703125 625 94.7265625 621.09375 22.94921875 622.55859375 c 5
 22.94921875 666.50390625 l 5
 333.0078125 666.50390625 l 5
 333.0078125 622.55859375 l 5
 260.25390625 619.62890625 247.55859375 630.859375 247.55859375 578.125 c 6
 247.55859375 385.25390625 l 5
 588.37890625 385.25390625 l 5
 588.37890625 588.8671875 l 6
 588.37890625 625 578.125 622.0703125 482.421875 622.55859375 c 5
 480.95703125 666.50390625 l 5
 810.546875 666.50390625 l 5
 810.546875 622.55859375 l 5
 748.53515625 619.140625 729.98046875 630.859375 729.98046875 578.125 c 6
EndSplineSet
Position2: "'cpsp' Capital Spacing in Latin lookup 1 subtable" dx=6 dy=0 dh=13 dv=0
Comment: "Try to keep the crossbar below the x-height blue zone." 
EndChar

StartChar: I
Encoding: 73 73 31
Width: 381
VWidth: 0
Flags: W
HStem: 0 44<35 114.835 258.154 354> 623 44<28 114.94 258.49 340>
VStem: 116 141<46.1082 620.069>
AnchorPoint: "top" 179 732 basechar 0
LayerCount: 3
Fore
SplineSet
257 578 m 2
 257 87 l 2
 257 39 263 45 354 44 c 1
 354 0 l 1
 35 0 l 1
 35 44 l 1
 69 44 l 2
 110 44 116 46 116 88 c 2
 116 589 l 2
 116 625 100 622 28 623 c 1
 28 667 l 1
 340 667 l 1
 340 623 l 1
 268 622 257 629 257 578 c 2
EndSplineSet
Position2: "'cpsp' Capital Spacing in Latin lookup 1 subtable" dx=3 dy=0 dh=6 dv=0
EndChar

StartChar: J
Encoding: 74 74 32
Width: 381
VWidth: 0
Flags: W
HStem: -262 70<-25 94.9398> 623 44<45 115.489 258.305 338>
VStem: -48 70<-185.12 -155 -138 -110.67> 116 141<-120.13 621.317>
AnchorPoint: "top" 176 732 basechar 0
LayerCount: 3
Fore
SplineSet
116 88 m 2
 116 589 l 2
 116 621 111 623 63 623 c 2
 45 623 l 1
 45 667 l 1
 338 667 l 1
 338 623 l 1
 266 622 257 629 257 578 c 2
 257 -14 l 2
 257 -65 244 -173 136 -226 c 0
 99 -244 51 -262 -2 -262 c 0
 -48 -262 -57 -256 -57 -226 c 0
 -57 -206 -53 -184 -48 -145 c 0
 -48 -144 -46 -106 -15 -106 c 0
 6 -106 10 -123 16 -138 c 2
 22 -155 l 2
 30 -175 42 -192 63 -192 c 0
 104 -192 116 -150 116 88 c 2
EndSplineSet
Position2: "'cpsp' Capital Spacing in Latin lookup 1 subtable" dx=3 dy=0 dh=6 dv=0
EndChar

StartChar: K
Encoding: 75 75 33
Width: 787
VWidth: 0
Flags: W
HStem: 0 44<38 114.968 258.299 363 665.895 751> 623 44<38 115.091 258.042 337 503 565.988 643.179 730>
VStem: 116 141<46.5386 261 321 621.05>
DStem2: 257 321 303 302 0.747041 0.664778<0 21.7331 158.508 422.732> 406 392 303 302 0.622927 -0.78228<6.24375 394.486>
AnchorPoint: "cedilla" 385 -93 basechar 0
AnchorPoint: "top" 347 732 basechar 0
LayerCount: 3
Fore
SplineSet
257 261 m 1
 257 87 l 2
 257 39 264 45 363 44 c 1
 364 0 l 1
 38 0 l 1
 38 44 l 1
 71 44 l 2
 111 44 116 46 116 88 c 2
 116 589 l 2
 116 621 105 623 56 623 c 2
 38 623 l 1
 38 667 l 1
 337 667 l 1
 337 623 l 1
 263 622 257 629 257 578 c 2
 257 321 l 1
 543 582 l 2
 557 594 566 603 566 610 c 0
 566 619 549 623 503 623 c 1
 502 667 l 1
 730 667 l 1
 730 623 l 1
 714 623 l 2
 672 623 662 622 593 560 c 2
 406 392 l 1
 664 68 l 2
 684 44 711 44 724 44 c 2
 752 44 l 1
 751 0 l 1
 547 0 l 1
 303 302 l 1
 257 261 l 1
EndSplineSet
Position2: "'cpsp' Capital Spacing in Latin lookup 1 subtable" dx=6 dy=0 dh=12 dv=0
EndChar

StartChar: L
Encoding: 76 76 34
Width: 640
VWidth: 0
Flags: MW
HStem: 0 49<40 120.321 262.885 507.987> 0 44<40 119.835 263.542 503.54> 623 44<33 119.94 264.413 355>
VStem: 121 141<49.7262 619.677>
AnchorPoint: "commaright" 419 654 basechar 0
AnchorPoint: "cedilla" 319 -93 basechar 0
AnchorPoint: "top" 196 732 basechar 0
LayerCount: 3
Fore
SplineSet
262 578 m 2x70
 262 90 l 2
 262 53 267 49 293 49 c 0xb0
 303 49 464 50 508 61 c 0
 528 66 540 73 571 192 c 1
 610 184 l 1
 596 123 584 61 571 0 c 1x70
 40 0 l 1xb0
 40 44 l 1
 74 44 l 2
 115 44 121 46 121 88 c 2
 121 589 l 2
 121 625 105 622 33 623 c 1
 33 667 l 1
 356 667 l 1
 355 623 l 1
 283 622 262 629 262 578 c 2x70
EndSplineSet
Layer: 2
SplineSet
262 578 m 6x70
 262 90 l 6
 262 53 267 49 293 49 c 4
 293 49 464 50 508 61 c 4xb0
 528 66 540 73 571 192 c 5
 610 184 l 5
 596 123 584 61 571 0 c 5
 40 0 l 5
 40 44 l 5
 46 44 51 44 56 44 c 4
 63 44 69 44 74 44 c 4
 115 44 121 46 121 88 c 6
 121 589 l 6
 121 625 105 622 33 623 c 5
 33 667 l 5
 356 667 l 5
 355 623 l 5
 283 622 262 629 262 578 c 6x70
EndSplineSet
Position2: "'cpsp' Capital Spacing in Latin lookup 1 subtable" dx=5 dy=0 dh=10 dv=0
EndChar

StartChar: M
Encoding: 77 77 35
Width: 1069
VWidth: 0
Flags: MW
HStem: -23 21G<462 485.5> 0 44<35 107.801 170.272 271 707 785.835 929.061 1024> 623 44<23 113.81 929.582 1012>
VStem: 110 59<47.3838 497.347> 787 141<46.1082 514>
DStem2: 247 667 117 592 0.476449 -0.879202<0 4.00183 106.623 583.484> 525 154 509 0 0.475732 0.87959<0 441.294>
LayerCount: 3
Fore
SplineSet
117 592 m 1
 114 599 113 622 74 622 c 2
 23 623 l 1
 22 667 l 1
 247 667 l 1
 525 154 l 1
 803 667 l 1
 1012 667 l 1
 1012 623 l 1
 940 622 928 629 928 578 c 2
 928 87 l 2
 928 39 933 45 1024 44 c 1
 1025 0 l 1
 706 0 l 1
 707 44 l 1
 740 44 l 2
 781 44 787 46 787 88 c 2
 787 514 l 1
 509 0 l 2
 497 -21 495 -23 476 -23 c 2
 468 -23 l 2
 456 -23 449 -21 438 0 c 2
 170 504 l 1
 169 364 169 99 169 85 c 0
 169 42 176 45 271 44 c 1
 271 0 l 1
 35 0 l 1
 35 44 l 1
 98 45 109 39 110 90 c 2
 117 592 l 1
EndSplineSet
Layer: 2
SplineSet
787 514 m 1xec
 509 0 l 2
 497 -21 495 -23 476 -23 c 2
 468 -23 l 2
 456 -23 449 -21 438 0 c 2
 170 504 l 1xec
 169 364 166 99 166 85 c 0
 166 42 176 45 271 44 c 1
 271 0 l 1
 35 0 l 1
 35 44 l 1
 98 45 109 39 110 90 c 2xf4
 117 592 l 2
 117 592 116 599 109 609 c 0
 103 617 93 622 74 622 c 2
 23 623 l 1
 22 667 l 1
 247 667 l 1
 525 154 l 1
 803 667 l 1
 1013 667 l 1
 1013 623 l 1
 941 622 929 629 929 578 c 2
 929 87 l 2
 929 39 934 45 1025 44 c 1
 1026 0 l 1
 706 0 l 1
 707 44 l 1
 778 45 787 37 787 88 c 2
 787 514 l 1xec
EndSplineSet
Position2: "'cpsp' Capital Spacing in Latin lookup 1 subtable" dx=8 dy=0 dh=16 dv=0
EndChar

StartChar: N
Encoding: 78 78 36
Width: 786
VWidth: 0
Flags: W
HStem: -17 21G<656.5 680.5> 0 44<33 103.689 165.5 269> 623 44<35 94.3577 534 630.969 690.297 763>
VStem: 105 58<47.2808 532> 631 58<205 621.09>
DStem2: 231 667 163 532 0.667424 -0.744678<55.1467 611.011>
AnchorPoint: "cedilla" 402 -93 basechar 0
AnchorPoint: "top" 394 732 basechar 0
LayerCount: 3
Fore
SplineSet
689 9 m 2x78
 689 -8 685 -17 676 -17 c 2
 662 -17 l 2xb8
 651 -17 646 -15 632 1 c 2
 163 532 l 1
 163 100 l 2
 163 38 169 45 269 44 c 1
 269 0 l 1
 33 0 l 1
 31 44 l 1
 98 45 105 39 105 89 c 2
 105 589 l 1
 90 604 85 623 47 623 c 2
 33 623 l 1
 35 667 l 1
 231 667 l 1
 631 205 l 1
 631 599 l 2
 631 625 621 622 534 623 c 1
 533 667 l 1
 763 667 l 1
 763 623 l 1
 690 622 689 627 689 570 c 2
 689 9 l 2x78
EndSplineSet
Layer: 2
SplineSet
688 9 m 6x78
 688 -8 685 -17 676 -17 c 6
 662 -17 l 6xb8
 651 -17 646 -15 632 1 c 6
 161 532 l 5
 164 100 l 6
 164 38 170 45 270 44 c 5
 270 0 l 5
 33 0 l 5
 31 44 l 5
 98 45 105 39 105 89 c 6
 105 589 l 5
 90 604 85 623 47 623 c 6
 33 623 l 5
 35 667 l 5
 231 667 l 5
 631 205 l 5
 631 599 l 6
 631 625 621 622 534 623 c 5
 533 667 l 5
 763 667 l 5
 763 623 l 5
 690 622 688 627 688 570 c 6
 688 9 l 6x78
EndSplineSet
Position2: "'cpsp' Capital Spacing in Latin lookup 1 subtable" dx=6 dy=0 dh=12 dv=0
EndChar

StartChar: O
Encoding: 79 79 37
Width: 828
VWidth: 0
Flags: W
HStem: -23 62<336.214 522.214> 640 51<299.505 490.935>
VStem: 36 153<232.596 473.629> 642 151<196.116 432.279>
AnchorPoint: "top" 398 732 basechar 0
LayerCount: 3
Fore
SplineSet
36 340 m 0
 36 573 195 691 403 691 c 0
 622 691 793 558 793 319 c 0
 793 95 621 -23 403 -23 c 0
 156 -23 36 145 36 340 c 0
189 406 m 0
 189 238 237 39 429 39 c 0
 533 39 642 106 642 264 c 0
 642 446 577 640 403 640 c 0
 309 640 189 597 189 406 c 0
EndSplineSet
Position2: "'cpsp' Capital Spacing in Latin lookup 1 subtable" dx=6 dy=0 dh=12 dv=0
EndChar

StartChar: p
Encoding: 112 112 38
Width: 529
VWidth: 0
Flags: MW
HStem: -259 37<9 78.7858 193.243 301> -6 42<211.993 351.415> 334 66<252.607 392> 382 20G<167.5 193 297 392>
VStem: 79 114<-220.097 9 55.3669 315.89> 393 117<101.547 266.072>
LayerCount: 3
Fore
SplineSet
9 -222 m 1xec
 22 -222 l 2
 72 -222 79 -221 79 -198 c 2
 79 299 l 2
 79 320 74 328 61 328 c 0
 50 328 34 322 9 318 c 1
 9 356 l 1
 46 363 142 387 193 402 c 1xdc
 193 339 l 1
 193 339 255 400 339 400 c 0
 445 400 510 298 510 196 c 0
 510 121 468 -6 297 -6 c 0
 232 -6 193 9 193 9 c 1
 193 -197 l 2
 193 -221 197 -222 281 -222 c 2
 302 -222 l 1
 301 -259 l 1
 9 -259 l 1
 9 -222 l 1xec
193 73 m 1
 193 73 220 36 291 36 c 0
 366 36 393 95 393 169 c 0
 393 248 352 334 274 334 c 0xec
 218 334 193 296 193 296 c 1
 193 73 l 1
EndSplineSet
EndChar

StartChar: q
Encoding: 113 113 39
Width: 528
VWidth: 0
Flags: W
HStem: -259 37<225 332.608 450.535 525> -8 64<132 283.79> 355 44<179.157 322.471>
VStem: 20 116<129.6 288.115> 335 114<-218.783 48 70.0488 337.599>
LayerCount: 3
Fore
SplineSet
449 245 m 2
 449 -176 l 2
 449 -219 452 -222 495 -222 c 2
 525 -222 l 1
 525 -259 l 1
 225 -259 l 1
 225 -222 l 1
 257 -222 l 2
 324 -222 335 -220 335 -183 c 2
 335 48 l 1
 335 48 280 -8 188 -8 c 0
 76 -8 20 102 20 199 c 0
 20 334 138 399 245 399 c 0
 308 399 372 372 390 372 c 0
 404 372 406 378 411 388 c 0
 429 428 426 439 434 439 c 0
 444 439 461 435 461 430 c 0
 461 421 449 370 449 245 c 2
335 87 m 1
 335 325 l 1
 335 325 300 355 245 355 c 0
 163 355 136 286 136 230 c 0
 136 149 177 56 257 56 c 0
 311 56 335 87 335 87 c 1
EndSplineSet
Layer: 2
SplineSet
450 245 m 6xf8
 450 -176 l 6
 450 -227 454 -222 526 -222 c 5
 526 -259 l 5
 225 -259 l 5
 225 -222 l 5
 321 -222 335 -225 335 -183 c 6
 335 48 l 5xf8
 335 48 280 -8 188 -8 c 4
 76 -8 20 102 20 199 c 4
 20 334 138 399 245 399 c 4
 308 399 373 372 391 372 c 4
 405 372 407 378 412 388 c 4
 416 397 422 410 426 424 c 4
 429 435 431 439 435 439 c 4
 445 439 462 435 462 430 c 4xf4
 462 421 450 370 450 245 c 6xf8
335 87 m 5
 335 325 l 5
 335 325 300 355 245 355 c 4
 163 355 136 286 136 230 c 4
 136 149 177 56 257 56 c 4
 311 56 335 87 335 87 c 5
EndSplineSet
EndChar

StartChar: v
Encoding: 118 118 40
Width: 570
VWidth: 0
Flags: W
HStem: -21 21G<254.186 305.818> 355 37<16 87.0931 222.019 291 349 416.987 472.864 554>
DStem2: 232 309 106 301 0.44051 -0.897748<-31.9378 201.714> 319 127 296 -21 0.440673 0.897668<0 233.106>
LayerCount: 3
Fore
SplineSet
15 392 m 1
 291 392 l 1
 291 355 l 1
 248 353 222 359 222 340 c 0
 222 333 225 323 232 309 c 2
 319 127 l 1
 398 287 l 2
 411 313 417 330 417 339 c 0
 417 357 399 354 349 355 c 1
 349 392 l 1
 554 392 l 1
 554 355 l 1
 523 355 l 2
 483 355 479 353 458 309 c 2
 296 -21 l 1
 264 -21 l 1
 106 301 l 2
 77 361 81 354 16 355 c 1
 15 392 l 1
EndSplineSet
Layer: 2
SplineSet
15 392 m 5
 291 392 l 5
 291 355 l 5
 248 353 222 359 222 340 c 4
 222 333 225 323 232 309 c 6
 319 127 l 5
 381 255 417 318 417 339 c 4
 417 357 399 354 349 355 c 5
 349 392 l 5
 554 392 l 5
 554 355 l 5
 485 354 484 362 458 309 c 6
 296 -21 l 5
 264 -21 l 5
 106 301 l 6
 77 361 81 354 16 355 c 5
 15 392 l 5
EndSplineSet
EndChar

StartChar: x
Encoding: 120 120 41
Width: 631
VWidth: 0
Flags: W
HStem: 0 37<16 104.149 163.024 244 312 379.987 532.685 607> 355 37<38 121.627 265.013 323 373 426.982 483.853 586>
DStem2: 121 69 174 63 0.747972 0.66373<16.9394 182.12 286.259 411.909> 276 327 134 325 0.678646 -0.734465<-21.2792 89.1406 126.102 273.081>
LayerCount: 3
Fore
SplineSet
15 0 m 1
 16 37 l 1
 39 37 l 2
 78 37 87 39 121 69 c 2
 258 189 l 1
 134 325 l 2
 103 359 86 354 38 355 c 1
 38 392 l 1
 323 392 l 1
 323 355 l 1
 283 355 265 355 265 346 c 0
 265 342 269 336 276 327 c 2
 336 258 l 1
 407 320 l 2
 421 332 427 340 427 345 c 0
 427 355 403 355 373 355 c 1
 373 392 l 1
 587 392 l 1
 586 355 l 1
 545 355 l 2
 506 355 502 353 467 323 c 2
 359 232 l 1
 481 104 l 2
 537 44 552 37 607 37 c 1
 608 0 l 1
 312 0 l 1
 312 37 l 1
 362 37 380 41 380 51 c 0
 380 57 374 65 365 75 c 2
 283 166 l 1
 174 63 l 2
 166 56 163 51 163 47 c 0
 163 36 196 39 244 37 c 1
 245 0 l 1
 15 0 l 1
EndSplineSet
EndChar

StartChar: z
Encoding: 122 122 42
Width: 440
VWidth: 0
Flags: W
HStem: 0 95<145 382.011> 308 77<88.8967 291>
VStem: 37 35<229 284.64> 52 30<391.677 423> 398 33<117.406 172>
DStem2: 49 47 145 95 0.679912 0.733294<100.47 355.928>
AnchorPoint: "top" 224 488 basechar 0
LayerCount: 3
Fore
SplineSet
49 47 m 2xd8
 291 308 l 1
 139 308 l 2
 94 308 80 288 72 226 c 9
 37 229 l 17xe8
 46 291 50 354 52 424 c 9
 82 423 l 17
 82 405 87 385 113 385 c 2
 400 385 l 2
 406 385 406 381 406 379 c 0
 406 376 395 365 380 348 c 2
 145 95 l 1
 306 95 l 2
 393 95 386 120 398 175 c 9
 431 172 l 17
 427 160 408 63 399 0 c 1
 33 0 l 2
 26 0 22 1 22 9 c 0
 22 19 38 35 49 47 c 2xd8
EndSplineSet
EndChar

StartChar: P
Encoding: 80 80 43
Width: 672
VWidth: 0
Flags: W
HStem: 0 44<43 131.028 274.938 398> 257 45<273.026 451.163> 618 49<40 131.754 273.902 412.392>
VStem: 132 141<47.875 273 308.798 617.369> 503 133<369.974 531.476>
LayerCount: 3
Fore
SplineSet
320 618 m 2
 310 618 l 2
 279 618 273 615 273 578 c 2
 273 317 l 1
 273 317 294 302 362 302 c 0
 467 302 503 355 503 447 c 0
 503 550 424 618 320 618 c 2
636 461 m 0
 636 373 582 257 392 257 c 0
 322 257 273 273 273 273 c 1
 273 87 l 2
 273 39 286 45 398 44 c 1
 399 0 l 1
 43 0 l 1
 43 44 l 1
 82 44 l 2
 128 44 132 46 132 88 c 2
 132 589 l 2
 132 625 120 622 40 623 c 1
 40 667 l 1
 395 667 l 2
 493 667 636 649 636 461 c 0
EndSplineSet
Position2: "'cpsp' Capital Spacing in Latin lookup 1 subtable" dx=5 dy=0 dh=10 dv=0
EndChar

StartChar: Q
Encoding: 81 81 44
Width: 842
VWidth: 0
Flags: W
HStem: -259 109<682.262 794.5> 0 39<486 518.854> 640 51<306.371 486.325>
VStem: 41 148<230.256 474.863> 645 148<192.508 436.213>
LayerCount: 3
Fore
SplineSet
429 39 m 0
 580 39 645 164 645 300 c 0
 645 462 552 640 403 640 c 0
 245 640 189 515 189 370 c 0
 189 199 274 39 429 39 c 0
41 340 m 0
 41 573 195 691 403 691 c 0
 721 691 793 478 793 319 c 0
 793 9 486 0 486 0 c 1
 536 -31 558 -47 572 -58 c 0
 616 -93 696 -150 765 -150 c 0
 804 -150 839 -133 860 -124 c 0
 866 -121 871 -120 875 -120 c 0
 879 -120 890 -122 890 -133 c 0
 890 -137 888 -144 884 -152 c 0
 844 -221 775 -259 705 -259 c 0
 582 -259 520 -151 372 -44 c 0
 290 15 311 -11 226 26 c 0
 156 56 41 132 41 340 c 0
EndSplineSet
Position2: "'cpsp' Capital Spacing in Latin lookup 1 subtable" dx=6 dy=0 dh=13 dv=0
EndChar

StartChar: R
Encoding: 82 82 45
Width: 827
VWidth: 0
Flags: W
HStem: 0 44<35 110.213 255.368 373 692.005 784> 297 44<252.06 356> 618 49<23 110.688 253.266 392.962>
VStem: 111 141<49.337 307 344.386 617.456> 462 143<403.622 554.485>
AnchorPoint: "cedilla" 373 -93 basechar 0
AnchorPoint: "top" 328 732 basechar 0
LayerCount: 3
Fore
SplineSet
252 578 m 2
 252 351 l 1
 252 351 266 341 317 341 c 0
 392 341 462 391 462 478 c 0
 462 572 391 618 301 618 c 2
 288 618 l 2
 264 618 252 617 252 578 c 2
605 482 m 0
 605 369 496 325 496 325 c 1
 692 66 l 2
 709 44 724 44 784 44 c 1
 785 0 l 1
 555 0 l 1
 356 297 l 1
 272 297 253 307 252 307 c 1
 252 87 l 2
 252 39 282 45 373 44 c 1
 373 0 l 1
 35 0 l 1
 35 44 l 1
 68 44 l 2
 108 44 111 46 111 88 c 2
 111 589 l 2
 111 625 95 622 23 623 c 1
 23 667 l 1
 347 667 l 2
 450 667 605 661 605 482 c 0
EndSplineSet
Position2: "'cpsp' Capital Spacing in Latin lookup 1 subtable" dx=6 dy=0 dh=12 dv=0
EndChar

StartChar: S
Encoding: 83 83 46
Width: 514
VWidth: 0
Flags: W
HStem: -19 54<135.064 324.033> 637 50<206.584 366.551>
VStem: 40 41<-55 2.82352> 57 106<479.638 574.794> 363 115<91.5861 182.975> 429 37<502 568.125>
DStem2: 259 418 159 322 0.856064 -0.516869<-112.218 185.449>
AnchorPoint: "cedilla" 251 -93 basechar 0
AnchorPoint: "top" 273 732 basechar 0
LayerCount: 3
Fore
SplineSet
57 493 m 0xd8
 57 586 139 687 283 687 c 0
 350 687 392 664 398 664 c 0
 412 664 413 675 413 698 c 2
 413 702 l 1
 450 705 l 1
 456 624 461 558 466 502 c 1
 429 499 l 1
 421 578 l 1
 421 578 362 637 280 637 c 0
 218 637 163 600 163 537 c 0xd4
 163 486 209 448 259 418 c 2
 312 386 l 2
 394 336 478 278 478 167 c 0
 478 69 378 -19 246 -19 c 0
 173 -19 123 3 105 3 c 0
 84 3 81 -8 81 -22 c 0
 81 -33 82 -55 82 -55 c 1
 40 -58 l 1xe8
 31 25 23 75 1 181 c 1
 45 189 l 1
 57 137 l 1
 65 97 80 79 116 64 c 0
 170 42 209 35 254 35 c 0
 321 35 363 78 363 124 c 0
 363 198 272 246 202 293 c 2
 159 322 l 2
 85 372 57 424 57 493 c 0xd8
EndSplineSet
Layer: 2
SplineSet
246 -19 m 4xd8
 173 -19 123 3 105 3 c 4
 84 3 81 -8 81 -22 c 4
 81 -33 82 -55 82 -55 c 5
 40 -58 l 5xe8
 31 25 23 75 1 181 c 5
 45 189 l 5
 57 137 l 6
 65 97 80 79 116 64 c 4
 170 42 209 35 254 35 c 4
 321 35 363 78 363 124 c 4xd8
 363 216 220 265 131 344 c 4
 115 358 57 403 57 493 c 4
 57 533 72 573 100 607 c 4
 150 667 218 687 283 687 c 4
 350 687 392 664 398 664 c 4
 412 664 413 675 413 698 c 6
 413 702 l 5
 450 705 l 5
 456 624 461 558 466 502 c 5
 429 499 l 5xd4
 421 578 l 5
 421 578 362 637 280 637 c 4
 218 637 163 600 163 537 c 4
 163 399 478 381 478 167 c 4
 478 69 378 -19 246 -19 c 4xd8
EndSplineSet
Position2: "'cpsp' Capital Spacing in Latin lookup 1 subtable" dx=4 dy=0 dh=8 dv=0
EndChar

StartChar: T
Encoding: 84 84 47
Width: 743
VWidth: 0
Flags: W
HStem: 0 44<222 326.136 469.905 588> 610 61<114.147 326.058 468.497 669.936>
VStem: 53 41<493 588.449> 327 141<48.0534 608.831> 683 41<488 598.799>
AnchorPoint: "cedilla" 397 -93 basechar 0
AnchorPoint: "top" 397 732 basechar 0
LayerCount: 3
Fore
SplineSet
53 493 m 1
 57 531 61 597 66 671 c 1
 722 671 l 1
 722 671 723 602 723 566 c 0
 723 541 724 515 724 488 c 1
 683 486 l 1
 683 486 680 529 679 544 c 0
 674 609 655 610 613 610 c 2
 501 610 l 2
 474 610 468 604 468 578 c 2
 468 85 l 2
 468 41 481 45 588 44 c 1
 588 0 l 1
 222 0 l 1
 222 44 l 1
 325 46 327 37 327 88 c 2
 327 575 l 2
 327 606 317 610 286 610 c 2
 189 610 l 2
 123 610 117 604 109 572 c 0
 104 551 99 522 94 490 c 1
 53 493 l 1
EndSplineSet
Layer: 2
SplineSet
52.734375 492.67578125 m 5
 56.640625 530.2734375 63.4765625 600.09765625 68.84765625 673.828125 c 5
 194.3359375 667.48046875 318.359375 666.50390625 396.97265625 666.50390625 c 4
 486.328125 666.50390625 634.27734375 670.8984375 724.12109375 673.828125 c 5
 723.6328125 637.6953125 723.14453125 602.5390625 723.14453125 566.40625 c 4
 723.14453125 541.015625 723.6328125 515.13671875 723.6328125 488.28125 c 5
 682.6171875 486.328125 l 5
 682.6171875 486.328125 680.17578125 529.296875 679.19921875 543.9453125 c 4
 673.828125 609.375 655.2734375 610.3515625 612.79296875 610.3515625 c 6
 500.9765625 610.3515625 l 6
 474.12109375 610.3515625 468.26171875 604.00390625 468.26171875 578.125 c 6
 468.26171875 84.9609375 l 6
 468.26171875 41.015625 480.95703125 44.921875 587.890625 43.9453125 c 5
 588.37890625 0 l 5
 221.6796875 0 l 5
 222.16796875 43.9453125 l 5
 324.70703125 45.8984375 326.66015625 37.59765625 326.66015625 88.37890625 c 6
 326.66015625 575.1953125 l 6
 326.66015625 606.4453125 317.3828125 610.3515625 286.1328125 610.3515625 c 6
 189.453125 610.3515625 l 6
 123.046875 610.3515625 117.1875 604.4921875 109.375 572.265625 c 4
 104.4921875 551.26953125 99.12109375 521.484375 94.23828125 489.74609375 c 5
 52.734375 492.67578125 l 5
EndSplineSet
Position2: "'cpsp' Capital Spacing in Latin lookup 1 subtable" dx=5 dy=0 dh=11 dv=0
EndChar

StartChar: U
Encoding: 85 85 48
Width: 765
VWidth: 0
Flags: W
HStem: -23 61<326.717 540.951> 623 44<22 96.6385 239.582 322 517 613.969 670.988 743>
VStem: 97 141<126.856 621.05> 614 56<114.384 621.084>
AnchorPoint: "top" 416 732 basechar 0
LayerCount: 3
Fore
SplineSet
670 241 m 2
 670 209 668 171 664 146 c 0
 638 2 534 -23 396 -23 c 0
 314 -23 242 -9 188 26 c 0
 146 53 97 102 97 216 c 2
 97 589 l 2
 97 625 94 622 22 623 c 1
 22 667 l 1
 322 667 l 1
 322 623 l 1
 250 622 238 629 238 578 c 2
 238 246 l 2
 238 181 242 38 434 38 c 0
 603 38 614 137 614 244 c 2
 614 599 l 2
 614 625 604 622 517 623 c 1
 516 667 l 1
 743 667 l 1
 743 623 l 1
 672 622 670 627 670 575 c 2
 670 241 l 2
EndSplineSet
Position2: "'cpsp' Capital Spacing in Latin lookup 1 subtable" dx=5 dy=0 dh=11 dv=0
EndChar

StartChar: V
Encoding: 86 86 49
Width: 758
VWidth: 0
Flags: W
HStem: -22 21G<343.731 393.947> 623 44<21 93.8018 255.009 331 523 601.987 665.455 736>
DStem2: 271 562 118 544 0.382063 -0.924136<-50.0766 403.701> 423 188 385 -22 0.408366 0.912818<0 453.527>
LayerCount: 3
Fore
SplineSet
21 623 m 1
 21 667 l 1
 332 667 l 1
 331 623 l 1
 300 623 l 2
 267 623 255 622 255 610 c 0
 255 601 261 587 271 562 c 2
 423 188 l 1
 596 584 l 2
 600 593 602 600 602 605 c 0
 602 621 584 623 560 623 c 2
 523 623 l 1
 521 667 l 1
 737 667 l 1
 736 623 l 1
 670 622 675 626 640 548 c 2
 385 -22 l 1
 352 -22 l 1
 118 544 l 2
 82 631 96 622 21 623 c 1
EndSplineSet
Position2: "'cpsp' Capital Spacing in Latin lookup 1 subtable" dx=5 dy=0 dh=11 dv=0
EndChar

StartChar: W
Encoding: 87 87 50
Width: 1063
VWidth: 0
Flags: W
HStem: -22 21G<314.686 362.174 680.922 728.31> 623 44<41 89.8809 244.01 304 380 461.429 611.011 672 860 924.984 981.057 1033>
DStem2: 256 563 115 544 0.343474 -0.939162<-45.0442 393.95> 394 194 354 -22 0.378304 0.925682<0 258.086> 627 562 512 477 0.335059 -0.942197<-50.2265 41.5549 106.065 396.945> 760 188 720 -22 0.383692 0.923461<0 451.78>
AnchorPoint: "top" 522 732 basechar 0
LayerCount: 3
Fore
SplineSet
41 623 m 1
 41 667 l 1
 304 667 l 1
 304 623 l 1
 291 623 l 2
 257 623 244 622 244 607 c 0
 244 598 248 584 256 563 c 2
 394 194 l 1
 512 477 l 1
 456 613 466 623 421 623 c 2
 380 623 l 1
 380 667 l 1
 672 667 l 1
 672 623 l 1
 626 623 611 622 611 610 c 0
 611 602 618 587 627 562 c 2
 760 188 l 1
 915 577 l 2
 921 592 925 602 925 609 c 0
 925 625 903 622 860 623 c 1
 858 667 l 1
 1033 667 l 1
 1034 623 l 1
 989 622 988 624 956 546 c 2
 720 -22 l 1
 688 -22 l 1
 533 416 l 1
 354 -22 l 1
 322 -22 l 1
 115 544 l 2
 87 619 79 623 52 623 c 2
 41 623 l 1
EndSplineSet
Position2: "'cpsp' Capital Spacing in Latin lookup 1 subtable" dx=8 dy=0 dh=16 dv=0
EndChar

StartChar: X
Encoding: 88 88 51
Width: 799
VWidth: 0
Flags: W
HStem: 0 44<36 127.946 201.015 279 436 501.986 668.182 744> 623 44<53 133.086 288.015 350 500 555.988 622.764 705>
DStem2: 303 579 146 583 0.565399 -0.824817<-34.6401 191.69 287.968 543.657> 167 110 220 91 0.618841 0.785516<-19.5436 247.761 397.316 634.87>
LayerCount: 3
Fore
SplineSet
36 0 m 1
 36 44 l 1
 108 45 111 40 167 110 c 2
 332 315 l 1
 146 583 l 2
 121 619 118 623 89 623 c 2
 53 623 l 1
 52 667 l 1
 350 667 l 1
 350 623 l 1
 308 622 288 622 288 611 c 0
 288 605 291 596 303 579 c 2
 413 422 l 1
 542 586 l 2
 551 598 556 607 556 612 c 0
 556 622 540 623 514 623 c 2
 500 623 l 1
 500 667 l 1
 706 667 l 1
 705 623 l 1
 641 623 629 614 591 565 c 2
 445 378 l 1
 629 116 l 2
 674 51 686 44 712 44 c 2
 744 44 l 1
 745 0 l 1
 436 0 l 1
 435 44 l 1
 483 44 502 44 502 56 c 0
 502 62 496 72 486 87 c 2
 363 271 l 1
 220 91 l 2
 208 75 201 65 201 58 c 0
 201 45 221 44 253 44 c 2
 279 44 l 1
 279 0 l 1
 36 0 l 1
EndSplineSet
Position2: "'cpsp' Capital Spacing in Latin lookup 1 subtable" dx=6 dy=0 dh=12 dv=0
EndChar

StartChar: Y
Encoding: 89 89 52
Width: 693
VWidth: 0
Flags: W
HStem: 0 44<179 266.556 410.892 514> 623 44<20 78.1232 244.014 305 449 534.993 592.571 659>
VStem: 268 141<47.2325 307>
DStem2: 261 577 104 562 0.540924 -0.841071<-38.3906 230.876> 388 371 409 310 0.530563 0.847645<0 281.266>
AnchorPoint: "top" 372 732 basechar 0
LayerCount: 3
Fore
SplineSet
268 307 m 1
 104 562 l 2
 65 623 69 623 20 623 c 1
 18 667 l 1
 305 667 l 1
 305 623 l 1
 263 623 244 623 244 612 c 0
 244 606 250 594 261 577 c 2
 388 371 l 1
 527 593 l 2
 532 601 535 607 535 611 c 0
 535 620 525 623 495 623 c 2
 449 623 l 1
 447 667 l 1
 659 667 l 1
 659 623 l 1
 609 622 606 624 578 580 c 2
 409 310 l 1
 409 87 l 2
 409 39 423 45 514 44 c 1
 515 0 l 1
 179 0 l 1
 179 44 l 1
 258 46 268 37 268 88 c 2
 268 307 l 1
EndSplineSet
Layer: 2
SplineSet
268 307 m 5
 104 562 l 6
 65 623 69 623 20 623 c 5
 18 667 l 5
 305 667 l 5
 305 623 l 5
 263 623 244 623 244 612 c 4
 244 606 250 595 261 577 c 6
 389 371 l 5
 528 593 l 6
 533 601 536 607 536 611 c 4
 536 620 526 623 496 623 c 6
 450 623 l 5
 448 667 l 5
 660 667 l 5
 660 623 l 5
 610 622 607 624 579 580 c 6
 410 310 l 5
 410 87 l 6
 410 39 424 45 515 44 c 5
 516 0 l 5
 179 0 l 5
 179 44 l 5
 258 46 268 37 268 88 c 6
 268 307 l 5
EndSplineSet
Position2: "'cpsp' Capital Spacing in Latin lookup 1 subtable" dx=5 dy=0 dh=10 dv=0
EndChar

StartChar: Z
Encoding: 90 90 53
Width: 702
VWidth: 0
Flags: W
HStem: 0 132<188 589.051> 549 118<85.0858 493>
VStem: 30 40<451 536.421> 635 31<206.484 247.129>
DStem2: 70 80 188 132 0.663176 0.748463<117.175 631.553>
AnchorPoint: "top" 352 732 basechar 0
LayerCount: 3
Fore
SplineSet
450 132 m 2
 599 132 599 141 635 251 c 1
 666 246 l 1
 660 204 645 116 627 0 c 1
 36 0 l 2
 25 0 23 3 23 20 c 0
 23 32 31 37 70 80 c 2
 493 549 l 1
 115 549 l 2
 86 549 86 546 70 447 c 1
 30 451 l 1
 38 508 50 609 55 667 c 1
 621 667 l 2
 642 667 650 665 650 659 c 0
 650 655 646 649 639 641 c 2
 188 132 l 1
 450 132 l 2
EndSplineSet
Position2: "'cpsp' Capital Spacing in Latin lookup 1 subtable" dx=5 dy=0 dh=11 dv=0
EndChar

StartChar: period
Encoding: 46 46 54
Width: 254
VWidth: 0
Flags: W
HStem: -15 154<82.437 147.58>
VStem: 40 150<26.8945 96.3716>
LayerCount: 3
Fore
SplineSet
40 63 m 0
 40 82 98 139 116 139 c 0
 131 139 190 79 190 66 c 0
 190 40 136 -15 115 -15 c 0
 103 -15 40 37 40 63 c 0
EndSplineSet
EndChar

StartChar: hyphen
Encoding: 45 45 55
Width: 294
VWidth: 0
Flags: W
HStem: 220 144
VStem: 24 265
DStem2: 57 300 60 226 0.959074 0.283155<-40.7054 227.109>
LayerCount: 3
Fore
SplineSet
24 245 m 2
 24 266 l 2
 24 288 25 290 57 300 c 2
 267 362 l 2
 270 363 273 364 275 364 c 0
 283 364 289 358 289 345 c 2
 289 320 l 2
 289 300 289 295 259 286 c 2
 60 226 l 2
 47 222 39 220 34 220 c 0
 26 220 24 226 24 245 c 2
EndSplineSet
EndChar

StartChar: comma
Encoding: 44 44 56
Width: 242
VWidth: 0
Flags: W
HStem: -186 330
VStem: 108 101<-71.4665 68.0248>
LayerCount: 3
Fore
SplineSet
209 19 m 0
 209 -29 187 -91 148 -134 c 0
 130 -154 108 -168 83 -177 c 0
 70 -181 56 -186 41 -186 c 0
 26 -186 19 -179 19 -168 c 0
 19 -163 22 -157 32 -152 c 0
 58 -137 108 -125 108 -48 c 0
 108 43 37 43 37 64 c 0
 37 83 105 144 117 144 c 0
 125 144 209 116 209 19 c 0
EndSplineSet
EndChar

StartChar: exclam
Encoding: 33 33 57
Width: 293
VWidth: 0
Flags: W
HStem: -15 154<131.098 196.58>
VStem: 88 151<27.2629 96.3716> 155 32<195.177 303.375>
LayerCount: 3
Fore
SplineSet
88 63 m 0xc0
 88 82 147 139 165 139 c 0
 180 139 239 79 239 66 c 0
 239 40 185 -15 164 -15 c 0
 152 -15 88 37 88 63 c 0xc0
120 612 m 0
 120 620 127 624 147 631 c 2
 220 659 l 2
 228 662 233 663 237 663 c 0
 243 663 246 659 246 653 c 0
 246 649 244 642 243 635 c 2
 187 256 l 2
 178 197 172 194 168 194 c 2
 166 194 l 2
 159 194 157 207 155 220 c 0xa0
 154 228 146 298 146 304 c 0
 135 435 120 565 120 612 c 0
EndSplineSet
Position2: "'cpsp' Capital Spacing in Latin lookup 1 subtable" dx=2 dy=0 dh=4 dv=0
EndChar

StartChar: question
Encoding: 63 63 58
Width: 387
VWidth: 0
Flags: W
HStem: -15 154<180.098 245.58> 600 64<138.128 261.61>
VStem: 104 77<232.178 333.208> 137 151<27.2629 96.3716> 295 70<503.198 578.532>
DStem2: 187 436 271 361 0.814955 0.579524<-94.5158 135.889>
LayerCount: 3
Fore
SplineSet
137 63 m 0xd8
 137 82 196 139 214 139 c 0
 229 139 288 79 288 66 c 0
 288 40 234 -15 213 -15 c 0
 201 -15 137 37 137 63 c 0xd8
181 250 m 0xe8
 181 220 200 204 200 188 c 0
 200 183 197 178 190 178 c 0
 165 178 104 230 104 311 c 0
 104 368 144 405 187 436 c 2
 232 468 l 2
 268 493 295 518 295 557 c 0
 295 574 282 600 216 600 c 0
 184 600 141 585 120 574 c 0
 108 568 104 575 104 582 c 0
 104 584 104 586 104 588 c 0
 112 611 134 664 195 664 c 0
 225 664 278 639 320 604 c 0
 355 574 365 541 365 511 c 0
 365 454 336 416 307 392 c 2
 271 361 l 2
 218 316 181 289 181 250 c 0xe8
EndSplineSet
Position2: "'cpsp' Capital Spacing in Latin lookup 1 subtable" dx=3 dy=0 dh=6 dv=0
EndChar

StartChar: semicolon
Encoding: 59 59 59
Width: 254
VWidth: 0
Flags: W
HStem: 247 153<82.437 147.58>
VStem: 40 150<288.895 357.08> 108 101<-71.4665 68.0248>
LayerCount: 3
Fore
SplineSet
40 325 m 0xc0
 40 344 98 400 116 400 c 0
 131 400 190 340 190 327 c 0
 190 301 136 247 115 247 c 0
 103 247 40 299 40 325 c 0xc0
209 19 m 0xa0
 209 -29 187 -91 148 -134 c 0
 130 -154 108 -168 83 -177 c 0
 70 -181 56 -186 41 -186 c 0
 26 -186 19 -179 19 -168 c 0
 19 -163 22 -157 32 -152 c 0
 58 -137 108 -125 108 -48 c 0
 108 43 37 43 37 64 c 0
 37 83 105 144 117 144 c 0
 125 144 209 116 209 19 c 0xa0
EndSplineSet
EndChar

StartChar: colon
Encoding: 58 58 60
Width: 254
VWidth: 0
Flags: W
HStem: -15 154<82.437 147.58> 247 153<82.437 147.58>
VStem: 40 150<26.8945 96.3716 288.895 357.08>
LayerCount: 3
Fore
SplineSet
40 63 m 0
 40 82 98 139 116 139 c 0
 131 139 190 79 190 66 c 0
 190 40 136 -15 115 -15 c 0
 103 -15 40 37 40 63 c 0
40 325 m 0
 40 344 98 400 116 400 c 0
 131 400 190 340 190 327 c 0
 190 301 136 247 115 247 c 0
 103 247 40 299 40 325 c 0
EndSplineSet
EndChar

StartChar: emdash
Encoding: 8212 8212 61
Width: 1000
VWidth: 488
Flags: W
HStem: 260 51<0 1000>
LayerCount: 3
Fore
SplineSet
0 260 m 1
 0 311 l 1
 1000 311 l 1
 1000 260 l 1
 0 260 l 1
EndSplineSet
EndChar

StartChar: endash
Encoding: 8211 8211 62
Width: 500
VWidth: 488
Flags: W
HStem: 260 51<0 500>
LayerCount: 3
Fore
SplineSet
0 260 m 1
 0 311 l 1
 500 311 l 1
 500 260 l 1
 0 260 l 1
EndSplineSet
EndChar

StartChar: afii00208
Encoding: 8213 8213 63
Width: 1000
VWidth: 488
Flags: W
HStem: 260 51<0 1000>
LayerCount: 3
Fore
SplineSet
0 260 m 1
 0 311 l 1
 1000 311 l 1
 1000 260 l 1
 0 260 l 1
EndSplineSet
EndChar

StartChar: quoteleft
Encoding: 8216 8216 64
Width: 242
VWidth: 0
Flags: W
HStem: 479 250
VStem: 48 94<537 654.377>
LayerCount: 3
Fore
SplineSet
142 634 m 0
 142 576 205 574 205 555 c 0
 205 539 147 479 135 479 c 0
 127 479 48 498 48 576 c 0
 48 704 179 729 190 729 c 0
 202 729 205 722 205 718 c 0
 205 690 142 691 142 634 c 0
EndSplineSet
EndChar

StartChar: quotesinglbase
Encoding: 8218 8218 65
Width: 242
VWidth: 0
Flags: W
HStem: -107 251
VStem: 110 94<-32.8544 85>
LayerCount: 3
Fore
SplineSet
110 -11 m 0
 110 47 47 48 47 67 c 0
 47 83 105 144 117 144 c 0
 125 144 204 124 204 46 c 0
 204 -82 73 -107 62 -107 c 0
 50 -107 47 -99 47 -95 c 0
 47 -67 110 -68 110 -11 c 0
EndSplineSet
EndChar

StartChar: oe
Encoding: 339 339 69
Width: 765
VWidth: 0
Flags: MW
HStem: -15 47<195.984 291.728> -10 74<519.102 641.764> 363 45<183.929 282.475> 365 36<487.676 558.693>
VStem: 25 122<91.4623 294.369> 325 134<133.919 223.843> 590 116<273 276>
LayerCount: 3
Fore
SplineSet
147 204 m 0xac
 147 115 182 32 241 32 c 0
 311 32 325 111 325 173 c 0
 325 288 302 363 231 363 c 0
 198 363 147 340 147 204 c 0xac
729 91 m 0
 729 66 647 -10 551 -10 c 0x5c
 426 -10 394 85 394 85 c 1
 394 85 364 -15 233 -15 c 0
 80 -15 25 94 25 193 c 0
 25 300 89 408 236 408 c 0xac
 368 408 394 302 394 302 c 1
 394 302 428 401 539 401 c 0
 647 401 706 305 706 273 c 0
 706 262 695 257 691 257 c 2
 459 224 l 1
 459 224 460 64 586 64 c 0x5c
 666 64 704 101 721 101 c 0
 725 101 729 97 729 91 c 0
460 258 m 1
 590 276 l 1
 590 276 577 365 521 365 c 0
 489 365 462 326 460 258 c 1
EndSplineSet
EndChar

StartChar: ae
Encoding: 230 230 70
Width: 622
VWidth: 0
Flags: HMW
HStem: -11 65<75 184.405> -10 74<395.227 507.48> 194 35<164.274 229> 351 54<108.413 211.24> 365 36<361.343 433.597>
VStem: 13 98<59.2867 132.184> 33 58<262.028 317.994> 229 105<132.783 194 258 321.276> 464 117<276 322.188>
LayerCount: 3
Fore
SplineSet
111 102 m 0xa580
 111 81 120 54 154 54 c 0
 214 54 248 104 248 104 c 1
 243 123 231 161 231 194 c 1
 181 194 111 160 111 102 c 0xa580
334 258 m 1
 464 276 l 1
 464 276 452 365 396 365 c 0x2980
 364 365 336 326 334 258 c 1
193 405 m 0xb380
 289 405 294 322 294 322 c 1
 294 322 326 401 414 401 c 0
 522 401 581 305 581 273 c 0
 581 262 570 257 566 257 c 2
 334 224 l 1
 334 224 335 64 461 64 c 0
 541 64 579 101 596 101 c 0
 601 101 604 97 604 88 c 0
 604 70 516 -10 414 -10 c 0x6b80
 312 -10 263 72 263 72 c 1
 263 72 190 -11 109 -11 c 0
 41 -11 13 25 13 68 c 0xa580
 13 190 206 228 229 229 c 1
 229 256 l 1
 228 289 231 351 159 351 c 0
 96 351 88 318 88 318 c 1
 88 318 91 310 91 299 c 0
 91 281 72 257 56 257 c 0
 52 257 33 260 33 287 c 0
 33 332 100 405 193 405 c 0xb380
EndSplineSet
EndChar

StartChar: f_i
Encoding: 65537 -1 71
Width: 589
VWidth: 0
Flags: W
HStem: 0 37<25 84.5884 200.036 292 320 394.596 509.696 577> 343 49<25 85 199 395> 384 20G<494 509> 679 42<258.612 370.427>
VStem: 85 114<38.7496 343 392 606.84> 395 114<38.3843 343>
LayerCount: 3
Fore
SplineSet
418 581 m 0xdc
 379 581 407 679 320 679 c 0
 205 679 199 530 199 485 c 2
 199 392 l 1
 395 392 l 2xdc
 437 392 479 396 509 404 c 1xbc
 509 64 l 2
 509 33 528 38 577 37 c 1
 577 0 l 1
 320 0 l 1
 320 37 l 1
 340 37 l 2
 380 37 395 38 395 61 c 2
 395 323 l 2
 395 336 390 343 382 343 c 2
 199 343 l 1
 199 67 l 2
 199 38 212 37 260 37 c 2
 293 37 l 1
 292 0 l 1
 24 0 l 1
 25 37 l 1
 47 37 l 2
 79 37 85 39 85 64 c 2
 85 343 l 1
 25 343 l 1
 25 392 l 1
 85 392 l 1
 85 502 l 2
 85 571 106 619 137 651 c 0
 186 703 276 721 330 721 c 0
 391 721 474 683 474 656 c 0
 474 640 441 581 418 581 c 0xdc
EndSplineSet
Layer: 2
SplineSet
418 581 m 4xdc
 379 581 407 679 320 679 c 4
 205 679 198 530 198 485 c 6
 198 392 l 5
 395 392 l 6xdc
 437 392 480 396 510 404 c 5xbc
 510 64 l 6
 510 33 529 38 578 37 c 5
 578 0 l 5
 320 0 l 5
 320 37 l 5
 376 37 395 35 395 61 c 6
 395 323 l 6
 395 336 390 343 382 343 c 6
 199 343 l 5
 199 67 l 6
 199 32 219 38 293 37 c 5
 292 0 l 5
 23 0 l 5
 24 37 l 5
 75 37 84 34 84 64 c 6
 84 343 l 5
 24 343 l 5
 24 392 l 5
 84 392 l 5
 84 502 l 6
 84 571 106 619 137 651 c 4
 186 703 276 721 330 721 c 4
 391 721 474 683 474 656 c 4
 474 640 441 581 418 581 c 4xdc
EndSplineSet
Ligature2: "'liga' Standard Ligatures in Latin lookup 9 subtable" f i
LCarets2: 1 0 
EndChar

StartChar: f_l
Encoding: 65538 -1 72
Width: 594
VWidth: 0
Flags: W
HStem: 0 37<31 90.8789 205.496 285 327 399.938 515.536 583> 343 49<31 91 205 307> 688 37<231.945 303.657>
VStem: 91 114<38.2769 343 392 620.846> 401 114<38.8149 649>
LayerCount: 3
Fore
SplineSet
91 500 m 2
 91 690 202 725 272 725 c 0
 303 725 372 713 402 694 c 1
 446 705 481 716 515 727 c 1
 515 63 l 2
 515 34 529 38 583 37 c 1
 583 0 l 1
 327 0 l 1
 327 37 l 1
 349 37 l 2
 383 37 401 39 401 64 c 2
 401 649 l 1
 383 628 356 602 339 602 c 0
 302 602 332 688 267 688 c 0
 208 688 205 590 205 545 c 2
 205 392 l 1
 309 392 l 1
 307 343 l 1
 205 343 l 1
 205 67 l 2
 205 38 210 37 254 37 c 2
 286 37 l 1
 285 0 l 1
 31 0 l 1
 31 37 l 1
 88 39 91 35 91 62 c 2
 91 343 l 1
 31 343 l 1
 31 392 l 1
 91 392 l 1
 91 500 l 2
EndSplineSet
Layer: 2
SplineSet
90 500 m 6
 90 690 202 725 272 725 c 4
 303 725 372 713 402 694 c 5
 446 705 482 716 516 727 c 5
 516 63 l 6
 516 34 530 38 584 37 c 5
 584 0 l 5
 327 0 l 5
 327 37 l 5
 375 37 401 34 401 64 c 6
 401 649 l 5
 383 628 356 602 339 602 c 4
 302 602 332 688 267 688 c 4
 208 688 204 590 204 545 c 6
 204 392 l 5
 309 392 l 5
 307 343 l 5
 205 343 l 5
 205 67 l 6
 205 32 212 38 286 37 c 5
 285 0 l 5
 30 0 l 5
 30 37 l 5
 87 39 90 35 90 62 c 6
 90 343 l 5
 30 343 l 5
 30 392 l 5
 90 392 l 5
 90 500 l 6
EndSplineSet
Ligature2: "'liga' Standard Ligatures in Latin lookup 9 subtable" f l
LCarets2: 1 0 
EndChar

StartChar: f_f
Encoding: 65539 -1 73
Width: 617
VWidth: 0
Flags: W
HStem: 0 37<31 99.6207 214.766 301 334 403.451 519.11 588> 343 49<30 100 214 404 518 590> 656 38<252.274 335.042> 679 45<534.225 593.883>
VStem: 100 114<38.2076 343 392 595.703> 404 114<38.4512 343 392 579.919>
LayerCount: 3
Fore
SplineSet
434 642 m 1xec
 455 686 521 724 584 724 c 0
 633 724 688 697 688 667 c 0
 688 651 650 598 631 598 c 0
 607 598 605 679 566 679 c 0xdc
 539 679 518 644 518 584 c 2
 518 392 l 1
 590 392 l 1
 590 343 l 1
 518 343 l 1
 518 67 l 2
 518 38 533 37 566 37 c 2
 588 37 l 1
 589 0 l 1
 334 0 l 1
 333 37 l 1
 394 38 404 35 404 64 c 2
 404 343 l 1
 214 343 l 1
 214 67 l 2
 214 38 223 37 269 37 c 2
 301 37 l 1
 301 0 l 1
 31 0 l 1
 30 37 l 1
 91 38 100 34 100 64 c 2
 100 343 l 1
 30 343 l 1
 30 392 l 1
 100 392 l 1
 100 500 l 2
 100 655 224 694 301 694 c 0
 343 694 417 670 434 642 c 1xec
214 392 m 1
 404 392 l 1
 404 500 l 2
 404 531 407 558 412 581 c 1
 403 570 392 562 383 562 c 0
 346 562 365 656 293 656 c 0xec
 217 656 214 529 214 484 c 2
 214 392 l 1
EndSplineSet
Layer: 2
SplineSet
434 642 m 5xec
 455 686 521 724 584 724 c 4
 633 724 688 697 688 667 c 4
 688 651 650 598 631 598 c 4
 607 598 605 679 566 679 c 4xdc
 539 679 518 644 518 584 c 6
 518 392 l 5
 590 392 l 5
 590 343 l 5
 518 343 l 5
 518 67 l 6
 518 32 540 38 588 37 c 5
 589 0 l 5
 334 0 l 5
 333 37 l 5
 394 38 403 35 403 64 c 6
 403 343 l 5
 214 343 l 5
 214 67 l 6
 214 32 227 38 301 37 c 5
 301 0 l 5
 31 0 l 5
 30 37 l 5
 91 38 100 34 100 64 c 6
 100 343 l 5
 30 343 l 5
 30 392 l 5
 100 392 l 5
 100 500 l 6
 100 655 224 694 301 694 c 4
 343 694 417 670 434 642 c 5xec
214 392 m 5
 404 392 l 5
 404 500 l 6
 404 531 407 558 412 581 c 5
 403 570 392 562 383 562 c 4
 346 562 365 656 293 656 c 4xec
 217 656 214 529 214 484 c 6
 214 392 l 5
EndSplineSet
Ligature2: "'liga' Standard Ligatures in Latin lookup 9 subtable" f f
LCarets2: 1 0 
EndChar

StartChar: f_f_i
Encoding: 65540 -1 74
Width: 808
VWidth: 0
Flags: W
HStem: 0 37<15 70.6987 185.477 257 282 342.566 458.403 524 549 614.771 729.696 797> 343 49<14 71 185 343 457 615> 384 20G<714 729> 654 37<217.246 300.802> 680 42<502.498 612.489>
VStem: 71 114<37.5124 343 392 599.872> 343 114<38.3843 343 392 559.184> 615 114<38.2156 343>
CounterMasks: 1 07
LayerCount: 3
Fore
SplineSet
343 392 m 1xd7
 343 479 l 2
 343 500 349 543 352 560 c 1
 343 561 325 580 316 606 c 0
 308 630 295 654 263 654 c 0
 192 654 185 567 185 527 c 2
 185 392 l 1
 343 392 l 1xd7
262 691 m 0
 305 691 363 671 392 647 c 1
 438 700 517 722 572 722 c 0
 633 722 699 689 699 660 c 0
 699 640 683 578 660 578 c 0
 621 578 650 680 563 680 c 0
 464 680 457 569 457 509 c 2
 457 392 l 1
 614 392 l 2xcf
 656 392 699 396 729 404 c 1xa7
 729 64 l 2
 729 33 748 38 797 37 c 1
 797 0 l 1
 549 0 l 1
 549 37 l 1
 569 37 l 2
 607 37 615 38 615 61 c 2
 615 323 l 2
 615 336 610 343 602 343 c 2
 457 343 l 1
 457 67 l 2
 457 39 473 37 502 37 c 2
 525 37 l 1
 524 0 l 1
 282 0 l 1
 280 37 l 1
 332 38 343 33 343 64 c 2
 343 343 l 1
 185 343 l 1
 185 67 l 2
 185 38 190 37 229 37 c 2
 257 37 l 1
 258 0 l 1
 15 0 l 1
 14 37 l 1
 36 37 l 2
 67 37 71 39 71 64 c 2
 71 343 l 1
 12 343 l 1
 14 392 l 1
 71 392 l 1
 71 502 l 2
 71 602 119 650 171 672 c 0
 196 683 228 691 262 691 c 0
EndSplineSet
Ligature2: "'liga' Standard Ligatures in Latin lookup 9 subtable" f f i
LCarets2: 2 0 0 
EndChar

StartChar: f_f_l
Encoding: 65541 -1 75
Width: 808
VWidth: 0
Flags: W
HStem: 0 37<15 70.6987 185.542 258 282 342.566 458.403 524 547 614.158 729.377 797> 343 49<14 71 185 343 457 555> 654 37<217.246 300.32> 679 42<482.287 552.167>
VStem: 71 114<37.6094 343 392 599.872> 343 114<38.3843 343 392 560> 615 114<38.9512 596>
CounterMasks: 1 0e
LayerCount: 3
Fore
SplineSet
615 596 m 1xde
 607 594 600 592 593 592 c 0
 579 592 572 598 567 617 c 0
 560 643 552 679 522 679 c 0xde
 465 679 457 602 457 542 c 2
 457 392 l 1
 555 392 l 1
 555 343 l 1
 457 343 l 1
 457 67 l 2
 457 39 473 37 502 37 c 2
 525 37 l 1
 524 0 l 1
 282 0 l 1
 280 37 l 1
 332 38 343 33 343 64 c 2
 343 343 l 1
 185 343 l 1
 185 67 l 2
 185 38 191 37 230 37 c 2
 258 37 l 1
 259 0 l 1
 15 0 l 1
 14 37 l 1
 36 37 l 2
 67 37 71 39 71 64 c 2
 71 343 l 1
 12 343 l 1
 14 392 l 1
 71 392 l 1
 71 502 l 2
 71 602 119 650 171 672 c 0
 196 683 228 691 262 691 c 0xee
 305 691 358 677 387 653 c 1
 387 653 435 721 520 721 c 0
 547 721 582 710 617 695 c 1
 660 706 695 716 729 727 c 1
 729 63 l 2
 729 34 738 40 797 37 c 1
 797 0 l 1
 547 0 l 1
 547 37 l 1
 569 37 l 2
 601 37 615 39 615 64 c 2
 615 596 l 1xde
343 392 m 1
 343 481 l 2
 343 495 346 543 349 560 c 1
 340 561 325 580 316 606 c 0
 308 630 295 654 263 654 c 0xee
 192 654 185 567 185 527 c 2
 185 392 l 1
 343 392 l 1
EndSplineSet
Ligature2: "'liga' Standard Ligatures in Latin lookup 9 subtable" f f l
LCarets2: 2 0 0 
EndChar

StartChar: f_j
Encoding: 65542 -1 76
Width: 589
VWidth: 0
Flags: W
HStem: -259 60<320.638 377.758> 0 37<24 83.6658 199.102 292> 343 49<24 84 198 394.986> 384 20G<494 509> 679 42<258.55 370.427>
VStem: 84 114<38.8457 343 392 602.877> 395 114<-141.719 343>
LayerCount: 3
Fore
SplineSet
271 -121 m 0xde
 306 -121 312 -199 352 -199 c 0
 386 -199 395 -131 395 -31 c 2
 395 319 l 2
 395 333 394 343 382 343 c 2
 198 343 l 1
 198 67 l 2
 198 38 212 37 260 37 c 2
 293 37 l 1
 292 0 l 1
 23 0 l 1
 24 37 l 1
 76 39 84 33 84 64 c 2
 84 343 l 1
 24 343 l 1
 24 392 l 1
 84 392 l 1
 84 502 l 2
 84 571 106 619 137 651 c 0
 186 703 276 721 330 721 c 0
 391 721 474 683 474 656 c 0
 474 640 441 581 418 581 c 0
 379 581 407 679 320 679 c 0
 205 679 198 530 198 485 c 2
 198 392 l 1
 394 392 l 2xee
 436 392 479 396 509 404 c 1
 509 -48 l 2
 509 -192 385 -259 330 -259 c 0
 295 -259 215 -248 215 -202 c 0
 215 -175 238 -143 252 -129 c 0
 258 -123 264 -121 271 -121 c 0xde
EndSplineSet
Ligature2: "'liga' Standard Ligatures in Latin lookup 9 subtable" f j
LCarets2: 1 0 
EndChar

StartChar: f_f_j
Encoding: 65543 -1 77
Width: 808
VWidth: 0
Flags: W
HStem: -259 60<540.638 597.758> 0 37<15 70.6987 185.542 258 282 342.566 458.403 524> 343 49<14 71 185 343 457 615> 384 20G<714 729> 654 37<217.246 300.802> 680 42<502.498 612.489>
VStem: 71 114<37.6094 343 392 599.872> 343 114<38.3843 343 392 559.184> 615 114<-141.719 343>
CounterMasks: 1 0380
LayerCount: 3
Back
SplineSet
343.26171875 391.6015625 m 5xf7
 343.26171875 479.00390625 l 6
 343.26171875 500 348.14453125 542.96875 351.5625 560.05859375 c 5
 342.7734375 561.5234375 325.1953125 580.078125 316.40625 606.4453125 c 4
 308.59375 630.37109375 294.921875 653.80859375 262.6953125 653.80859375 c 4
 191.40625 653.80859375 185.05859375 567.3828125 185.05859375 527.34375 c 6
 185.05859375 391.6015625 l 5
 343.26171875 391.6015625 l 5xf7
262.20703125 691.40625 m 4
 305.17578125 691.40625 363.28125 671.38671875 392.08984375 647.4609375 c 5
 438.4765625 700.68359375 517.578125 721.6796875 572.265625 721.6796875 c 4
 633.30078125 721.6796875 699.21875 688.96484375 699.21875 659.66796875 c 4
 699.21875 640.13671875 683.59375 577.63671875 660.15625 577.63671875 c 4
 621.09375 577.63671875 649.90234375 679.6875 562.98828125 679.6875 c 4xef
 463.8671875 679.6875 457.03125 568.359375 457.03125 508.7890625 c 6
 457.03125 391.6015625 l 5
 614.2578125 391.6015625 l 6
 656.73828125 391.6015625 699.21875 396.484375 729.4921875 404.296875 c 5
 729.4921875 63.96484375 l 6
 729.4921875 32.71484375 748.046875 38.0859375 797.36328125 36.62109375 c 5
 797.36328125 0 l 5
 549.31640625 0 l 5
 549.31640625 36.62109375 l 5
 605.46875 37.109375 614.74609375 34.1796875 614.74609375 60.546875 c 6
 614.74609375 322.75390625 l 6
 614.74609375 335.44921875 610.3515625 342.7734375 602.05078125 342.7734375 c 6
 457.51953125 342.7734375 l 5
 457.51953125 67.3828125 l 6
 457.51953125 33.69140625 481.4453125 37.109375 524.90234375 36.62109375 c 5
 523.92578125 0 l 5
 281.73828125 0 l 5
 280.2734375 36.62109375 l 5
 332.51953125 38.0859375 342.7734375 33.203125 342.7734375 64.453125 c 6
 342.7734375 342.7734375 l 5
 185.546875 342.7734375 l 5
 185.546875 67.3828125 l 6
 185.546875 32.71484375 194.3359375 38.0859375 258.30078125 36.62109375 c 5
 258.7890625 0 l 5
 14.6484375 0 l 5
 13.671875 36.62109375 l 5
 64.94140625 37.109375 70.80078125 34.1796875 70.80078125 64.453125 c 6
 70.80078125 342.7734375 l 5
 12.20703125 342.7734375 l 5
 13.671875 391.6015625 l 5
 71.2890625 391.6015625 l 5
 71.2890625 502.44140625 l 6
 71.2890625 602.5390625 119.140625 649.90234375 170.8984375 672.36328125 c 4
 196.2890625 683.59375 228.02734375 691.40625 262.20703125 691.40625 c 4
EndSplineSet
Fore
SplineSet
615 323 m 2xd380
 615 336 610 343 602 343 c 2
 457 343 l 1
 457 67 l 2
 457 39 473 37 502 37 c 2
 525 37 l 1
 524 0 l 1
 282 0 l 1
 280 37 l 1
 332 38 343 33 343 64 c 2
 343 343 l 1
 185 343 l 1
 185 67 l 2
 185 38 191 37 230 37 c 2
 258 37 l 1
 259 0 l 1
 15 0 l 1
 14 37 l 1
 36 37 l 2
 67 37 71 39 71 64 c 2
 71 343 l 1
 12 343 l 1
 14 392 l 1
 71 392 l 1
 71 502 l 2
 71 602 119 650 171 672 c 0
 196 683 228 691 262 691 c 0xeb80
 305 691 363 671 392 647 c 1
 438 700 517 722 572 722 c 0
 633 722 699 689 699 660 c 0
 699 640 683 578 660 578 c 0
 621 578 650 680 563 680 c 0
 464 680 457 569 457 509 c 2
 457 392 l 1
 614 392 l 2xe780
 656 392 699 396 729 404 c 1
 729 -48 l 2
 729 -192 605 -259 550 -259 c 0
 515 -259 435 -248 435 -202 c 0
 435 -175 458 -143 472 -129 c 0
 478 -123 484 -121 491 -121 c 0
 526 -121 532 -199 572 -199 c 0
 606 -199 615 -131 615 -31 c 2
 615 323 l 2xd380
343 392 m 1
 343 479 l 2
 343 500 349 543 352 560 c 1
 343 561 325 580 316 606 c 0
 308 630 295 654 263 654 c 0
 192 654 185 567 185 527 c 2
 185 392 l 1
 343 392 l 1
EndSplineSet
Ligature2: "'liga' Standard Ligatures in Latin lookup 9 subtable" f f j
LCarets2: 2 0 0 
EndChar

StartChar: f_b
Encoding: 65544 -1 78
Width: 852
VWidth: 0
Flags: W
HStem: -14 44<525.458 663.389> 0 37<30 89.9267 204.5 285> 335 66<566.97 658.693> 343 49<30 90 204 307> 688 37<231.818 303.657>
VStem: 90 114<37.9709 343 392 620.846> 401 114<42.1917 324.577 341 649> 715 110<102.19 272.135>
LayerCount: 3
Fore
SplineSet
401 649 m 1xaf
 383 628 356 602 339 602 c 0
 302 602 332 688 267 688 c 0
 208 688 204 590 204 545 c 2
 204 392 l 1
 309 392 l 1
 307 343 l 1
 204 343 l 1
 204 67 l 2
 204 38 209 37 254 37 c 2
 286 37 l 1
 285 0 l 1
 30 0 l 1
 30 37 l 1
 89 38 90 36 90 62 c 2
 90 343 l 1
 30 343 l 1
 30 392 l 1
 90 392 l 1x5f
 90 500 l 2
 90 690 202 725 272 725 c 0
 303 725 372 713 402 694 c 1
 446 705 481 716 515 727 c 1
 515 341 l 1
 529 356 581 401 653 401 c 0
 773 401 825 298 825 215 c 0
 825 102 774 -14 594 -14 c 0
 522 -14 473 13 457 13 c 0
 415 13 417 -61 398 -61 c 0
 394 -61 370 -60 370 -44 c 0
 370 -27 401 49 401 153 c 2
 401 649 l 1xaf
515 82 m 2
 515 37 558 30 598 30 c 0
 643 30 715 56 715 175 c 0
 715 321 618 335 597 335 c 0xaf
 537 335 515 312 515 312 c 1
 515 82 l 2
EndSplineSet
Layer: 2
SplineSet
401 649 m 5xaf
 383 628 356 602 339 602 c 4
 302 602 332 688 267 688 c 4
 208 688 204 590 204 545 c 6
 204 392 l 5
 309 392 l 5
 307 343 l 5
 205 343 l 5
 205 67 l 6
 205 32 212 38 286 37 c 5
 285 0 l 5
 30 0 l 5
 30 37 l 5
 89 38 90 36 90 62 c 6
 90 343 l 5
 30 343 l 5
 30 392 l 5
 90 392 l 5x5f
 90 500 l 6
 90 690 202 725 272 725 c 4
 303 725 372 713 402 694 c 5
 446 705 482 716 516 727 c 5
 516 341 l 5
 530 356 582 401 654 401 c 4
 774 401 826 298 826 215 c 4
 826 102 775 -14 595 -14 c 4
 523 -14 473 13 457 13 c 4
 415 13 417 -61 398 -61 c 4
 394 -61 370 -60 370 -44 c 4
 370 -27 401 49 401 153 c 6
 401 649 l 5xaf
516 82 m 6
 516 37 559 30 599 30 c 4
 644 30 716 56 716 175 c 4
 716 321 619 335 598 335 c 4xaf
 538 335 516 312 516 312 c 5
 516 82 l 6
EndSplineSet
Ligature2: "'liga' Standard Ligatures in Latin lookup 9 subtable" f b
LCarets2: 1 0 
EndChar

StartChar: f_f_b
Encoding: 65545 -1 79
Width: 1065
VWidth: 0
Flags: W
HStem: -14 44<739.311 877.619> 0 37<15 70.6987 185.542 258 282 342.566 458.403 524> 335 66<782.342 873.419> 343 49<14 71 185 343 457 555> 654 37<217.246 300.32> 679 42<482.287 552.167>
VStem: 71 114<37.6094 343 392 599.872> 343 114<38.3843 343 392 560> 615 114<42.1917 324.577 341 596> 930 110<102.19 272.135>
LayerCount: 3
Fore
SplineSet
615 596 m 1xa7c0
 607 594 600 592 593 592 c 0
 579 592 572 598 567 617 c 0
 560 643 552 679 522 679 c 0xa7c0
 465 679 457 602 457 542 c 2
 457 392 l 1
 555 392 l 1
 555 343 l 1
 457 343 l 1
 457 67 l 2
 457 39 473 37 502 37 c 2
 525 37 l 1
 524 0 l 1
 282 0 l 1
 280 37 l 1
 332 38 343 33 343 64 c 2
 343 343 l 1
 185 343 l 1
 185 67 l 2
 185 38 191 37 230 37 c 2
 258 37 l 1
 259 0 l 1
 15 0 l 1
 14 37 l 1
 36 37 l 2
 67 37 71 39 71 64 c 2
 71 343 l 1
 12 343 l 1
 14 392 l 1
 71 392 l 1
 71 502 l 2
 71 602 119 650 171 672 c 0
 196 683 228 691 262 691 c 0x5bc0
 305 691 358 677 387 653 c 1
 387 653 435 721 520 721 c 0
 547 721 582 710 617 695 c 1
 660 706 695 716 729 727 c 1
 729 341 l 1
 743 356 796 401 868 401 c 0
 988 401 1040 298 1040 215 c 0
 1040 102 988 -14 808 -14 c 0
 736 -14 686 13 670 13 c 0
 628 13 631 -61 612 -61 c 0
 608 -61 583 -60 583 -44 c 0
 583 -27 615 49 615 153 c 2
 615 596 l 1xa7c0
729 82 m 2
 729 37 772 30 812 30 c 0
 857 30 930 56 930 175 c 0
 930 321 832 335 811 335 c 0
 751 335 729 312 729 312 c 1
 729 82 l 2
343 392 m 1x1bc0
 343 481 l 2
 343 495 346 543 349 560 c 1
 340 561 325 580 316 606 c 0
 308 630 295 654 263 654 c 0
 192 654 185 567 185 527 c 2
 185 392 l 1
 343 392 l 1x1bc0
EndSplineSet
Ligature2: "'liga' Standard Ligatures in Latin lookup 9 subtable" f f b
LCarets2: 2 0 0 
EndChar

StartChar: f_h
Encoding: 65546 -1 80
Width: 875
VWidth: 0
Flags: W
HStem: 0 37<30 89.9267 204.5 285 333 399.989 515.558 567 612 650.171 766.724 833> 329 69<595.117 700.34> 343 49<30 90 204 307> 688 37<231.818 303.657>
VStem: 90 114<37.7226 343 392 620.846> 401 114<37.9668 316.059 336 649> 651 115<37.75 321.182>
AnchorPoint: "top" 605 732 basechar 0
LayerCount: 3
Fore
SplineSet
401 649 m 1xde
 383 628 356 602 339 602 c 0
 302 602 332 688 267 688 c 0
 208 688 204 590 204 545 c 2
 204 392 l 1
 309 392 l 1
 307 343 l 1
 204 343 l 1
 204 67 l 2
 204 38 209 37 254 37 c 2
 286 37 l 1
 285 0 l 1
 30 0 l 1
 30 37 l 1
 89 38 90 35 90 62 c 2
 90 343 l 1
 30 343 l 1
 30 392 l 1
 90 392 l 1xbe
 90 500 l 2
 90 690 202 725 272 725 c 0
 303 725 372 713 402 694 c 1
 446 705 481 716 515 727 c 1
 515 336 l 1
 532 343 614 398 687 398 c 0
 758 398 766 347 766 302 c 2
 766 67 l 2
 766 38 775 37 810 37 c 2
 834 37 l 1
 833 0 l 1
 612 0 l 1
 612 37 l 1
 640 38 651 36 651 67 c 2
 651 264 l 2
 651 314 631 329 605 329 c 0
 562 329 515 308 515 308 c 1
 515 72 l 2
 515 32 519 39 567 37 c 1
 567 0 l 1
 333 0 l 1
 332 37 l 1
 392 38 401 32 401 72 c 2
 401 649 l 1xde
EndSplineSet
Ligature2: "'liga' Standard Ligatures in Latin lookup 9 subtable" f h
LCarets2: 1 0 
EndChar

StartChar: f_f_h
Encoding: 65547 -1 81
Width: 1065
VWidth: 0
Flags: W
HStem: 0 37<15 70.6987 185.542 258 282 342.566 458.403 524 546 613.911 729.636 782 827 864.237 979.724 1047> 329 69<809.117 914.34> 343 49<14 71 185 343 457 555> 654 37<217.246 300.32> 679 42<482.287 552.167>
VStem: 71 114<37.6094 343 392 599.872> 343 114<38.3843 343 392 560> 615 114<37.9668 316.059 336 596> 865 114<37.7177 321.182>
AnchorPoint: "top" 820 732 basechar 0
LayerCount: 3
Fore
SplineSet
615 596 m 1xcf80
 607 594 600 592 593 592 c 0
 579 592 572 598 567 617 c 0
 560 643 552 679 522 679 c 0xcf80
 465 679 457 602 457 542 c 2
 457 392 l 1
 555 392 l 1
 555 343 l 1
 457 343 l 1
 457 67 l 2
 457 39 473 37 502 37 c 2
 525 37 l 1
 524 0 l 1
 282 0 l 1
 280 37 l 1
 332 38 343 33 343 64 c 2
 343 343 l 1
 185 343 l 1
 185 67 l 2
 185 38 191 37 230 37 c 2
 258 37 l 1
 259 0 l 1
 15 0 l 1
 14 37 l 1
 36 37 l 2
 67 37 71 39 71 64 c 2
 71 343 l 1
 12 343 l 1
 14 392 l 1
 71 392 l 1
 71 502 l 2
 71 602 119 650 171 672 c 0
 196 683 228 691 262 691 c 0xb780
 305 691 358 677 387 653 c 1
 387 653 435 721 520 721 c 0
 547 721 582 710 617 695 c 1
 660 706 695 716 729 727 c 1
 729 336 l 1
 746 343 828 398 901 398 c 0
 972 398 979 347 979 302 c 2
 979 67 l 2
 979 38 988 37 1023 37 c 0
 1031 37 1039 37 1047 37 c 1
 1047 0 l 1
 827 0 l 1
 827 37 l 1
 855 38 865 36 865 67 c 2
 865 264 l 2
 865 314 845 329 819 329 c 0
 776 329 729 308 729 308 c 1
 729 72 l 2
 729 32 734 39 782 37 c 1
 782 0 l 1
 546 0 l 1
 545 37 l 1
 605 38 615 32 615 72 c 2
 615 596 l 1xcf80
343 392 m 1xb780
 343 481 l 2
 343 495 346 543 349 560 c 1
 340 561 325 580 316 606 c 0
 308 630 295 654 263 654 c 0
 192 654 185 567 185 527 c 2
 185 392 l 1
 343 392 l 1xb780
EndSplineSet
Ligature2: "'liga' Standard Ligatures in Latin lookup 9 subtable" f f h
LCarets2: 2 0 0 
EndChar

StartChar: f_k
Encoding: 65548 -1 82
Width: 940
VWidth: 0
Flags: W
HStem: 0 37<30 89.9267 204.5 285 333 399.814 515.188 608 830.051 908> 343 49<30 90 204 307> 355 37<651 719.972 788.841 898> 688 37<231.818 303.657>
VStem: 90 114<37.7226 343 392 620.846> 401 114<38.9624 147 197 649>
DStem2: 515 197 559 178 0.819987 0.572383<0 25.2041 135.883 253.271> 650 241 559 178 0.6444 -0.764688<0 222.31>
LayerCount: 3
Fore
SplineSet
515 727 m 1xdc
 515 197 l 1
 702 327 l 2
 715 336 720 342 720 346 c 0
 720 357 682 354 651 355 c 1
 651 392 l 1
 899 392 l 1
 898 355 l 1
 871 355 l 2xbc
 827 355 810 353 770 325 c 2
 650 241 l 1
 798 83 l 2
 838 41 863 37 888 37 c 2
 909 37 l 1
 908 0 l 1
 709 0 l 1
 559 178 l 1
 515 147 l 1
 515 59 l 2
 515 35 530 38 608 37 c 1
 609 0 l 1
 333 0 l 1
 333 37 l 1
 386 38 401 36 401 67 c 2
 401 649 l 1
 383 628 356 602 339 602 c 0
 302 602 332 688 267 688 c 0
 208 688 204 590 204 545 c 2
 204 392 l 1xdc
 309 392 l 1xbc
 307 343 l 1
 204 343 l 1
 204 67 l 2
 204 38 209 37 254 37 c 2
 286 37 l 1
 285 0 l 1
 30 0 l 1
 30 37 l 1
 89 38 90 35 90 62 c 2
 90 343 l 1
 30 343 l 1
 30 392 l 1
 90 392 l 1
 90 500 l 2
 90 690 202 725 272 725 c 0
 303 725 372 713 402 694 c 1
 446 705 481 716 515 727 c 1xdc
EndSplineSet
Ligature2: "'liga' Standard Ligatures in Latin lookup 9 subtable" f k
LCarets2: 1 0 
EndChar

StartChar: f_f_k
Encoding: 65549 -1 83
Width: 1139
VWidth: 0
Flags: W
HStem: 0 37<15 70.6987 185.542 258 282 342.566 458.403 524 547 613.748 729.199 823 1044.05 1122> 343 49<14 71 185 343 457 555> 355 37<866 934.972 1002.92 1113> 654 37<217.246 300.32> 679 42<482.287 552.167>
VStem: 71 114<37.6094 343 392 599.872> 343 114<38.3843 343 392 560> 615 114<39.1606 147 197 596>
DStem2: 729 197 773 178 0.819987 0.572383<0 25.2041 135.883 254.091> 864 241 773 178 0.6444 -0.764688<0 222.31>
CounterMasks: 1 07
LayerCount: 3
Fore
SplineSet
615 596 m 1xaf
 607 594 600 592 593 592 c 0
 579 592 572 598 567 617 c 0
 560 643 552 679 522 679 c 0xaf
 465 679 457 602 457 542 c 2
 457 392 l 1
 555 392 l 1
 555 343 l 1
 457 343 l 1
 457 67 l 2
 457 39 473 37 502 37 c 2
 525 37 l 1
 524 0 l 1
 282 0 l 1
 280 37 l 1
 332 38 343 33 343 64 c 2
 343 343 l 1
 185 343 l 1
 185 67 l 2
 185 38 191 37 230 37 c 2
 258 37 l 1
 259 0 l 1
 15 0 l 1
 14 37 l 1
 36 37 l 2
 67 37 71 39 71 64 c 2
 71 343 l 1
 12 343 l 1
 14 392 l 1
 71 392 l 1
 71 502 l 2
 71 602 119 650 171 672 c 0
 196 683 228 691 262 691 c 0xd7
 305 691 358 677 387 653 c 1
 387 653 435 721 520 721 c 0
 547 721 582 710 617 695 c 1
 660 706 695 716 729 727 c 1
 729 197 l 1
 917 327 l 2
 930 336 935 342 935 346 c 0
 935 357 897 354 866 355 c 1
 866 392 l 1
 1114 392 l 1
 1113 355 l 1
 1086 355 l 2
 1042 355 1024 353 984 325 c 2
 864 241 l 1
 1012 83 l 2
 1052 41 1077 37 1102 37 c 2
 1123 37 l 1
 1122 0 l 1
 923 0 l 1
 773 178 l 1
 729 147 l 1
 729 59 l 2
 729 35 745 38 823 37 c 1
 824 0 l 1
 547 0 l 1
 546 37 l 1
 599 38 615 36 615 67 c 2
 615 596 l 1xaf
343 392 m 1xd7
 343 481 l 2
 343 495 346 543 349 560 c 1
 340 561 325 580 316 606 c 0
 308 630 295 654 263 654 c 0
 192 654 185 567 185 527 c 2
 185 392 l 1
 343 392 l 1xd7
EndSplineSet
Ligature2: "'liga' Standard Ligatures in Latin lookup 9 subtable" f f k
LCarets2: 2 0 0 
EndChar

StartChar: ampersand
Encoding: 38 38 84
Width: 1025
VWidth: 0
Flags: W
HStem: -10 72<299.077 521.516> 1 121<748.638 889.438> 439 44<603 776.5 851.005 975> 645 49<248.195 371.442>
VStem: 21 118<189.481 330.999> 96 126<500.641 620.533> 402 93<528.697 616.828> 793 67<259.542 424.542>
LayerCount: 3
Fore
SplineSet
179 376 m 1xbb
 179 376 139 342 139 278 c 0
 139 99 344 62 422 62 c 0
 515 62 556 85 556 85 c 1
 419 159 275 255 179 376 c 1xbb
305 694 m 0
 400 694 495 643 495 561 c 0
 495 503 457 473 415 473 c 0
 396 473 376 480 359 493 c 0
 352 498 351 509 360 515 c 0
 381 529 402 536 402 568 c 0
 402 618 349 645 310 645 c 0
 246 645 222 601 222 571 c 0
 222 519 255 453 408 334 c 0
 545 228 688 161 688 161 c 1
 688 161 793 227 793 352 c 0
 793 384 780 424 762 433 c 0
 751 439 738 439 728 439 c 2
 603 439 l 1
 603 483 l 1
 976 483 l 1
 975 439 l 1
 885 439 l 2
 858 439 851 436 851 425 c 0
 851 407 860 392 860 347 c 0
 860 235 749 141 747 138 c 1
 749 133 802 122 834 122 c 0
 872 122 941 135 973 169 c 0
 978 174 983 177 987 177 c 0
 995 177 1000 167 1000 147 c 0
 1000 80 900 1 791 1 c 0x77
 702 1 621 50 621 50 c 1
 621 50 515 -10 362 -10 c 0
 197 -10 21 55 21 235 c 0xbb
 21 383 144 420 144 420 c 1
 144 420 96 489 96 547 c 0xb7
 96 643 182 694 305 694 c 0
EndSplineSet
Layer: 2
SplineSet
179 376 m 5xbb
 179 376 139 342 139 278 c 4
 139 99 344 62 422 62 c 4
 515 62 556 85 556 85 c 5
 419 159 275 255 179 376 c 5xbb
495 561 m 4
 495 503 457 473 415 473 c 4
 396 473 376 480 359 493 c 4
 352 498 351 509 360 515 c 4
 381 529 402 536 402 568 c 4
 402 587 393 608 374 623 c 4
 353 639 327 645 310 645 c 4
 246 645 222 601 222 571 c 4
 222 519 255 453 408 334 c 4
 545 228 688 161 688 161 c 5
 688 161 793 227 793 352 c 4
 793 384 780 424 762 433 c 4
 751 439 738 439 728 439 c 6
 603 439 l 5
 603 483 l 5
 976 483 l 5
 975 439 l 5
 885 439 l 6
 858 439 851 436 851 425 c 4
 851 407 860 392 860 347 c 4
 860 235 749 141 747 138 c 5
 749 133 802 122 834 122 c 4
 872 122 941 135 973 169 c 4
 978 174 983 177 987 177 c 4
 995 177 1000 167 1000 147 c 4
 1000 108 964 60 906 30 c 4
 865 9 827 1 791 1 c 4x77
 702 1 621 50 621 50 c 5
 621 50 515 -10 362 -10 c 4
 197 -10 21 55 21 235 c 4xbb
 21 383 144 420 144 420 c 5
 144 420 96 489 96 547 c 4xb7
 96 643 182 694 305 694 c 4
 367 694 422 673 457 642 c 4
 486 616 495 586 495 561 c 4
EndSplineSet
Position2: "'cpsp' Capital Spacing in Latin lookup 1 subtable" dx=7 dy=0 dh=15 dv=0
EndChar

StartChar: m
Encoding: 109 109 85
Width: 809
VWidth: 0
Flags: MW
HStem: 0 37<32 99.9175 214.091 273 293 350 464 525 543 599.857 714.421 790> 329 69<277.798 402.992 543.166 649.192> 386 20G<131.917 213.444>
VStem: 100 114<38.1059 316.547> 350 114<37.3961 313.751> 600 114<38.6828 321.22>
CounterMasks: 1 1c
LayerCount: 3
Fore
SplineSet
17 358 m 1xdc
 62 364 214 406 214 406 c 1xbc
 214 406 212 374 212 334 c 1
 229 343 323 398 390 398 c 0
 464 398 464 333 464 333 c 1
 497 358 578 398 631 398 c 0
 708 398 714 345 714 296 c 2
 714 62 l 2
 714 35 729 38 790 37 c 1
 790 0 l 1
 543 0 l 1
 543 37 l 1
 596 37 600 37 600 61 c 2
 600 264 l 2
 600 315 576 329 551 329 c 0
 496 329 464 301 464 301 c 1
 464 53 l 2
 464 39 473 37 497 37 c 2
 525 37 l 1
 525 0 l 1
 292 0 l 1
 293 37 l 1
 339 38 350 34 350 53 c 2
 350 267 l 2
 350 314 331 329 293 329 c 0
 257 329 214 308 214 308 c 1
 214 59 l 2
 214 33 221 38 273 37 c 1
 273 0 l 1
 32 0 l 1
 32 37 l 1
 94 39 100 34 100 59 c 2
 100 307 l 2
 100 326 98 334 86 334 c 0
 77 334 28 324 20 322 c 1
 17 358 l 1xdc
EndSplineSet
Layer: 2
SplineSet
17 358 m 5xdc
 62 364 214 406 214 406 c 5xbc
 214 406 212 374 212 334 c 5
 229 343 323 398 390 398 c 4
 465 398 464 333 464 333 c 4
 497 358 578 398 631 398 c 4
 708 398 714 345 714 296 c 6
 714 62 l 6
 714 35 729 38 790 37 c 5
 790 0 l 5
 543 0 l 5
 543 37 l 5
 596 37 600 37 600 61 c 6
 600 264 l 6
 600 315 576 329 551 329 c 4
 496 329 464 301 464 301 c 5
 464 53 l 6
 464 34 480 37 525 37 c 5
 525 0 l 5
 292 0 l 5
 293 37 l 5
 339 38 350 34 350 53 c 6
 350 267 l 6
 350 314 331 329 293 329 c 4
 257 329 214 308 214 308 c 5
 214 59 l 6
 214 33 221 38 273 37 c 5
 273 0 l 5
 32 0 l 5
 32 37 l 5
 94 39 100 34 100 59 c 6
 100 307 l 6
 100 326 98 334 86 334 c 4
 77 334 28 324 20 322 c 5
 17 358 l 5xdc
EndSplineSet
EndChar

StartChar: zero.lining
Encoding: 65550 -1 86
Width: 563
VWidth: 0
Flags: W
HStem: -14 54<242.381 348.532> 595 47<203.516 321.782>
VStem: 30 109<195.735 451.427> 417 109<175.256 447.409>
LayerCount: 3
Fore
SplineSet
266 642 m 0
 443 642 526 478 526 314 c 0
 526 150 442 -14 284 -14 c 0
 110 -14 30 147 30 310 c 0
 30 476 113 642 266 642 c 0
256 595 m 0
 194 595 139 522 139 363 c 0
 139 150 221 40 296 40 c 0
 345 40 417 90 417 288 c 0
 417 368 396 595 256 595 c 0
EndSplineSet
EndChar

StartChar: one.lining
Encoding: 65551 -1 87
Width: 429
VWidth: 0
Flags: W
HStem: 0 37<21 136.724 253.791 391> 569 36<31 134.675>
VStem: 138 114<41.7048 563.625>
LayerCount: 3
Fore
SplineSet
21 0 m 1
 21 37 l 1
 135 38 138 32 138 76 c 2
 138 529 l 2
 138 565 123 569 85 569 c 2
 30 569 l 1
 31 605 l 1
 188 605 l 2
 224 605 229 627 239 646 c 1
 261 646 l 1
 261 646 252 505 252 410 c 2
 252 75 l 2
 252 37 255 38 391 37 c 1
 391 0 l 1
 21 0 l 1
EndSplineSet
Layer: 2
SplineSet
199.70703125 418.45703125 m 5xd0
 199.70703125 418.45703125 196.2890625 314.94140625 196.2890625 219.7265625 c 6
 196.2890625 62.5 l 6
 196.2890625 24.90234375 216.796875 34.1796875 295.41015625 31.73828125 c 5
 295.41015625 0 l 5
 30.76171875 0 l 5
 30.76171875 31.73828125 l 5
 121.58203125 32.71484375 125.9765625 27.34375 125.9765625 62.98828125 c 6
 125.9765625 329.58984375 l 6xe0
 125.9765625 343.75 125.9765625 360.3515625 92.28515625 360.3515625 c 4
 75.68359375 360.3515625 32.71484375 359.86328125 32.71484375 359.86328125 c 5
 33.203125 389.16015625 l 5
 136.71875 389.16015625 l 6
 173.828125 389.16015625 171.875 399.90234375 177.734375 418.45703125 c 5
 199.70703125 418.45703125 l 5xd0
EndSplineSet
EndChar

StartChar: two.lining
Encoding: 65552 -1 88
Width: 528
VWidth: 0
Flags: W
HStem: 0 78<164.007 346.582> 576 64<125.134 259.205>
VStem: 299 135<381.347 535.499>
LayerCount: 3
Fore
SplineSet
44 518 m 0
 30 518 25 524 25 538 c 0
 25 546 29 555 41 567 c 0
 73 599 146 640 249 640 c 0
 351 640 434 572 434 476 c 0
 434 397 390 330 336 262 c 0
 275 185 164 89 164 82 c 0
 164 78 174 78 184 78 c 0
 370 78 474 153 492 153 c 0
 497 153 500 151 500 144 c 0
 500 138 459 12 449 6 c 0
 446 4 448 0 405 0 c 2
 51 0 l 2
 45 0 31 4 31 15 c 0
 31 20 40 29 51 40 c 0
 97 83 135 125 167 166 c 0
 246 267 299 369 299 461 c 0
 299 535 255 576 193 576 c 0
 139 576 100 555 77 537 c 0
 71 532 53 518 44 518 c 0
EndSplineSet
EndChar

StartChar: three.lining
Encoding: 65553 -1 89
Width: 472
VWidth: 0
Flags: W
HStem: -13 66<92.9909 249.045> 571 73<133.225 242.198>
VStem: 267 129<446.514 545.907> 294 149<96.2985 249.249>
LayerCount: 3
Fore
SplineSet
55 83 m 0xd0
 76 71 110 53 174 53 c 0
 254 53 294 105 294 162 c 0xd0
 294 211 285 264 214 299 c 0
 187 312 156 320 130 332 c 0
 120 336 117 340 117 346 c 0
 117 352 131 361 152 372 c 0
 208 402 267 434 267 490 c 0
 267 510 261 531 245 547 c 0
 228 563 203 571 178 571 c 0
 134 571 94 543 86 538 c 0
 77 532 69 526 62 526 c 0
 50 526 42 534 42 546 c 0
 42 553 46 561 53 569 c 0
 78 597 147 644 238 644 c 0
 320 644 396 599 396 511 c 0xe0
 396 399 234 356 234 356 c 1
 234 356 443 341 443 168 c 0
 443 45 326 -13 211 -13 c 0
 149 -13 76 9 37 37 c 0
 17 51 11 65 11 75 c 0
 11 81 13 93 27 93 c 0
 33 93 42 90 55 83 c 0xd0
EndSplineSet
EndChar

StartChar: four.lining
Encoding: 65554 -1 90
Width: 554
VWidth: 0
Flags: W
HStem: 146 99<136 322 430 494>
VStem: 322 108<-20 146 245 471>
DStem2: 62 229 136 245 0.638901 0.769289<59.5873 352.282>
LayerCount: 3
Fore
SplineSet
62 229 m 2
 405 642 l 2
 411 650 417 654 421 654 c 0
 426 654 430 646 430 628 c 2
 430 245 l 9
 515 245 l 25
 494 146 l 25
 430 146 l 25
 430 -20 l 25
 322 -40 l 25
 322 146 l 17
 51 146 l 2
 32 146 29 146 29 166 c 2
 29 173 l 2
 29 190 31 192 62 229 c 2
136 245 m 9
 322 245 l 25
 322 471 l 17
 136 245 l 9
EndSplineSet
EndChar

StartChar: five.lining
Encoding: 65555 -1 91
Width: 484
VWidth: 0
Flags: HMW
HStem: -12 62<81 241> 361 53<102 216> 551 75<101 345> 667 10G<379 406>
VStem: 53 48<414 551> 307 131<122 284>
LayerCount: 3
Fore
SplineSet
10 64 m 0
 10 79 20 85 30 85 c 0
 48 85 80 50 154 50 c 0
 269 50 307 132 307 205 c 0
 307 347 161 361 92 361 c 0
 79 361 65 361 56 360 c 1
 54 447 53 481 53 516 c 0
 53 603 52 593 52 613 c 0
 52 623 62 625 72 625 c 0
 263 625 243 629 350 629 c 0
 359 629 374 661 383 676 c 1
 413 664 l 1
 392 612 381 579 375 561 c 0
 368 541 368 537 354 537 c 0
 324 537 134 551 119 551 c 0
 104 551 101 544 101 520 c 0
 101 504 102 482 102 450 c 0
 102 423 103 414 116 414 c 0
 127 414 165 421 197 421 c 0
 328 421 438 360 438 205 c 0
 438 132 373 -12 183 -12 c 0
 98 -12 10 40 10 64 c 0
EndSplineSet
EndChar

StartChar: six.lining
Encoding: 65556 -1 92
Width: 507
VWidth: 0
Flags: W
HStem: -16 49<213.288 311.13> 338 63<192.875 292.772> 619 40<298.103 447.164>
VStem: 18 131<127.51 402.865> 348 122<107.391 276.287>
LayerCount: 3
Fore
SplineSet
448 635 m 0
 448 624 440 619 427 619 c 0
 418 619 405 621 389 621 c 0
 366 621 335 618 302 602 c 0
 194 552 154 414 154 345 c 1
 154 345 187 401 281 401 c 0
 464 401 470 223 470 211 c 0
 470 61 361 -16 248 -16 c 0
 160 -16 18 31 18 261 c 0
 18 378 60 501 144 579 c 0
 197 628 273 659 354 659 c 0
 374 659 448 659 448 635 c 0
149 240 m 0
 149 104 210 33 265 33 c 0
 308 33 348 78 348 173 c 0
 348 289 291 338 238 338 c 0
 192 338 149 315 149 240 c 0
EndSplineSet
EndChar

StartChar: seven.lining
Encoding: 65557 -1 93
Width: 511
VWidth: 0
Flags: MW
HStem: -10 21G<212.5 304> 553 77<174.176 373.993>
VStem: 194 138<-5.01157 53.4444> 374 50<419.326 552.533>
LayerCount: 3
Fore
SplineSet
46 512 m 0
 46 528 55 589 61 617 c 0
 62 623 71 630 81 630 c 2
 417 630 l 2
 431 630 435 624 435 611 c 0
 435 601 429 554 424 515 c 0
 411 415 385 246 332 44 c 0
 320 0 311 -10 297 -10 c 2
 215 -10 l 2
 210 -10 194 -7 194 9 c 0
 194 16 197 26 205 38 c 0
 277 147 374 440 374 543 c 0
 374 552 365 553 355 553 c 0
 277 553 189 536 161 528 c 0
 99 510 66 493 58 493 c 0
 50 493 46 496 46 512 c 0
EndSplineSet
EndChar

StartChar: eight.lining
Encoding: 65558 -1 94
Width: 499
VWidth: 0
Flags: W
HStem: -20 56<174.303 312.55> 614 39<183.391 317.93>
VStem: 25 90<94.8122 218.94> 48 107<475.544 566.995> 362 109<95.9382 203.917> 362 82<438.481 573.163>
DStem2: 292 384 167 317 0.864083 -0.503349<-147.082 -74.286 -41.9781 11.4173 38.9425 152.365>
LayerCount: 3
Fore
SplineSet
25 141 m 0xe8
 25 266 167 317 167 317 c 1
 149 328 48 387 48 491 c 0
 48 591 141 653 254 653 c 0
 344 653 444 602 444 508 c 0xd4
 444 405 326 365 326 365 c 1
 352 350 l 2
 381 333 471 286 471 180 c 0
 471 79 382 -20 244 -20 c 0
 128 -20 25 45 25 141 c 0xe8
243 36 m 0
 320 36 362 97 362 147 c 0
 362 206 305 236 270 257 c 2
 205 295 l 1
 202 293 115 253 115 169 c 0xe8
 115 109 158 36 243 36 c 0
155 542 m 0xd4
 155 459 243 413 292 384 c 1
 292 384 362 413 362 503 c 0
 362 567 321 614 257 614 c 0
 167 614 155 560 155 542 c 0xd4
EndSplineSet
EndChar

StartChar: nine.lining
Encoding: 65559 -1 95
Width: 525
VWidth: 0
Flags: W
HStem: -13 68<109.843 271.271> 205 68<165.5 313.814> 602 45<198.315 305.442>
VStem: 46 114<357.81 522.985> 373 127<184.125 482.504>
LayerCount: 3
Fore
SplineSet
27 82 m 0
 27 92 32 97 40 97 c 0
 51 97 59 89 71 81 c 0
 98 62 136 55 172 55 c 0
 274 55 369 101 369 275 c 1
 358 253 306 205 223 205 c 0
 108 205 46 311 46 418 c 0
 46 531 114 647 266 647 c 0
 382 647 500 557 500 341 c 0
 500 169 437 -13 207 -13 c 0
 115 -13 27 50 27 82 c 0
249 602 m 0
 188 602 160 539 160 468 c 0
 160 347 224 273 283 273 c 0
 345 273 373 337 373 408 c 0
 373 499 327 602 249 602 c 0
EndSplineSet
EndChar

StartChar: dollar.lining
Encoding: 65560 -1 96
Width: 565
VWidth: 0
Flags: W
HStem: -16 52<149.224 242 286 347.209>
VStem: 33 110<455.194 545.275> 242 44<-179 -16 39 254 409 591 633 714> 404 106<98.8637 194.249>
DStem2: 286 392 242 267 0.920207 -0.391431<-155.842 -47.1435 0 8.43981 54.0175 182.995>
LayerCount: 3
Fore
SplineSet
29 165 m 0
 29 174 34 181 42 181 c 0
 50 181 61 172 71 155 c 0
 116 74 150 36 231 36 c 2
 242 36 l 1
 242 267 l 1
 152 311 l 2
 89 342 33 386 33 467 c 0
 33 632 242 633 242 633 c 1
 242 714 l 1
 287 714 l 1
 287 632 l 1
 328 628 363 619 399 619 c 2
 444 619 l 2
 453 619 460 617 466 605 c 0
 472 593 488 483 488 479 c 0
 488 467 485 462 475 462 c 0
 470 462 468 465 461 475 c 0
 419 537 363 585 286 591 c 1
 286 392 l 1
 401 338 l 1
 462 308 510 252 510 181 c 0
 510 11 286 -13 286 -13 c 1
 286 -179 l 1
 237 -179 l 1
 242 -16 l 1
 235 -16 l 2
 214 -16 149 -15 96 -1 c 0
 57 10 52 36 44 73 c 0
 34 119 29 148 29 165 c 0
242 409 m 1
 242 591 l 1
 242 591 143 587 143 502 c 0
 143 439 242 409 242 409 c 1
286 254 m 1
 286 39 l 1
 286 39 404 47 404 149 c 0
 404 212 286 254 286 254 c 1
EndSplineSet
EndChar

StartChar: zero.denom
Encoding: 65571 -1 107
Width: 460
VWidth: 0
Flags: W
HStem: -14 50<180.058 297.695> 393 47<166.164 283.641>
VStem: 31 79<122.014 318.534> 350 85<112.541 310.545>
LayerCount: 3
Fore
SplineSet
31 224 m 0
 31 344 123 440 228 440 c 0
 368 440 435 330 435 218 c 0
 435 68 329 -14 226 -14 c 0
 127 -14 31 61 31 224 c 0
225 393 m 0
 163 393 110 331 110 229 c 0
 110 103 178 36 241 36 c 0
 302 36 350 95 350 200 c 0
 350 306 300 393 225 393 c 0
EndSplineSet
EndChar

StartChar: one.denom
Encoding: 65572 -1 108
Width: 277
VWidth: 0
Flags: W
HStem: 0 36<18 95.9 174.148 267> 385 36<22 95.9964>
VStem: 96 78<36.9299 384.992>
LayerCount: 3
Fore
SplineSet
181 449 m 1
 180 433 174 353 174 289 c 2
 174 61 l 2
 174 32 177 37 267 36 c 1
 267 0 l 1
 18 0 l 1
 18 36 l 1
 44 36 l 2
 95 36 96 37 96 61 c 2
 96 366 l 2
 96 384 95 385 71 385 c 2
 22 385 l 1
 22 421 l 1
 118 421 l 2
 145 421 146 432 155 450 c 1
 181 449 l 1
EndSplineSet
EndChar

StartChar: two.denom
Encoding: 65573 -1 109
Width: 429
VWidth: 0
Flags: HMW
HStem: 0 51<146 338.808> 380 58<108.608 244.081>
VStem: 269 98<241.308 354.694>
LayerCount: 3
Fore
SplineSet
146 51 m 1
 302 54 322 69 387 86 c 0
 390 87 392 85 392 81 c 0
 391 70 387 58 384 46 c 0
 375 9 371 0 364 0 c 2
 73 0 l 2
 57 0 47 5 47 12 c 0
 47 14 49 17 50 19 c 0
 65 41 269 187 269 303 c 0
 269 370 201 380 175 380 c 0
 95 380 101 345 80 345 c 0
 72 345 63 347 63 360 c 0
 63 395 117 438 207 438 c 0
 311 438 367 382 367 309 c 0
 367 197 188 84 146 51 c 1
EndSplineSet
EndChar

StartChar: three.denom
Encoding: 65574 -1 110
Width: 396
VWidth: 0
Flags: W
HStem: -11 50<55.3892 239.208> 214 42<119.15 208.749> 383 57<91.8941 215.005>
VStem: 234 95<289.378 364.595> 273 93<69.189 173.618>
LayerCount: 3
Fore
SplineSet
22 45 m 0xe8
 22 60 35 64 42 64 c 0
 61 64 81 39 156 39 c 0
 259 39 273 96 273 125 c 0xe8
 273 161 234 206 168 214 c 0
 142 217 119 217 119 233 c 0
 119 250 137 252 161 256 c 0
 227 268 234 312 234 328 c 0
 234 348 209 383 155 383 c 0
 88 383 87 349 64 349 c 0
 54 349 47 357 47 367 c 0
 47 391 95 440 187 440 c 0
 260 440 329 409 329 344 c 0xf0
 329 286 270 255 232 241 c 1
 306 225 366 188 366 123 c 0
 366 29 271 -11 168 -11 c 0
 103 -11 22 11 22 45 c 0xe8
EndSplineSet
EndChar

StartChar: four.denom
Encoding: 65575 -1 111
Width: 438
VWidth: 0
Flags: W
HStem: -10 21G<268 346> 112 71<134 268 346 409>
VStem: 268 78<-10 112 183 327>
DStem2: 156 264 134 183 0.683083 0.730341<-69.986 122.517>
LayerCount: 3
Fore
SplineSet
48 112 m 2
 35 112 31 117 31 124 c 0
 31 143 57 158 156 264 c 2
 315 434 l 2
 323 442 326 444 333 444 c 0
 345 444 346 430 346 420 c 2
 346 183 l 1
 429 183 l 1
 409 112 l 1
 346 112 l 1
 346 -10 l 1
 268 -10 l 1
 268 112 l 1
 48 112 l 2
268 327 m 1
 134 183 l 1
 268 183 l 1
 268 327 l 1
EndSplineSet
Layer: 2
SplineSet
48 112 m 6
 35 112 31 117 31 124 c 4
 31 126 31 128 32 131 c 4
 41 154 92 190 315 434 c 4
 323 442 326 444 333 444 c 4
 345 444 346 430 346 420 c 6
 346 183 l 5
 429 183 l 5
 409 112 l 5
 346 112 l 5
 346 -10 l 5
 268 -10 l 5
 268 112 l 5
 48 112 l 6
268 327 m 5
 134 183 l 5
 268 183 l 5
 268 327 l 5
EndSplineSet
EndChar

StartChar: five.denom
Encoding: 65576 -1 112
Width: 386
VWidth: 0
Flags: HMW
HStem: -8 49<49.7431 215.972> 248 47<100 202.125> 373 55<103.069 273.529>
VStem: 48 52<295.094 372.992> 265 91<84.4891 198.301> 278 30<432.805 457>
LayerCount: 3
Fore
SplineSet
149 -8 m 0
 41.3 -8 18 38.4 18 50 c 0xf8
 18 59 25 68 36 68 c 0
 49.7179075331 68 69.4726236818 41 126 41 c 0
 190 41 265 69 265 144 c 0xf8
 265 227 154 248 95 248 c 0
 82 248 65 246 53 244 c 1
 52 259 48 352 48 398 c 0
 48 418 49 431 67 431 c 0
 87 431 141 428 181 428 c 0
 204 428 229 429 254 431 c 0
 272 432 275 443 278 459 c 1
 308 457 l 1xf4
 298 386 l 2
 297 378 296 358 275 358 c 0
 245 358 126 373 118 373 c 0
 109 373 100 362 100 308 c 0
 100 300 100 297 101 295 c 1
 109 295 l 2
 126 295 136 298 162 298 c 0
 263 298 356 252 356 152 c 0
 356 98 306 -8 149 -8 c 0
EndSplineSet
EndChar

StartChar: six.denom
Encoding: 65577 -1 113
Width: 435
VWidth: 0
Flags: W
HStem: -10 47<176.483 293.52> 235 52<165.412 275.521> 396 49<234.357 368.99>
VStem: 36 90<90.9919 248.17> 321 81<69.3091 190.057>
LayerCount: 3
Back
SplineSet
35.64453125 191.89453125 m 4
 35.64453125 331.54296875 157.2265625 444.82421875 298.828125 444.82421875 c 4
 329.58984375 444.82421875 375.9765625 430.6640625 375.9765625 408.69140625 c 4
 375.9765625 396.97265625 365.72265625 391.11328125 357.91015625 391.11328125 c 4
 353.515625 391.11328125 337.890625 396.484375 313.96484375 396.484375 c 4
 292.48046875 396.484375 264.6484375 392.578125 231.4453125 375.9765625 c 4
 184.5703125 353.02734375 139.6484375 309.08203125 120.60546875 236.328125 c 5
 154.296875 272.4609375 204.58984375 286.62109375 236.81640625 286.62109375 c 4
 392.08984375 286.62109375 401.85546875 161.1328125 401.85546875 150.390625 c 4
 401.85546875 47.36328125 318.359375 -9.765625 225.5859375 -9.765625 c 4
 99.609375 -9.765625 35.64453125 80.56640625 35.64453125 191.89453125 c 4
125.9765625 159.1796875 m 4
 125.9765625 96.19140625 177.734375 36.62109375 238.76953125 36.62109375 c 4
 280.76171875 36.62109375 321.2890625 67.87109375 321.2890625 120.60546875 c 4
 321.2890625 185.546875 272.94921875 225.5859375 212.890625 225.5859375 c 4
 162.59765625 225.5859375 125.9765625 190.4296875 125.9765625 159.1796875 c 4
EndSplineSet
Fore
SplineSet
36 192 m 0
 36 332 157 445 299 445 c 0
 330 445 376 431 376 409 c 0
 376 397 366 391 358 391 c 0
 354 391 338 396 314 396 c 0
 227 396 138 328 117 221 c 1
 151 261 184 287 248 287 c 0
 350 287 402 208 402 150 c 0
 402 47 319 -10 226 -10 c 0
 100 -10 36 81 36 192 c 0
126 159 m 0
 126 96 178 37 239 37 c 0
 281 37 321 68 321 121 c 0
 321 186 273 235 213 235 c 0
 163 235 126 190 126 159 c 0
EndSplineSet
EndChar

StartChar: seven.denom
Encoding: 65578 -1 114
Width: 373
VWidth: 0
Flags: MW
HStem: -7 21G<134 206> 367 66<97.911 269.999>
VStem: 270 64<304.554 422.5>
LayerCount: 3
Fore
SplineSet
68 433 m 2
 318 433 l 2
 330 433 334 427 334 418 c 0
 334 357 270 155 257 117 c 2
 228 31 l 2
 216 -5 212 -7 200 -7 c 2
 142 -7 l 2
 126 -7 122 0 122 8 c 0
 122 13 126 19 130 25 c 0
 167 76 185 107 227 214 c 0
 255 286 270 350 270 365 c 0
 270 367 268 367 259 367 c 0
 155 366 50 332 49 332 c 0
 41 332 37 336 37 354 c 0
 37 369 40 396 45 421 c 0
 47 430 52 433 68 433 c 2
EndSplineSet
EndChar

StartChar: eight.denom
Encoding: 65579 -1 115
Width: 406
VWidth: 0
Flags: W
HStem: -12 44<130.454 266.812> 401 45<140.68 259.619>
VStem: 28 70<63.3822 162.359> 49 79<295.889 388.937> 282 62<281.415 378.628> 287 82<52.0944 153.029>
LayerCount: 3
Fore
SplineSet
28 102 m 0xe4
 28 173 102 207 133 221 c 1
 78 251 49 289 49 333 c 0
 49 400 112 446 205 446 c 0
 277 446 344 401 344 342 c 0xd8
 344 283 292 251 266 238 c 1
 300 221 369 183 369 119 c 0
 369 49 308 -12 198 -12 c 0
 84 -12 28 43 28 102 c 0xe4
98 114 m 0xe4
 98 70 139 32 199 32 c 0
 272 32 287 76 287 102 c 0
 287 155 240 176 169 210 c 1
 148 200 98 164 98 114 c 0xe4
128 343 m 0xd8
 128 289 202 261 222 254 c 1
 236 259 282 282 282 328 c 0
 282 379 238 401 195 401 c 0
 140 401 128 367 128 343 c 0xd8
EndSplineSet
EndChar

StartChar: nine.denom
Encoding: 65580 -1 116
Width: 412
VWidth: 0
Flags: W
HStem: -3 55<67.9571 230.949> 145 51<147.418 270.455> 405 43<135.987 240.298>
VStem: 27 81<237.743 371.824> 295 92<173.241 342.577> 306 81<129.891 197>
LayerCount: 3
Back
SplineSet
186.483398438 404.78515625 m 4
 159.987304688 404.78515625 108.3984375 385.298828125 108.3984375 310.575195312 c 4
 108.3984375 284.2890625 122.63671875 204.58984375 219.859375 204.58984375 c 4
 272.361328125 204.58984375 295.41015625 230.301757812 295.41015625 262.057617188 c 4
 295.41015625 336.268554688 247.100585938 404.78515625 186.483398438 404.78515625 c 4
26.85546875 288.513671875 m 4
 26.85546875 368.569335938 87.123046875 447.75390625 190.93359375 447.75390625 c 4
 311.381835938 447.75390625 386.71875 364.459960938 386.71875 237.774414062 c 4
 386.71875 60.8408203125 263.443359375 -3.41796875 151.995117188 -3.41796875 c 4
 74.8427734375 -3.41796875 29.78515625 32.59375 29.78515625 61.03515625 c 4
 29.78515625 72.4609375 36.81640625 80.078125 47.36328125 80.078125 c 4
 71.1083984375 80.078125 79.400390625 50.78125 141.6015625 50.78125 c 4
 257.041015625 50.78125 300.784179688 136.653320312 305.670898438 194.833007812 c 5
 286.626953125 175.008789062 244.001953125 144.53125 169.795898438 144.53125 c 4
 82.91015625 144.53125 26.85546875 211.745117188 26.85546875 288.513671875 c 4
EndSplineSet
Fore
SplineSet
187 405 m 0xf8
 161 405 108 386 108 311 c 0
 108 236 156 196 208 196 c 0
 236 196 295 209 295 262 c 0
 295 336 248 405 187 405 c 0xf8
30 60 m 0
 30 71 36 80 48 80 c 0
 54 80 64 76 71 72 c 0
 89 60 118 52 149 52 c 0
 239 52 301 117 306 197 c 1xf4
 277 161 233 145 171 145 c 0
 98 145 27 195 27 291 c 0
 27 369 83 448 191 448 c 0
 312 448 387 364 387 238 c 0
 387 71 273 -3 156 -3 c 0
 89 -3 49 19 35 43 c 0
 32 48 30 54 30 60 c 0
EndSplineSet
EndChar

StartChar: slash
Encoding: 47 47 137
Width: 444
VWidth: 488
Flags: W
DStem2: 5 -231 67 -231 0.359513 0.93314<22.2898 1004.14>
LayerCount: 3
Fore
SplineSet
5 -231 m 1
 366 706 l 1
 428 706 l 1
 67 -231 l 1
 5 -231 l 1
EndSplineSet
Layer: 2
SplineSet
-4.8828125 -258.7890625 m 1
 358.358398438 724.609375 l 1
 420.333984375 724.609375 l 1
 57.091796875 -258.7890625 l 1
 -4.8828125 -258.7890625 l 1
EndSplineSet
AlternateSubs2: "'aalt' Access All Alternates lookup 0 subtable" fraction
AlternateSubs2: "'aalt' Access All Alternates in Latin lookup 0 subtable" fraction
Substitution2: "numerators subtable" fraction
EndChar

StartChar: fraction
Encoding: 8260 8260 138
Width: 444
VWidth: 488
Flags: W
DStem2: -41 -42 5 -74 0.591554 0.806266<1.41096 912.044>
LayerCount: 3
Fore
SplineSet
-41 -42 m 1
 499 693 l 1
 545 662 l 1
 5 -74 l 1
 -41 -42 l 1
EndSplineSet
EndChar

StartChar: bar
Encoding: 124 124 139
Width: 430
VWidth: 488
Flags: W
VStem: 182 58<-231 706>
LayerCount: 3
Fore
SplineSet
182 -231 m 1
 182 706 l 1
 240 706 l 1
 240 -231 l 1
 182 -231 l 1
EndSplineSet
EndChar

StartChar: at
Encoding: 64 64 140
Width: 735
VWidth: 0
Flags: W
HStem: -104 52<253.349 481.855> 49 64<251 357.246> 252 37<331.302 393> 450 48<227.602 368.146>
VStem: 26 81<93.1625 308.836> 189 97<121.703 194> 393 93<135.721 252 289 427.116> 633 52<97.6418 329.612>
LayerCount: 3
Fore
SplineSet
331 498 m 0
 431 498 492 431 492 353 c 0
 492 291 486 245 486 199 c 0
 486 98 562 135 562 112 c 0
 562 91 478 40 474 40 c 0
 455 40 419 73 401 114 c 1
 374 62 303 49 285 49 c 0
 217 49 189 85 189 128 c 0
 189 250 370 288 393 289 c 1
 393 342 l 2
 393 378 392 450 312 450 c 0
 174 450 107 316 107 203 c 0
 107 76 186 -52 368 -52 c 0
 501 -52 633 27 633 214 c 0
 633 399 497 450 497 469 c 0
 497 472 499 480 507 480 c 0
 528 480 685 421 685 215 c 0
 685 -6 518 -104 351 -104 c 0
 131 -104 26 47 26 197 c 0
 26 347 131 498 331 498 c 0
286 164 m 0
 286 122 320 113 340 113 c 0
 367 113 393 135 393 168 c 2
 393 252 l 1
 327 252 286 202 286 164 c 0
EndSplineSet
EndChar

StartChar: parenleft
Encoding: 40 40 141
Width: 353
VWidth: 0
Flags: W
VStem: 40 87<82.1401 387.657>
LayerCount: 3
Fore
SplineSet
40 231 m 0
 40 564 280 705 285 708 c 1
 309 677 l 1
 282 656 127 517 127 235 c 0
 127 -65 292 -200 298 -205 c 1
 272 -238 l 1
 271 -237 40 -57 40 231 c 0
EndSplineSet
Layer: 2
SplineSet
44.921875 228.515625 m 0
 44.921875 547.8515625 281.25 686.03515625 281.25 686.03515625 c 1
 297.36328125 667.48046875 l 1
 297.36328125 667.48046875 112.3046875 522.94921875 112.3046875 232.91015625 c 0
 112.3046875 -66.89453125 286.62109375 -200.1953125 286.62109375 -200.1953125 c 1
 269.04296875 -220.703125 l 1
 269.04296875 -220.703125 44.921875 -45.41015625 44.921875 228.515625 c 0
EndSplineSet
EndChar

StartChar: parenright
Encoding: 41 41 142
Width: 353
VWidth: 0
Flags: W
VStem: 222 87<82.1401 387.657>
LayerCount: 3
Fore
SplineSet
309 231 m 0
 309 -57 78 -237 77 -238 c 1
 51 -205 l 1
 57 -200 222 -65 222 235 c 0
 222 517 67 656 40 677 c 1
 64 708 l 1
 69 705 309 564 309 231 c 0
EndSplineSet
Layer: 2
SplineSet
44.921875 667.48046875 m 1
 61.03515625 686.03515625 l 1
 61.03515625 686.03515625 297.36328125 547.8515625 297.36328125 228.515625 c 0
 297.36328125 -45.41015625 73.2421875 -220.703125 73.2421875 -220.703125 c 1
 55.6640625 -200.1953125 l 1
 55.6640625 -200.1953125 229.98046875 -66.89453125 229.98046875 232.91015625 c 0
 229.98046875 522.94921875 44.921875 667.48046875 44.921875 667.48046875 c 1
EndSplineSet
EndChar

StartChar: asterisk
Encoding: 42 42 143
Width: 460
VWidth: 0
Flags: W
HStem: 416 71<190.796 209 248.001 266.138>
VStem: 175 102<259.388 365.399 545.228 655.686> 209 35<351.875 415.969 487.139 540.871>
LayerCount: 3
Fore
SplineSet
38 373 m 0xa0
 38 430 190 432 190 452 c 0
 190 473 38 457 38 525 c 0
 38 553 63 578 86 578 c 0
 120 578 186 487 210 487 c 0
 211 487 211 492 211 494 c 0
 211 523 174 592 174 610 c 0
 174 641 195 665 227 665 c 0
 257 665 280 647 280 605 c 0
 280 581 248 519 248 490 c 0
 248 485 249 483 250 483 c 0
 270 483 326 576 370 576 c 0
 410 576 417 541 417 532 c 0
 417 461 267 470 267 452 c 0
 267 432 410 438 410 372 c 0
 410 353 395 324 368 324 c 0
 321 324 267 417 247 417 c 0
 245 417 244 412 244 409 c 0xa0
 244 383 277 324 277 298 c 0
 277 282 269 251 228 251 c 0
 187 251 175 281 175 295 c 0xc0
 175 312 209 391 209 411 c 0
 209 414 209 416 207 416 c 0
 191 416 128 324 83 324 c 0
 52 324 38 358 38 373 c 0xa0
EndSplineSet
Layer: 2
SplineSet
38.0859375 373.046875 m 4xa0
 38.0859375 430.17578125 190.4296875 432.12890625 190.4296875 451.66015625 c 4
 190.4296875 472.65625 38.0859375 457.03125 38.0859375 525.390625 c 4
 38.0859375 553.7109375 62.98828125 577.63671875 86.42578125 577.63671875 c 4
 120.60546875 577.63671875 186.03515625 487.3046875 209.9609375 487.3046875 c 4
 210.9375 487.3046875 211.42578125 491.69921875 211.42578125 494.140625 c 4
 211.42578125 523.4375 174.31640625 592.28515625 174.31640625 610.3515625 c 4
 174.31640625 641.11328125 195.3125 664.55078125 227.05078125 664.55078125 c 4
 256.8359375 664.55078125 280.2734375 646.97265625 280.2734375 604.98046875 c 4
 280.2734375 581.0546875 248.046875 519.04296875 248.046875 489.74609375 c 4
 248.046875 484.86328125 248.53515625 483.3984375 249.51171875 483.3984375 c 4
 269.53125 483.3984375 325.1953125 575.68359375 369.62890625 575.68359375 c 4
 409.1796875 575.68359375 417.48046875 540.52734375 417.48046875 531.73828125 c 4
 416.9921875 460.9375 266.6015625 469.7265625 266.6015625 451.66015625 c 4
 266.6015625 431.640625 409.66796875 437.98828125 409.66796875 371.58203125 c 4
 409.66796875 352.5390625 395.5078125 323.73046875 368.1640625 323.73046875 c 4
 321.2890625 323.73046875 266.6015625 416.50390625 246.58203125 416.50390625 c 4
 244.62890625 416.50390625 244.140625 412.109375 244.140625 408.69140625 c 4xa0
 244.140625 382.32421875 277.34375 324.21875 277.34375 297.8515625 c 4
 277.34375 271.484375 256.8359375 250.9765625 231.93359375 250.9765625 c 4
 230.46875 250.9765625 229.00390625 251.46484375 227.5390625 251.46484375 c 4
 226.07421875 251.46484375 224.609375 250.9765625 223.14453125 250.9765625 c 4
 199.21875 250.9765625 174.8046875 270.99609375 174.8046875 295.41015625 c 4xc0
 174.8046875 312.01171875 208.984375 391.11328125 208.984375 411.1328125 c 4
 208.984375 414.0625 208.49609375 416.015625 206.54296875 416.015625 c 4
 190.4296875 416.015625 127.44140625 324.21875 82.51953125 324.21875 c 4
 51.7578125 324.21875 38.0859375 357.91015625 38.0859375 373.046875 c 4xa0
EndSplineSet
EndChar

StartChar: bracketleft
Encoding: 91 91 144
Width: 415
VWidth: 0
Flags: W
HStem: -238 44<158 317> 669 44<158 317>
VStem: 82 76<-194 669>
LayerCount: 3
Fore
SplineSet
82 -238 m 1
 82 713 l 1
 317 713 l 1
 317 669 l 1
 158 669 l 1
 158 -194 l 1
 317 -194 l 1
 317 -238 l 1
 82 -238 l 1
EndSplineSet
EndChar

StartChar: backslash
Encoding: 92 92 145
Width: 444
VWidth: 488
Flags: W
DStem2: 67 706 5 706 0.359513 -0.93314<0 981.847>
LayerCount: 3
Fore
SplineSet
5 706 m 1
 67 706 l 1
 428 -231 l 1
 366 -231 l 1
 5 706 l 1
EndSplineSet
EndChar

StartChar: bracketright
Encoding: 93 93 146
Width: 418
VWidth: 0
Flags: W
HStem: -238 44<82 241> 669 44<82 241>
VStem: 241 76<-194 669>
LayerCount: 3
Fore
SplineSet
82 -194 m 1
 241 -194 l 1
 241 669 l 1
 82 669 l 1
 82 713 l 1
 317 713 l 1
 317 -238 l 1
 82 -238 l 1
 82 -194 l 1
EndSplineSet
EndChar

StartChar: plus
Encoding: 43 43 147
Width: 843
VWidth: 0
Flags: W
HStem: 198 73<108 384 451 727>
VStem: 381 73<-74 202 268 544>
LayerCount: 3
Fore
SplineSet
108 198 m 1
 108 271 l 1
 116 271 l 2
 298 271 362 269 384 268 c 1
 383 288 381 348 381 537 c 2
 381 544 l 1
 454 544 l 1
 454 537 l 2
 454 360 453 291 451 268 c 1
 472 269 534 271 719 271 c 2
 727 271 l 1
 727 198 l 1
 719 198 l 2
 537 198 472 201 450 202 c 1
 451 182 454 119 454 -67 c 2
 454 -74 l 1
 381 -74 l 1
 381 -67 l 2
 381 115 384 180 385 202 c 1
 365 201 302 198 116 198 c 2
 108 198 l 1
EndSplineSet
EndChar

StartChar: braceright
Encoding: 125 125 148
Width: 322
VWidth: 488
Flags: W
HStem: -233 34<34 95.0451> 677 33<34 96.1315>
VStem: 133 80<-150.674 202.268 277.74 625.996>
LayerCount: 3
Fore
SplineSet
212 98 m 0
 212 61 216 20 216 -24 c 0
 216 -212 112 -233 42 -233 c 2
 34 -233 l 1
 34 -199 l 1
 42 -199 l 2
 132 -199 138 -111 138 -29 c 0
 138 26 133 71 133 114 c 0
 133 174 147 217 189 240 c 1
 147 262 133 305 133 368 c 0
 133 413 137 458 137 514 c 0
 137 595 132 677 42 677 c 2
 34 677 l 1
 34 710 l 1
 42 710 l 2
 170 710 216 622 216 508 c 0
 216 462 213 420 213 384 c 0
 214 255 247 265 296 254 c 1
 296 224 l 1
 251 212 213 228 212 98 c 0
EndSplineSet
EndChar

StartChar: percent
Encoding: 37 37 149
Width: 899
VWidth: 0
Flags: W
HStem: -18 55<504.405 609.079> 262 55<618.806 717.796> 299 55<177.072 282.365> 570 41<446 657.738> 579 48<294.771 390.905>
VStem: 115 57<358.912 456> 395 64<473.369 572.312> 438 60<42.6641 141.193> 721 62<156.763 257.843>
DStem2: 105 -6 152 -40 0.697295 0.716784<8.40219 847.906>
LayerCount: 3
Fore
SplineSet
94 -25 m 0x9680
 94 -19 99 -12 105 -6 c 2
 696 602 l 1
 657 588 591 570 506 570 c 0x9680
 487 570 467 571 446 573 c 1
 457 552 459 529 459 510 c 0
 459 394 351 299 241 299 c 0
 157 299 115 356 115 421 c 0
 115 544 245 627 337 627 c 0xae80
 384 627 386 611 504 611 c 0
 658 611 771 666 801 666 c 0
 813 666 816 659 816 654 c 0
 816 648 814 640 796 622 c 2
 152 -40 l 1
 119 -40 l 2
 97 -40 94 -31 94 -25 c 0x9680
172 397 m 0
 172 375 185 354 217 354 c 0
 307 354 395 478 395 542 c 0
 395 564 377 579 352 579 c 0xae80
 288 579 172 464 172 397 c 0
438 107 m 0xc580
 438 232 572 317 664 317 c 0
 728 317 783 280 783 193 c 0
 783 77 677 -18 568 -18 c 0
 482 -18 438 40 438 107 c 0xc580
498 81 m 0
 498 59 511 37 544 37 c 0
 634 37 721 162 721 226 c 0
 721 248 703 262 678 262 c 0
 614 262 498 148 498 81 c 0
EndSplineSet
Layer: 2
SplineSet
93.75 -32.71484375 m 4x9680
 93.75 -29.78515625 95.703125 -25.87890625 103.02734375 -18.06640625 c 6
 703.61328125 622.55859375 l 5
 681.640625 611.328125 604.00390625 577.1484375 489.74609375 577.1484375 c 4x9680
 467.28515625 577.1484375 443.359375 579.1015625 417.96875 582.51953125 c 5
 430.17578125 563.96484375 437.01171875 540.52734375 437.01171875 509.765625 c 4
 437.01171875 397.94921875 334.9609375 306.15234375 232.421875 306.15234375 c 4
 152.83203125 306.15234375 114.74609375 360.83984375 114.74609375 423.33984375 c 4
 114.74609375 543.45703125 239.74609375 625.9765625 325.68359375 625.9765625 c 4xae80
 370.60546875 625.9765625 373.53515625 609.86328125 488.28125 609.86328125 c 4
 638.671875 609.86328125 751.46484375 666.015625 779.296875 666.015625 c 4
 783.203125 666.015625 786.62109375 665.0390625 786.62109375 660.64453125 c 4
 786.62109375 653.80859375 778.3203125 642.578125 769.04296875 632.8125 c 6
 141.6015625 -40.0390625 l 5
 111.328125 -40.0390625 l 6
 101.07421875 -40.0390625 93.75 -38.57421875 93.75 -32.71484375 c 4x9680
157.71484375 396.97265625 m 4
 157.71484375 371.09375 173.828125 346.6796875 209.47265625 346.6796875 c 4
 300.78125 346.6796875 389.16015625 473.6328125 389.16015625 541.9921875 c 4
 389.16015625 568.359375 368.1640625 586.42578125 339.84375 586.42578125 c 4xae80
 272.94921875 586.42578125 157.71484375 468.26171875 157.71484375 396.97265625 c 4
431.640625 106.93359375 m 4xc580
 431.640625 227.5390625 557.12890625 310.05859375 643.06640625 310.05859375 c 4
 703.61328125 310.05859375 753.90625 274.4140625 753.90625 192.87109375 c 4
 753.90625 81.0546875 652.34375 -10.7421875 549.8046875 -10.7421875 c 4
 469.7265625 -10.7421875 431.640625 44.43359375 431.640625 106.93359375 c 4xc580
474.609375 80.56640625 m 4
 474.609375 54.6875 490.72265625 29.78515625 526.85546875 29.78515625 c 4
 618.1640625 29.78515625 706.54296875 157.2265625 706.54296875 225.5859375 c 4
 706.54296875 251.953125 685.05859375 269.53125 656.73828125 269.53125 c 4
 589.84375 269.53125 474.609375 151.85546875 474.609375 80.56640625 c 4
EndSplineSet
EndChar

StartChar: sterling
Encoding: 163 163 150
Width: 503
VWidth: 0
Flags: W
HStem: -22 55<327.871 394.898> 240 49<41 147 240 365> 614 47<271.376 359.317>
VStem: 139 105<290.559 526.823> 147 93<289 391.041> 367 95<519.114 608.441> 398 61<34.3429 105.46>
LayerCount: 3
Fore
SplineSet
31 23 m 0xea
 31 79 109 100 137 118 c 1
 148 131 155 182 155 216 c 0
 155 216 153 229 152 240 c 1
 41 240 l 1
 41 289 l 1
 147 289 l 1xea
 144 322 139 372 139 392 c 0
 139 572 228 661 345 661 c 0
 404 661 462 619 462 563 c 0
 462 532 441 509 416 509 c 0
 395 509 375 522 367 563 c 0
 362 590 359 614 321 614 c 0
 290 614 242 590 242 513 c 0
 242 487 244 443 244 358 c 0xf4
 244 335 243 310 240 289 c 1
 365 289 l 1
 365 240 l 1
 231 240 l 1
 219 190 201 149 191 130 c 1
 286 129 321 33 370 33 c 0
 386 33 398 49 398 69 c 0
 398 98 358 107 358 144 c 0
 358 165 374 188 397 188 c 0
 436 188 459 137 459 98 c 0
 459 35 406 -22 331 -22 c 0
 258 -22 239 21 205 62 c 0
 186 84 175 91 168 91 c 0
 142 91 136 -21 72 -21 c 0
 48 -21 31 1 31 23 c 0xea
EndSplineSet
EndChar

StartChar: less
Encoding: 60 60 151
Width: 761
VWidth: 0
Flags: W
DStem2: 50 260 184 244 0.90357 0.42844<114.223 692.662> 184 244 50 228 0.90357 -0.42844<0 578.439>
LayerCount: 3
Fore
SplineSet
708 -84 m 1
 50 228 l 1
 50 260 l 1
 708 572 l 1
 708 489 l 1
 184 244 l 1
 708 -1 l 1
 708 -84 l 1
EndSplineSet
EndChar

StartChar: equal
Encoding: 61 61 152
Width: 853
VWidth: 0
Flags: W
HStem: 115 73<113 731> 282 73<113 731>
LayerCount: 3
Fore
SplineSet
113 115 m 1
 113 188 l 1
 731 188 l 1
 731 115 l 1
 113 115 l 1
113 282 m 1
 113 355 l 1
 731 355 l 1
 731 282 l 1
 113 282 l 1
EndSplineSet
EndChar

StartChar: greater
Encoding: 62 62 153
Width: 761
VWidth: 0
Flags: W
DStem2: 50 572 50 489 0.90357 -0.42844<35.5606 613.999> 50 -1 50 -84 0.90357 0.42844<0 578.439>
LayerCount: 3
Fore
SplineSet
50 -84 m 1
 50 -1 l 1
 574 244 l 1
 50 489 l 1
 50 572 l 1
 708 260 l 1
 708 228 l 1
 50 -84 l 1
EndSplineSet
EndChar

StartChar: notequal
Encoding: 8800 8800 154
Width: 720
VWidth: 0
Flags: W
HStem: 231 64<67 208 371 662> 371 63<67 357 520 662>
DStem2: 36 67 127 67 0.728576 0.684964<66.3005 237.649 400.245 442.102 604.013 778.874>
LayerCount: 3
Fore
SplineSet
36 67 m 1
 208 231 l 1
 67 231 l 1
 67 295 l 1
 276 295 l 1
 357 371 l 1
 67 371 l 1
 67 434 l 1
 425 434 l 1
 603 601 l 1
 695 601 l 1
 520 434 l 1
 662 434 l 1
 662 371 l 1
 452 371 l 1
 371 295 l 1
 662 295 l 1
 662 231 l 1
 302 231 l 1
 127 67 l 1
 36 67 l 1
EndSplineSet
EndChar

StartChar: uni2053
Encoding: 8275 8275 156
Width: 970
VWidth: 0
Flags: W
HStem: 217 68<652.184 803.346> 375 74<178.314 322.876>
VStem: 34 39<220.385 272.342> 906 37<396.973 441.324>
LayerCount: 3
Fore
SplineSet
34 222 m 1
 35 227 74 449 277 449 c 0
 462 449 604 285 749 285 c 0
 779 285 862 297 906 447 c 1
 943 440 l 1
 929 389 885 217 703 217 c 0
 512 217 372 375 221 375 c 0
 137 375 87 291 73 213 c 1
 34 222 l 1
EndSplineSet
Layer: 2
SplineSet
31.73828125 223.14453125 m 5
 31.73828125 223.14453125 72.75390625 449.21875 263.18359375 449.21875 c 4
 441.89453125 449.21875 579.58984375 270.01953125 724.12109375 270.01953125 c 4
 833.49609375 270.01953125 875.9765625 447.75390625 875.9765625 447.75390625 c 5
 908.203125 441.89453125 l 5
 903.3203125 431.15234375 866.69921875 216.796875 679.6875 216.796875 c 4
 494.62890625 216.796875 357.91015625 389.16015625 207.51953125 389.16015625 c 4
 89.35546875 389.16015625 63.96484375 216.30859375 63.96484375 216.30859375 c 5
 31.73828125 223.14453125 l 5
EndSplineSet
EndChar

StartChar: plusminus
Encoding: 177 177 157
Width: 794
VWidth: 0
Flags: W
HStem: -30 73<128 707> 281 73<128 385 450 707>
VStem: 381 73<77 285 351 568>
LayerCount: 3
Fore
SplineSet
128 -30 m 1
 128 43 l 1
 707 43 l 1
 707 -30 l 1
 128 -30 l 1
128 281 m 1
 128 354 l 1
 135 354 l 2
 297 354 363 352 385 351 c 1
 384 371 381 426 381 561 c 2
 381 568 l 1
 454 568 l 1
 454 561 l 2
 454 430 451 371 450 351 c 1
 471 352 538 354 700 354 c 2
 707 354 l 1
 707 281 l 1
 700 281 l 2
 536 281 471 284 450 285 c 1
 451 266 454 220 454 84 c 2
 454 77 l 1
 381 77 l 1
 381 84 l 2
 381 219 384 265 385 285 c 1
 364 284 302 281 135 281 c 2
 128 281 l 1
EndSplineSet
EndChar

StartChar: minus
Encoding: 8722 8722 158
Width: 806
VWidth: 0
Flags: W
HStem: 198 73<103 701>
LayerCount: 3
Fore
SplineSet
103 198 m 1
 103 271 l 1
 701 271 l 1
 701 198 l 1
 103 198 l 1
EndSplineSet
EndChar

StartChar: multiply
Encoding: 215 215 159
Width: 843
VWidth: 0
Flags: W
HStem: -10 21G<205 244.296 590.603 630>
DStem2: 417 281 372 235 0.707107 -0.707107<-275.772 0 65.0538 342.24> 372 235 417 189 0.707107 0.707107<-277.186 -0.707107 64.3467 340.825>
LayerCount: 3
Fore
SplineSet
372 235 m 1
 173 427 l 1
 225 479 l 1
 417 281 l 1
 610 479 l 1
 662 427 l 1
 463 235 l 1
 662 42 l 1
 610 -10 l 1
 417 189 l 1
 225 -10 l 1
 173 42 l 1
 372 235 l 1
EndSplineSet
EndChar

StartChar: divide
Encoding: 247 247 160
Width: 806
VWidth: 0
Flags: W
HStem: 10 136<352.978 451.022> 198 73<103 701> 324 135<352.978 451.022>
VStem: 334 136<28.9785 127.022 342.978 440.498>
LayerCount: 3
Fore
SplineSet
103 198 m 1
 103 271 l 1
 701 271 l 1
 701 198 l 1
 103 198 l 1
402 146 m 0
 439 146 470 115 470 78 c 0
 470 41 439 10 402 10 c 0
 365 10 334 41 334 78 c 0
 334 115 365 146 402 146 c 0
402 459 m 0
 439 459 470 429 470 392 c 0
 470 355 439 324 402 324 c 0
 365 324 334 355 334 392 c 0
 334 429 365 459 402 459 c 0
EndSplineSet
EndChar

StartChar: underscore
Encoding: 95 95 161
Width: 185
VWidth: 488
Flags: HMW
HStem: -106 51<0 186>
LayerCount: 3
Fore
SplineSet
0 -55 m 1
 186 -55 l 1
 186 -106 l 1
 0 -106 l 1
 0 -55 l 1
EndSplineSet
EndChar

StartChar: asciicircum
Encoding: 94 94 162
Width: 432
VWidth: 0
Flags: W
DStem2: 40 331 119 331 0.457829 0.88904<36.1685 263.369> 239 665 223 533 0.442914 -0.896564<111.26 337.1>
LayerCount: 3
Fore
SplineSet
40 331 m 1
 212 665 l 1
 239 665 l 1
 404 331 l 1
 324 331 l 1
 223 533 l 1
 119 331 l 1
 40 331 l 1
EndSplineSet
EndChar

StartChar: numbersign
Encoding: 35 35 163
Width: 512
VWidth: 0
Flags: W
HStem: 250 48<49 135 208 267 342 456> 359 49<50 166 242 300 373 458> 667 20G<261.763 329 391.122 453>
DStem2: 50 -49 106 -49 0.289971 0.957035<16.2384 310.801 377.907 767.592> 173 -49 234 -49 0.291162 0.956674<17.7609 313.415 381.172 427.3 495.432 769.332>
LayerCount: 3
Fore
SplineSet
49 250 m 1
 49 298 l 1
 149 298 l 1
 166 359 l 1
 50 359 l 1
 50 408 l 1
 181 408 l 1
 268 687 l 1
 329 687 l 1
 242 408 l 1
 315 408 l 1
 397 687 l 1
 453 687 l 1
 373 408 l 1
 458 408 l 1
 458 359 l 1
 359 359 l 1
 342 298 l 1
 456 298 l 1
 456 250 l 1
 328 250 l 1
 234 -49 l 1
 173 -49 l 1
 267 250 l 1
 193 250 l 1
 106 -49 l 1
 50 -49 l 1
 135 250 l 1
 49 250 l 1
227 359 m 1
 208 298 l 1
 282 298 l 1
 300 359 l 1
 227 359 l 1
EndSplineSet
Layer: 2
SplineSet
61.5234375 138.671875 m 5
 61.5234375 172.8515625 l 5
 184.08203125 172.8515625 l 5
 211.42578125 275.390625 l 5
 61.5234375 275.390625 l 5
 61.5234375 309.5703125 l 5
 220.703125 309.5703125 l 5
 318.359375 673.33984375 l 5
 358.3984375 673.33984375 l 5
 260.7421875 309.5703125 l 5
 366.2109375 309.5703125 l 5
 463.8671875 673.33984375 l 5
 504.39453125 673.33984375 l 5
 406.73828125 309.5703125 l 5
 518.5546875 309.5703125 l 5
 518.5546875 275.390625 l 5
 397.4609375 275.390625 l 5
 370.1171875 172.8515625 l 5
 518.5546875 172.8515625 l 5
 518.5546875 138.671875 l 5
 360.83984375 138.671875 l 5
 258.30078125 -243.1640625 l 5
 218.26171875 -243.1640625 l 5
 320.3125 138.671875 l 5
 214.84375 138.671875 l 5
 112.79296875 -243.1640625 l 5
 72.265625 -243.1640625 l 5
 174.8046875 138.671875 l 5
 61.5234375 138.671875 l 5
224.12109375 172.8515625 m 5
 329.58984375 172.8515625 l 5
 356.93359375 275.390625 l 5
 251.953125 275.390625 l 5
 224.12109375 172.8515625 l 5
EndSplineSet
EndChar

StartChar: currency
Encoding: 164 164 164
Width: 527
Flags: W
HStem: 58 69<191.162 334.007> 397 67<192.607 334.233>
VStem: 60 71<187.737 333.845> 396 72<188.99 333.296>
DStem2: 82 492 32 442 0.707963 -0.706249<-38.3243 95.1071 487.272 621.602> 32 80 82 30 0.707963 0.706249<-38.8863 94.7842 487.402 621.628>
LayerCount: 3
Fore
SplineSet
32 80 m 2
 97 144 l 1
 74 177 60 218 60 262 c 0
 60 305 73 345 96 378 c 1
 32 442 l 2
 32 442 13 459 13 478 c 0
 13 498 29 512 46 512 c 0
 62 512 75 499 82 492 c 2
 146 428 l 1
 179 451 220 464 263 464 c 0
 309 464 348 450 380 428 c 1
 445 492 l 2
 445 492 461 512 480 512 c 0
 500 512 515 495 515 478 c 0
 515 462 502 449 495 442 c 2
 430 377 l 1
 453 344 468 303 468 260 c 0
 468 217 453 177 430 144 c 1
 495 80 l 2
 495 80 514 63 514 44 c 0
 514 24 497 10 480 10 c 0
 464 10 452 23 445 30 c 2
 380 94 l 1
 347 71 306 58 263 58 c 0
 221 58 179 70 146 93 c 1
 82 30 l 2
 82 30 65 10 46 10 c 0
 26 10 12 27 12 44 c 0
 12 60 25 73 32 80 c 2
131 260 m 0
 131 185 191 127 263 127 c 0
 334 127 396 187 396 261 c 0
 396 334 336 397 263 397 c 0
 190 397 131 334 131 260 c 0
EndSplineSet
EndChar

StartChar: dagger
Encoding: 8224 8224 165
Width: 501
VWidth: 0
Flags: W
HStem: 363 107<54.9383 179.786 321.51 443.107> 397 38<166.25 227 275 332.212> 705 20G<232 266>
VStem: 187 124<535.43 708.265> 205 83<-217.925 77.2676>
LayerCount: 3
Fore
SplineSet
184 208 m 1x68
 185 214 223 364 228 397 c 1x68
 189 395 145 363 100 363 c 0
 79 363 43 373 43 414 c 0
 43 455 81 470 97 470 c 0xa8
 137 470 194 439 227 435 c 1
 225 490 187 604 187 645 c 0
 187 699 215 725 249 725 c 0
 283 725 311 703 311 648 c 0
 311 620 275 480 275 435 c 1x70
 317 439 351 470 393 470 c 0
 414 470 454 457 454 418 c 0
 454 376 418 363 392 363 c 0xb0
 356 363 314 395 271 397 c 1
 275 366 308 222 311 208 c 1x70
 288 101 288 -149 288 -166 c 0
 288 -195 268 -226 248 -226 c 0
 220 -226 205 -191 205 -167 c 0
 205 126 184 208 184 208 c 1x68
EndSplineSet
Layer: 2
SplineSet
42.96875 414.0625 m 4xa4
 42.96875 449.21875 75.68359375 462.40234375 89.35546875 462.40234375 c 4xa4
 130.37109375 462.40234375 188.96484375 426.7578125 219.7265625 426.7578125 c 4
 221.6796875 426.7578125 221.6796875 427.734375 221.6796875 428.7109375 c 4
 221.6796875 483.3984375 184.5703125 608.88671875 184.5703125 649.90234375 c 4
 184.5703125 702.1484375 207.51953125 724.609375 233.88671875 724.609375 c 4
 260.7421875 724.609375 283.69140625 705.56640625 283.69140625 653.3203125 c 4
 283.69140625 625.9765625 250.9765625 482.421875 250.9765625 435.05859375 c 4
 250.9765625 427.24609375 251.953125 426.7578125 253.90625 426.7578125 c 4x70
 296.875 429.19921875 328.61328125 462.40234375 370.60546875 462.40234375 c 4
 389.6484375 462.40234375 424.31640625 451.66015625 424.31640625 418.45703125 c 4
 424.31640625 382.32421875 393.5546875 370.60546875 370.1171875 370.60546875 c 4
 334.9609375 370.60546875 292.48046875 404.296875 249.51171875 404.296875 c 4
 247.0703125 404.296875 247.0703125 403.80859375 247.0703125 401.85546875 c 4xa4
 247.0703125 385.25390625 283.69140625 208.0078125 283.69140625 208.0078125 c 5xb0
 283.69140625 208.0078125 262.6953125 122.0703125 262.6953125 -165.52734375 c 4
 262.6953125 -185.546875 249.0234375 -218.75 233.3984375 -218.75 c 4
 211.9140625 -218.75 201.66015625 -185.546875 201.66015625 -166.50390625 c 4xa8
 201.66015625 125 181.640625 208.0078125 181.640625 208.0078125 c 5
 181.640625 208.0078125 223.14453125 386.71875 223.14453125 402.83203125 c 4
 223.14453125 403.80859375 220.21484375 404.78515625 219.7265625 404.78515625 c 4x64
 181.640625 404.78515625 137.6953125 370.60546875 92.7734375 370.60546875 c 4
 87.890625 370.60546875 42.96875 371.58203125 42.96875 414.0625 c 4xa4
EndSplineSet
EndChar

StartChar: daggerdbl
Encoding: 8225 8225 166
Width: 501
VWidth: 0
Flags: W
HStem: -40 106<53.8932 174.828 316.876 441.062> -5 38<162.75 221 270 330.25> 437 106<54.9383 179.786 321.172 442.164> 471 37<166.814 227 275 331.742>
VStem: 186 124<-200.982 -72.8997 576.526 704.25>
LayerCount: 3
Fore
SplineSet
221 -5 m 1x48
 179 -9 146 -40 104 -40 c 0
 83 -40 43 -28 43 11 c 0
 43 53 79 66 105 66 c 0x88
 141 66 183 36 225 33 c 1
 221 52 202 109 191 139 c 1
 199 179 215 211 225 249 c 1
 214 285 198 315 189 354 c 1
 197 376 223 449 228 471 c 1x58
 190 468 145 437 101 437 c 0
 80 437 43 446 43 487 c 0
 43 528 81 543 97 543 c 0x28
 137 543 194 512 227 508 c 1
 224 559 187 605 187 647 c 0
 187 700 218 720 251 720 c 0
 287 720 311 701 311 651 c 0
 311 622 275 554 275 508 c 1x18
 317 512 350 543 392 543 c 0
 413 543 453 531 453 492 c 0
 453 450 418 437 392 437 c 0
 356 437 313 467 271 470 c 1
 275 449 294 386 305 354 c 1
 297 316 281 285 271 249 c 1
 282 212 300 179 308 139 c 1
 296 109 273 52 269 32 c 1
 307 35 352 66 396 66 c 0
 417 66 453 57 453 16 c 0
 453 -25 415 -40 399 -40 c 0xa8
 359 -40 303 -9 270 -5 c 1
 273 -56 310 -103 310 -145 c 0
 310 -196 278 -217 245 -217 c 0
 221 -217 186 -208 186 -148 c 0
 186 -119 221 -51 221 -5 c 1x48
EndSplineSet
Layer: 2
SplineSet
43.45703125 11.23046875 m 4x84
 43.45703125 47.36328125 74.21875 59.08203125 97.65625 59.08203125 c 4x84
 132.8125 59.08203125 175.29296875 25.390625 217.7734375 25.390625 c 4
 220.21484375 25.390625 220.21484375 25.87890625 220.21484375 27.83203125 c 4
 220.21484375 44.43359375 188.4765625 141.11328125 188.4765625 141.11328125 c 5
 220.21484375 248.53515625 l 5
 186.5234375 352.05078125 l 5
 186.5234375 352.05078125 223.14453125 459.9609375 223.14453125 476.07421875 c 4
 223.14453125 477.05078125 220.21484375 478.02734375 219.7265625 478.02734375 c 4x54
 181.640625 478.02734375 138.18359375 443.84765625 93.26171875 443.84765625 c 4
 88.37890625 443.84765625 43.45703125 444.82421875 43.45703125 487.3046875 c 4
 43.45703125 522.4609375 76.171875 535.64453125 89.84375 535.64453125 c 4x24
 130.859375 535.64453125 188.96484375 500 219.7265625 500 c 4
 221.6796875 500 221.6796875 500.9765625 221.6796875 501.953125 c 4
 221.6796875 556.640625 184.5703125 606.4453125 184.5703125 647.4609375 c 4
 184.5703125 695.80078125 209.9609375 712.40234375 236.328125 712.40234375 c 4
 263.18359375 712.40234375 283.203125 698.2421875 283.203125 650.87890625 c 4
 283.203125 623.53515625 250.9765625 555.6640625 250.9765625 508.30078125 c 4
 250.9765625 500.48828125 251.953125 500 253.90625 500 c 4x14
 296.38671875 502.44140625 328.125 535.64453125 370.1171875 535.64453125 c 4
 389.16015625 535.64453125 423.828125 524.90234375 423.828125 491.69921875 c 4
 423.828125 455.56640625 393.06640625 443.84765625 369.62890625 443.84765625 c 4
 334.47265625 443.84765625 291.9921875 477.5390625 249.51171875 477.5390625 c 4
 247.0703125 477.5390625 247.0703125 477.05078125 247.0703125 475.09765625 c 4
 247.0703125 458.49609375 278.80859375 352.05078125 278.80859375 352.05078125 c 5
 247.0703125 248.53515625 l 5
 280.76171875 141.11328125 l 5
 280.76171875 141.11328125 244.140625 42.96875 244.140625 26.85546875 c 4
 244.140625 25.87890625 247.0703125 24.90234375 247.55859375 24.90234375 c 4
 285.64453125 24.90234375 329.1015625 59.08203125 374.0234375 59.08203125 c 4
 378.90625 59.08203125 423.828125 58.10546875 423.828125 15.625 c 4
 423.828125 -19.53125 391.11328125 -32.71484375 377.44140625 -32.71484375 c 4xa4
 336.42578125 -32.71484375 278.3203125 2.9296875 247.55859375 2.9296875 c 4
 245.60546875 2.9296875 245.60546875 1.953125 245.60546875 0.9765625 c 4x44
 245.60546875 -53.7109375 282.71484375 -103.515625 282.71484375 -144.53125 c 4
 282.71484375 -191.40625 257.32421875 -209.47265625 230.95703125 -209.47265625 c 4
 204.1015625 -209.47265625 184.08203125 -194.3359375 184.08203125 -147.94921875 c 4x48
 184.08203125 -120.60546875 216.30859375 -52.734375 216.30859375 -5.37109375 c 4
 216.30859375 2.44140625 215.33203125 2.9296875 213.37890625 2.9296875 c 4x44
 170.8984375 0.48828125 139.16015625 -32.71484375 97.16796875 -32.71484375 c 4
 78.125 -32.71484375 43.45703125 -21.97265625 43.45703125 11.23046875 c 4x84
EndSplineSet
EndChar

StartChar: paragraph
Encoding: 182 182 167
Width: 776
VWidth: 0
Flags: W
HStem: 655 46<364.438 496.957>
VStem: 37 183<188.672 465.044> 309 53<4 638> 610 76<-176.148 -117.98>
LayerCount: 3
Fore
SplineSet
37 341 m 0
 37 562 214 701 422 701 c 0
 528 701 555 664 558 649 c 0
 558 648 558 647 558 646 c 0
 558 629 543 620 531 620 c 0
 504 620 489 655 413 655 c 0
 391 655 373 651 362 650 c 1
 362 -8 l 1
 470 -31 686 -12 686 -130 c 0
 686 -167 666 -199 637 -199 c 0
 610 -199 603 -181 603 -165 c 0
 603 -153 610 -145 610 -140 c 0
 610 -89 348 -75 243 -28 c 0
 99 37 37 176 37 341 c 0
220 595 m 1
 220 47 l 1
 245 26 269 15 309 4 c 1
 309 638 l 1
 264 626 236 609 220 595 c 1
EndSplineSet
Layer: 2
SplineSet
525.390625 345.21484375 m 0
 525.390625 563.96484375 717.7734375 702.1484375 938.4765625 702.1484375 c 0
 1042.48046875 702.1484375 1077.63671875 664.55078125 1077.63671875 646.484375 c 0
 1077.63671875 632.8125 1066.89453125 625.48828125 1059.08203125 625.48828125 c 0
 1037.59765625 625.48828125 1018.5546875 660.15625 945.3125 660.15625 c 0
 918.45703125 660.15625 895.5078125 655.2734375 887.6953125 654.78515625 c 9
 887.6953125 -15.625 l 17
 996.58203125 -40.52734375 1223.6328125 -20.01953125 1223.6328125 -132.32421875 c 0
 1223.6328125 -161.62109375 1205.078125 -193.359375 1169.43359375 -193.359375 c 0
 1160.64453125 -193.359375 1134.765625 -192.3828125 1134.765625 -166.015625 c 0
 1134.765625 -154.78515625 1143.5546875 -149.4140625 1143.5546875 -141.6015625 c 0
 1143.5546875 -79.58984375 864.74609375 -71.77734375 745.60546875 -21.484375 c 0
 593.26171875 42.48046875 525.390625 180.6640625 525.390625 345.21484375 c 0
741.2109375 38.57421875 m 17
 769.04296875 14.16015625 795.8984375 4.39453125 841.30859375 -7.32421875 c 9
 841.30859375 645.5078125 l 17
 788.0859375 632.8125 758.30078125 612.3046875 741.2109375 597.16796875 c 9
 741.2109375 38.57421875 l 17
37.109375 340.8203125 m 4
 37.109375 557.12890625 208.49609375 693.84765625 405.2734375 693.84765625 c 4
 498.046875 693.84765625 529.296875 661.1328125 529.296875 645.5078125 c 4
 529.296875 633.7890625 518.5546875 627.44140625 510.7421875 627.44140625 c 4
 489.2578125 627.44140625 469.7265625 662.109375 396.484375 662.109375 c 4
 369.62890625 662.109375 347.65625 657.2265625 339.84375 656.73828125 c 13
 337.890625 -13.671875 l 21
 440.91796875 -38.57421875 656.73828125 -18.06640625 656.73828125 -130.37109375 c 4
 656.73828125 -159.66796875 642.578125 -191.40625 615.234375 -191.40625 c 4
 608.3984375 -191.40625 588.37890625 -190.4296875 588.37890625 -164.55078125 c 4
 588.37890625 -153.3203125 595.21484375 -147.94921875 595.21484375 -140.13671875 c 4
 595.21484375 -78.61328125 343.26171875 -70.80078125 235.83984375 -21.484375 c 4
 98.14453125 41.9921875 37.109375 178.22265625 37.109375 340.8203125 c 4
203.125 43.45703125 m 21
 230.95703125 19.04296875 257.8125 5.859375 303.22265625 -5.859375 c 13
 303.22265625 647.4609375 l 21
 250 634.765625 220.21484375 613.28125 203.125 598.14453125 c 13
 203.125 43.45703125 l 21
EndSplineSet
EndChar

StartChar: section
Encoding: 167 167 168
Width: 500
VWidth: 0
Flags: W
HStem: -218 47<192.063 317.685> -27 20G<144 171.5> 81 34<323.44 365.53> 381 33<129.69 156> 662 47<169.655 260.516>
VStem: 56 59<275.278 370.475> 88 64<535.271 644.037> 96 92<-156.558 -65> 262 111<578.126 660.997> 340 65<-148.047 -48.0346> 373 53<120.868 304.749>
LayerCount: 3
Fore
SplineSet
115 333 m 0xfc20
 115 258 273 115 326 115 c 0
 353 115 373 128 373 153 c 0
 373 224 215 373 179 381 c 1
 130 381 115 353 115 333 c 0xfc20
56 295 m 0
 56 382 110 413 156 414 c 1
 134 439 88 498 88 573 c 0
 88 669 155 709 229 709 c 0
 326 709 373 653 373 604 c 0
 373 557 344 541 315 541 c 0
 277 541 236 564 236 591 c 0
 236 613 262 632 262 646 c 0xfa80
 262 653 253 662 237 662 c 0
 193 662 152 647 152 589 c 0
 152 480 426 401 426 204 c 0xfa20
 426 100 371 81 333 81 c 0
 330 81 326 81 323 81 c 1
 356 48 405 -10 405 -87 c 0
 405 -175 332 -218 255 -218 c 0
 173 -218 96 -172 96 -89 c 0
 96 -41 125 -7 163 -7 c 0
 180 -7 232 -36 232 -64 c 0
 232 -91 188 -115 188 -136 c 0
 188 -150 200 -171 258 -171 c 0
 297 -171 340 -145 340 -105 c 0xf940
 340 -38 256 8 177 75 c 0
 85 154 56 234 56 295 c 0
EndSplineSet
Layer: 2
SplineSet
112.79296875 332.51953125 m 0xfc20
 112.79296875 257.32421875 268.5546875 113.28125 322.265625 113.28125 c 0
 349.12109375 113.28125 370.1171875 126.953125 370.1171875 152.83203125 c 0
 370.1171875 225.5859375 210.473632812 382.32421875 176.7578125 382.32421875 c 0
 128.90625 382.32421875 112.79296875 354.98046875 112.79296875 332.51953125 c 0xfc20
55.6640625 294.921875 m 0
 55.6640625 382.8125 109.86328125 412.109375 156.73828125 412.59765625 c 1
 135.7421875 436.03515625 87.890625 496.58203125 87.890625 572.75390625 c 0
 87.890625 667.96875 155.2734375 708.0078125 227.5390625 708.0078125 c 0
 322.265625 708.0078125 367.67578125 652.83203125 367.67578125 604.00390625 c 0
 367.67578125 558.10546875 339.84375 541.9921875 311.5234375 541.9921875 c 0
 278.3203125 541.9921875 235.3515625 562.01171875 235.3515625 590.8203125 c 0
 235.3515625 612.79296875 260.25390625 631.34765625 260.25390625 645.99609375 c 0
 260.25390625 654.296875 250 663.0859375 234.375 663.0859375 c 0
 192.3828125 663.0859375 149.90234375 649.4140625 149.90234375 588.8671875 c 0
 149.90234375 478.515625 421.38671875 400.390625 421.38671875 203.61328125 c 0xfaa0
 421.38671875 100.09765625 365.72265625 82.03125 329.1015625 82.03125 c 0
 324.21875 82.03125 319.82421875 82.03125 315.91796875 82.51953125 c 1
 348.6328125 50.29296875 399.90234375 -9.27734375 399.90234375 -87.40234375 c 0
 399.90234375 -174.8046875 328.61328125 -216.796875 252.44140625 -216.796875 c 0
 172.8515625 -216.796875 95.703125 -172.36328125 95.703125 -89.35546875 c 0
 95.703125 -41.9921875 124.51171875 -8.7890625 161.1328125 -8.7890625 c 0
 176.7578125 -8.7890625 229.00390625 -36.62109375 229.00390625 -63.96484375 c 0
 229.00390625 -91.30859375 185.05859375 -114.74609375 185.05859375 -136.23046875 c 0
 185.05859375 -150.87890625 196.77734375 -172.8515625 254.8828125 -172.8515625 c 0
 293.9453125 -172.8515625 337.40234375 -145.5078125 337.40234375 -105.46875 c 0xf940
 337.40234375 -37.59765625 252.44140625 10.7421875 176.7578125 76.171875 c 0
 85.44921875 154.78515625 55.6640625 234.86328125 55.6640625 294.921875 c 0
543.9453125 294.921875 m 4xfc40
 543.9453125 379.39453125 595.703125 406.73828125 640.13671875 406.73828125 c 4
 645.5078125 406.73828125 649.90234375 406.25 653.3203125 405.76171875 c 5
 650.87890625 410.64453125 576.171875 479.00390625 576.171875 572.75390625 c 4
 576.171875 664.55078125 640.625 702.1484375 704.58984375 702.1484375 c 4
 789.0625 702.1484375 831.54296875 648.92578125 831.54296875 604.00390625 c 4
 831.54296875 562.5 807.6171875 547.8515625 781.73828125 547.8515625 c 4
 751.953125 547.8515625 717.7734375 567.3828125 717.7734375 590.8203125 c 4
 717.7734375 610.83984375 740.234375 628.90625 740.234375 645.99609375 c 4
 740.234375 658.69140625 727.5390625 668.9453125 710.9375 668.9453125 c 4
 669.43359375 668.9453125 625.9765625 652.83203125 625.9765625 588.8671875 c 4
 625.9765625 473.6328125 885.25390625 397.4609375 885.25390625 203.61328125 c 4xfaa0
 885.25390625 104.98046875 833.49609375 87.890625 798.828125 87.890625 c 4
 783.69140625 87.890625 775.87890625 90.8203125 765.625 93.26171875 c 5
 793.9453125 66.89453125 863.76953125 1.953125 863.76953125 -87.40234375 c 4
 863.76953125 -170.8984375 795.41015625 -210.44921875 727.05078125 -210.44921875 c 4
 657.2265625 -210.44921875 583.984375 -167.96875 583.984375 -89.35546875 c 4
 583.984375 -44.921875 610.83984375 -14.6484375 643.5546875 -14.6484375 c 4
 656.73828125 -14.6484375 699.70703125 -41.015625 699.70703125 -63.96484375 c 4
 699.70703125 -87.890625 660.15625 -111.81640625 660.15625 -136.23046875 c 4xf940
 660.15625 -153.3203125 672.36328125 -178.7109375 729.4921875 -178.7109375 c 4
 766.6015625 -178.7109375 813.4765625 -150.390625 813.4765625 -105.46875 c 4
 813.4765625 -34.1796875 733.3984375 15.625 663.0859375 80.56640625 c 5
 573.73046875 159.66796875 543.9453125 236.81640625 543.9453125 294.921875 c 4xfc40
588.8671875 332.51953125 m 4xfc20
 588.8671875 253.90625 737.79296875 107.421875 791.9921875 107.421875 c 4
 821.77734375 107.421875 846.19140625 123.046875 846.19140625 152.83203125 c 4
 846.19140625 230.46875 686.03515625 388.671875 658.203125 388.671875 c 4
 616.69921875 388.671875 588.8671875 364.74609375 588.8671875 332.51953125 c 4xfc20
EndSplineSet
EndChar

StartChar: brokenbar
Encoding: 166 166 169
Width: 415
VWidth: 488
Flags: W
VStem: 174 59<-238 151 323 713>
LayerCount: 3
Fore
SplineSet
174 151 m 1
 233 151 l 1
 233 -238 l 1
 174 -238 l 1
 174 151 l 1
174 323 m 1
 174 713 l 1
 233 713 l 1
 233 323 l 1
 174 323 l 1
EndSplineSet
EndChar

StartChar: exclamdown
Encoding: 161 161 170
Width: 293
VWidth: 0
Flags: W
HStem: -15 21G<94 99> 509 154<137.42 202.902>
VStem: 95 151<552.604 621.105>
LayerCount: 3
Fore
SplineSet
246 585 m 0
 246 566 187 509 169 509 c 0
 154 509 95 570 95 583 c 0
 95 609 149 663 170 663 c 0
 182 663 246 611 246 585 c 0
214 37 m 0
 214 29 207 24 187 17 c 2
 114 -10 l 2
 106 -13 101 -15 97 -15 c 0
 91 -15 88 -10 88 -4 c 0
 88 0 90 6 91 13 c 2
 147 392 l 2
 156 451 162 454 166 454 c 2
 168 454 l 2
 175 454 177 441 179 428 c 0
 180 420 188 350 188 344 c 0
 199 213 214 84 214 37 c 0
EndSplineSet
Position2: "'cpsp' Capital Spacing in Latin lookup 1 subtable" dx=2 dy=0 dh=4 dv=0
EndChar

StartChar: questiondown
Encoding: 191 191 171
Width: 387
VWidth: 0
Flags: W
HStem: -15 64<126.454 251.872> 510 154<144.758 209.594>
VStem: 25 70<69.6278 145.802> 103 150<551.34 621.422> 209 77<314.988 416.822>
DStem2: 83 257 158 181 0.814955 0.579524<-71.1125 158.804>
LayerCount: 3
Fore
SplineSet
253 585 m 0xf0
 253 566 194 510 176 510 c 0
 161 510 103 570 103 583 c 0
 103 609 156 664 177 664 c 0
 189 664 253 611 253 585 c 0xf0
209 399 m 0xe8
 209 429 190 445 190 461 c 0
 190 466 193 471 200 471 c 0
 225 471 286 419 286 338 c 0
 286 281 246 244 203 213 c 2
 158 181 l 2
 122 156 95 131 95 92 c 0
 95 75 108 49 174 49 c 0
 206 49 249 64 270 75 c 0
 282 81 287 74 287 67 c 0
 287 65 286 63 286 61 c 0
 278 38 256 -15 195 -15 c 0
 165 -15 112 9 70 44 c 0
 35 74 25 108 25 138 c 0
 25 195 54 233 83 257 c 2
 120 288 l 2
 173 333 209 360 209 399 c 0xe8
EndSplineSet
Position2: "'cpsp' Capital Spacing in Latin lookup 1 subtable" dx=3 dy=0 dh=6 dv=0
EndChar

StartChar: cent
Encoding: 162 162 172
Width: 496
VWidth: 0
Flags: W
HStem: -22 52<210.666 343.635> 398 47<213.949 251 309 332.904>
VStem: 48 99<112.585 317.502> 338 93<304.5 383.11>
DStem2: 87 -200 129 -213 0.263464 0.964669<0 212.528 305.744 620.08 675.877 968.359>
LayerCount: 3
Fore
SplineSet
147 213 m 0
 147 167 158 121 171 94 c 1
 251 398 l 1
 191 387 147 299 147 213 c 0
448 85 m 1
 413 45 356 -22 264 -22 c 0
 241 -22 214 -18 187 -7 c 1
 129 -213 l 1
 87 -200 l 1
 149 16 l 1
 93 55 48 123 48 219 c 0
 48 326 122 441 264 445 c 1
 339 735 l 1
 386 728 l 1
 309 440 l 1
 374 426 431 383 431 324 c 0
 431 285 401 253 362 253 c 0
 329 253 299 278 299 310 c 0
 299 351 338 361 338 371 c 0
 338 376 321 392 296 395 c 1
 205 56 l 1
 228 37 251 30 273 30 c 0
 350 30 417 116 417 116 c 1
 448 85 l 1
EndSplineSet
Layer: 2
SplineSet
147 213 m 4
 147 167 158 121 171 94 c 5
 251 398 l 5
 191 387 147 299 147 213 c 4
448 85 m 5
 413 45 356 -22 264 -22 c 4
 241 -22 214 -18 187 -7 c 5
 129 -213 l 5
 87 -200 l 5
 149 16 l 5
 93 55 48 123 48 219 c 4
 48 326 122 441 264 445 c 5
 339 735 l 5
 386 728 l 5
 309 440 l 5
 374 426 431 383 431 324 c 4
 431 285 401 253 362 253 c 4
 329 253 299 278 299 310 c 4
 299 347 329 356 337 369 c 4
 338 370 338 371 337 373 c 4
 334 379 319 392 296 395 c 5
 205 56 l 5
 228 37 251 30 273 30 c 4
 350 30 417 116 417 116 c 5
 448 85 l 5
EndSplineSet
EndChar

StartChar: minute
Encoding: 8242 8242 174
Width: 246
VWidth: 0
Flags: HMW
LayerCount: 3
Fore
SplineSet
55 479 m 0
 55 495 76 551 80 562 c 0
 109 647 110 734 168 734 c 0
 197 734 206 706 206 694 c 0
 206 659 160 594 132 542 c 0
 101 485 97 460 75 460 c 0
 60 460 55 470 55 479 c 0
EndSplineSet
Layer: 2
SplineSet
55 479 m 4
 55 495 76 551 80 562 c 4
 109 647 110 734 168 734 c 4
 197 734 206 706 206 694 c 4
 206 659 160 594 132 542 c 4
 105 492 100 473 88 464 c 4
 86 463 81 460 75 460 c 4
 60 460 55 470 55 479 c 4
EndSplineSet
EndChar

StartChar: second
Encoding: 8243 8243 175
Width: 366
VWidth: 0
Flags: HMW
LayerCount: 3
Fore
SplineSet
62 481 m 0
 62 497 96 662 106 698 c 0
 112 721 132 734 155 734 c 0
 179 734 195 712 195 695 c 0
 195 668 157 602 130 542 c 0
 110 496 101 463 81 463 c 0
 72 463 62 470 62 481 c 0
175 484 m 0
 175 500 193 544 204 567 c 0
 219 600 245 733 301 733 c 0
 332 733 340 714 340 701 c 0
 340 669 294 603 255 543 c 0
 215 480 215 465 194 465 c 0
 179 465 175 475 175 484 c 0
EndSplineSet
Layer: 2
SplineSet
62 481 m 4
 62 497 96 662 106 698 c 4
 112 721 132 734 155 734 c 4
 179 734 195 712 195 695 c 4
 195 668 157 602 130 542 c 4
 113 504 105 480 94 469 c 4
 88 463 82 463 81 463 c 4
 72 463 62 470 62 481 c 4
175 484 m 4
 175 500 193 544 204 567 c 4
 219 600 245 733 301 733 c 4
 332 733 340 714 340 701 c 4
 340 669 294 603 255 543 c 4
 225 496 219 478 207 469 c 4
 203 466 198 465 194 465 c 4
 179 465 175 475 175 484 c 4
EndSplineSet
EndChar

StartChar: degree
Encoding: 176 176 176
Width: 285
VWidth: 0
Flags: W
HStem: 479 51<85.703 192.384> 686 50<85.703 192.384>
VStem: 11 50<554.616 661.297> 217 51<554.616 661.297>
LayerCount: 3
Fore
SplineSet
139 736 m 0
 210 736 268 679 268 608 c 0
 268 537 210 479 139 479 c 0
 68 479 11 537 11 608 c 0
 11 679 68 736 139 736 c 0
61 608 m 0
 61 565 96 530 139 530 c 0
 182 530 217 565 217 608 c 0
 217 651 182 686 139 686 c 0
 96 686 61 651 61 608 c 0
EndSplineSet
EndChar

StartChar: yen
Encoding: 165 165 177
Width: 723
VWidth: 0
Flags: W
HStem: 0 44<179 266.556 410.892 514> 196 49<120 268 409 561> 343 49<120 213 460 561> 623 44<20 78.1232 244.014 305 449 534.993 592.571 659>
VStem: 268 141<47.2325 196 245 309>
DStem2: 261 577 104 562 0.524789 -0.851232<-38.4697 132.288 192.366 231.804> 388 371 460 392 0.533399 0.845864<56.1679 281.256>
LayerCount: 3
Fore
SplineSet
460 392 m 1
 561 392 l 1
 561 343 l 1
 426 343 l 1
 409 312 l 1
 409 245 l 1
 561 245 l 1
 561 196 l 1
 409 196 l 1
 409 87 l 2
 409 39 423 45 514 44 c 1
 515 0 l 1
 179 0 l 1
 179 44 l 1
 258 46 268 37 268 88 c 2
 268 196 l 1
 120 196 l 1
 120 245 l 1
 268 245 l 1
 268 309 l 1
 248 343 l 1
 120 343 l 1
 120 392 l 1
 213 392 l 1
 104 562 l 2
 65 623 69 623 20 623 c 1
 18 667 l 1
 305 667 l 1
 305 623 l 1
 263 623 244 623 244 612 c 0
 244 606 250 595 261 577 c 2
 388 371 l 1
 527 593 l 2
 532 601 535 607 535 611 c 0
 535 620 525 623 495 623 c 2
 449 623 l 1
 447 667 l 1
 659 667 l 1
 659 623 l 1
 609 622 606 624 578 580 c 2
 460 392 l 1
EndSplineSet
Layer: 2
SplineSet
461 392 m 5
 562 392 l 5
 562 343 l 5
 427 343 l 5
 410 312 l 5
 410 245 l 5
 562 245 l 5
 562 196 l 5
 410 196 l 5
 410 87 l 6
 410 39 424 45 515 44 c 5
 516 0 l 5
 179 0 l 5
 179 44 l 5
 258 46 268 37 268 88 c 6
 268 196 l 5
 120 196 l 5
 120 245 l 5
 268 245 l 5
 268 309 l 5
 248 343 l 5
 120 343 l 5
 120 392 l 5
 213 392 l 5
 104 562 l 6
 65 623 69 623 20 623 c 5
 18 667 l 5
 305 667 l 5
 305 623 l 5
 263 623 244 623 244 612 c 4
 244 606 250 595 261 577 c 6
 389 371 l 5
 528 593 l 6
 533 601 536 607 536 611 c 4
 536 620 526 623 496 623 c 6
 450 623 l 5
 448 667 l 5
 660 667 l 5
 660 623 l 5
 610 622 607 624 579 580 c 6
 461 392 l 5
EndSplineSet
EndChar

StartChar: dotlessi
Encoding: 305 305 178
Width: 318
VWidth: 0
Flags: MW
HStem: 0 37<32 100.721 215.175 300> 384 20G<183.5 215>
VStem: 101 114<37.8139 341.996>
AnchorPoint: "top" 160 488 basechar 0
LayerCount: 3
Fore
SplineSet
31 366 m 1
 90 376 152 388 215 404 c 1
 215 64 l 2
 215 33 217 38 300 37 c 1
 300 0 l 1
 32 0 l 1
 32 37 l 1
 52 37 l 2
 91 37 101 38 101 61 c 2
 101 323 l 2
 101 336 96 342 88 342 c 0
 86 342 33 333 33 333 c 1
 31 366 l 1
EndSplineSet
EndChar

StartChar: uni0237
Encoding: 567 567 179
Width: 250
VWidth: 0
Flags: MW
HStem: -259 60<11.9852 68.7585> 384 20G<167.5 200>
VStem: 86 114<-141.719 338.996>
AnchorPoint: "top" 118 488 basechar 0
LayerCount: 3
Fore
SplineSet
-38 -121 m 0
 -2 -121 4 -199 43 -199 c 0
 77 -199 86 -131 86 -31 c 2
 86 307 l 2
 86 334 81 339 70 339 c 0
 60 339 53 337 18 331 c 1
 16 369 l 1
 60 376 135 389 200 404 c 1
 200 -48 l 2
 200 -192 76 -259 21 -259 c 0
 -14 -259 -93 -248 -93 -202 c 0
 -93 -175 -71 -143 -57 -129 c 0
 -51 -123 -45 -121 -38 -121 c 0
EndSplineSet
Layer: 2
SplineSet
-93 -202 m 4
 -93 -175 -71 -143 -57 -129 c 4
 -51 -123 -45 -121 -38 -121 c 4
 -22 -121 -14 -134 -8 -144 c 4
 12 -178 21 -199 43 -199 c 4
 77 -199 86 -131 86 -31 c 6
 86 307 l 6
 86 326 85 339 70 339 c 4
 69 339 67 339 66 339 c 4
 56 338 47 336 18 331 c 5
 16 369 l 5
 60 376 136 389 201 404 c 5
 201 -48 l 6
 201 -192 76 -259 21 -259 c 4
 -14 -259 -93 -248 -93 -202 c 4
EndSplineSet
EndChar

StartChar: bullet
Encoding: 8226 8226 215
Width: 418
Flags: W
HStem: 173 256<140.168 278.832>
VStem: 82 255<229.982 370.832>
LayerCount: 3
Fore
SplineSet
209 429 m 0
 279 429 337 373 337 302 c 0
 337 231 281 173 210 173 c 0
 139 173 82 230 82 301 c 0
 82 371 138 429 209 429 c 0
EndSplineSet
EndChar

StartChar: quotereversed
Encoding: 8219 8219 216
Width: 242
VWidth: 0
Flags: W
HStem: 479 250
VStem: 48 94<553.146 671>
LayerCount: 3
Fore
SplineSet
142 575 m 0
 142 518 205 519 205 491 c 0
 205 487 202 479 190 479 c 0
 179 479 48 504 48 632 c 0
 48 710 127 729 135 729 c 0
 147 729 205 669 205 653 c 0
 205 634 142 633 142 575 c 0
EndSplineSet
EndChar

StartChar: figuredash
Encoding: 8210 8210 219
Width: 520
VWidth: 0
Flags: W
HStem: 0 34<211.477 267.957> 129 31<213.238 264.221> 260 51<488 988> 653 56<166.207 272.136>
VStem: 52 268<452.688 542.016> 52 140<48.5222 114.704> 52 110<206.51 343.002> 52 84<575.006 623.693> 224 224<203.728 297.122> 288 160<48.7331 116.736> 377 71<406.541 545.147>
LayerCount: 3
Fore
SplineSet
488 260 m 1xf0
 488 311 l 1
 988 311 l 1
 988 260 l 1
 488 260 l 1xf0
52 0 m 17xf120
 52 709 l 9
 448 709 l 25
 448 0 l 25
 52 0 l 17xf120
136 591 m 0
 136 583 139 575 153 575 c 0
 182 575 194 576 208 576 c 0
 265 576 320 537 320 507 c 0xf8
 320 420 162 384 162 279 c 0
 162 205 222 160 248 160 c 0
 258 160 265 165 265 176 c 0
 265 196 224 207 224 253 c 0xf280
 224 299 290 329 351 401 c 0
 371 425 377 444 377 474 c 0
 377 567 262 653 221 653 c 0
 180 653 136 609 136 591 c 0
192 82 m 0xf440
 192 68 221 35 239 34 c 1
 263 35 288 75 288 82 c 0
 288 98 260 129 241 129 c 0
 227 129 192 102 192 82 c 0xf440
EndSplineSet
EndChar

StartChar: braceleft
Encoding: 123 123 220
Width: 322
VWidth: 488
Flags: W
HStem: -233 34<235.816 296> 677 33<234.803 296>
VStem: 117 80<-150.674 202.268 277.74 625.996>
LayerCount: 3
Fore
SplineSet
118 98 m 0
 117 228 79 212 34 224 c 1
 34 254 l 1
 83 265 116 255 117 384 c 0
 117 420 114 462 114 508 c 0
 114 622 161 710 289 710 c 2
 296 710 l 1
 296 677 l 1
 289 677 l 2
 199 677 193 595 193 514 c 0
 193 458 197 413 197 368 c 0
 197 305 183 262 141 240 c 1
 183 217 197 174 197 114 c 0
 197 71 192 26 192 -29 c 0
 192 -111 199 -199 289 -199 c 2
 296 -199 l 1
 296 -233 l 1
 289 -233 l 2
 219 -233 114 -212 114 -24 c 0
 114 20 118 61 118 98 c 0
EndSplineSet
Layer: 2
SplineSet
34.1796875 229.98046875 m 5
 34.1796875 248.53515625 l 5
 79.1015625 257.32421875 117.1875 253.90625 117.1875 381.34765625 c 4
 117.1875 417.48046875 113.76953125 458.49609375 113.76953125 503.41796875 c 4
 113.76953125 612.3046875 158.203125 705.56640625 281.25 705.56640625 c 5
 281.25 676.7578125 l 5
 185.05859375 676.7578125 178.22265625 591.30859375 178.22265625 509.27734375 c 4
 178.22265625 454.1015625 182.6171875 409.1796875 182.6171875 365.234375 c 4
 182.6171875 299.31640625 165.52734375 258.7890625 115.72265625 240.234375 c 5
 165.52734375 221.6796875 182.12890625 178.22265625 182.12890625 114.2578125 c 4
 182.12890625 71.2890625 177.734375 26.3671875 177.734375 -28.80859375 c 4
 177.734375 -111.81640625 184.5703125 -201.66015625 281.25 -201.66015625 c 5
 281.25 -230.95703125 l 5
 157.71484375 -230.95703125 113.76953125 -144.04296875 113.76953125 -23.92578125 c 4
 113.76953125 20.01953125 117.67578125 61.03515625 117.67578125 98.14453125 c 4
 117.67578125 229.00390625 74.21875 221.19140625 34.1796875 229.98046875 c 5
EndSplineSet
EndChar

StartChar: logicalnot
Encoding: 172 172 221
Width: 718
VWidth: 0
Flags: W
HStem: 198 73<54 555>
VStem: 555 73<-40 198>
LayerCount: 3
Fore
SplineSet
54 198 m 1
 54 271 l 1
 628 271 l 1
 628 -40 l 1
 555 -40 l 1
 555 198 l 1
 54 198 l 1
EndSplineSet
Layer: 2
SplineSet
102.5390625 198.2421875 m 1
 102.5390625 271.484375 l 1
 701.171875 271.484375 l 1
 701.171875 -64.453125 l 1
 627.9296875 -64.453125 l 1
 627.9296875 198.2421875 l 1
 102.5390625 198.2421875 l 1
EndSplineSet
EndChar

StartChar: guilsinglleft
Encoding: 8249 8249 224
Width: 241
Flags: W
HStem: 73 286
VStem: 20 189
LayerCount: 3
Fore
SplineSet
20 216 m 1
 184 359 l 1
 209 331 l 1
 115 216 l 1
 209 102 l 1
 184 73 l 1
 20 216 l 1
EndSplineSet
EndChar

StartChar: guilsinglright
Encoding: 8250 8250 225
Width: 241
Flags: W
HStem: 73 286
VStem: 20 189
LayerCount: 3
Fore
SplineSet
209 216 m 1
 45 73 l 1
 20 102 l 1
 114 216 l 1
 20 331 l 1
 45 359 l 1
 209 216 l 1
EndSplineSet
EndChar

StartChar: registered
Encoding: 174 174 226
Width: 478
Flags: W
HStem: 325 47<156.533 324.393> 445 21<125 149.932 199.219 240 343.281 375> 546 20<199 234> 651 21<121 149.962 199.073 252.118> 725 44<160.896 317.894>
VStem: 19 47<461.59 628.923> 150 49<466 549 566.002 649.836> 270 49<572.256 642.951> 409 47<455.734 628.923>
DStem2: 282 556 234 546 0.558485 -0.829515<0 103.246>
LayerCount: 3
Fore
SplineSet
199 638 m 2
 199 569 l 1
 199 569 204 566 221 566 c 0
 246 566 270 580 270 607 c 0
 270 636 246 650 215 650 c 2
 211 650 l 2
 203 650 199 650 199 638 c 2
319 609 m 0
 319 570 282 556 282 556 c 1
 343 474 l 2
 349 467 354 466 375 466 c 1
 375 445 l 1
 302 445 l 1
 234 546 l 1
 206 546 199 549 199 549 c 1
 199 480 l 2
 199 467 205 466 220 466 c 2
 240 466 l 1
 240 445 l 1
 125 445 l 1
 125 466 l 1
 136 466 l 2
 149 466 150 467 150 481 c 2
 150 639 l 2
 150 650 147 651 130 651 c 0
 127 651 124 651 121 651 c 1
 121 672 l 1
 231 672 l 2
 266 672 319 670 319 609 c 0
237 769 m 0
 361 769 456 670 456 546 c 0
 456 426 373 325 237 325 c 0
 115 325 19 426 19 546 c 0
 19 670 115 769 237 769 c 0
66 545 m 0
 66 449 143 372 240 372 c 0
 344 372 409 450 409 545 c 0
 409 642 334 725 240 725 c 0
 143 725 66 642 66 545 c 0
EndSplineSet
EndChar

StartChar: copyright
Encoding: 169 169 227
Width: 795
Flags: W
HStem: -135 53<286.405 511.347> -13 54<333.738 502.897> 415 56<317.471 488.827> 552 54<288.907 509.571>
VStem: 28 58<122.005 348.671> 146 82<149.313 323.315> 704 58<119.975 353.004>
LayerCount: 3
Fore
SplineSet
86 237 m 0
 86 60 219 -82 400 -82 c 0
 567 -82 704 58 704 239 c 0
 704 406 579 552 399 552 c 0
 223 552 86 408 86 237 c 0
400 606 m 0
 608 606 762 439 762 237 c 0
 762 38 612 -135 399 -135 c 0
 181 -135 28 26 28 237 c 0
 28 439 190 606 400 606 c 0
575 419 m 2
 575 354 l 2
 575 342 573 330 565 330 c 0
 544 330 516 415 400 415 c 0
 296 415 228 329 228 236 c 0
 228 138 307 41 416 41 c 0
 542 41 561 136 578 136 c 0
 583 136 587 128 587 110 c 2
 587 55 l 2
 587 52 586 51 585 50 c 0
 585 50 519 -13 399 -13 c 0
 238 -13 146 99 146 226 c 0
 146 396 287 471 398 471 c 0
 492 471 534 451 557 438 c 0
 574 429 575 426 575 419 c 2
EndSplineSet
EndChar

StartChar: uni00B5
Encoding: 181 181 228
Width: 532
Flags: W
HStem: -21 80<109.221 172.357 359.503 420.625> 373 20G<137.5 146.5 402 412.5>
VStem: 9 78<-194.064 -86.7378> 310 92<33.5 161.428>
LayerCount: 3
Fore
SplineSet
487 129 m 0
 496 129 500 122 500 112 c 0
 500 99 495 82 484 61 c 0
 461 19 413 -21 359 -21 c 0
 317 -21 310 15 310 52 c 0
 310 83 341 196 341 196 c 1
 341 196 288 104 241 55 c 0
 207 19 156 -18 113 -18 c 0
 78 -18 72 32 72 32 c 1
 72 32 62 -3 62 -48 c 0
 62 -116 87 -140 87 -161 c 0
 87 -169 77 -199 45 -199 c 0
 16 -199 9 -174 9 -143 c 0
 9 -49 45 34 71 150 c 0
 117 352 114 382 130 391 c 0
 132 392 136 393 139 393 c 0
 154 392 191 385 191 363 c 0
 191 322 140 160 140 91 c 0
 140 71 144 59 155 59 c 0
 230 59 317 212 372 329 c 0
 398 385 393 393 411 393 c 0
 414 393 420 392 431 390 c 0
 449 387 464 381 464 367 c 0
 464 353 402 121 402 79 c 0
 402 70 409 55 417 55 c 0
 440 55 456 90 467 109 c 0
 473 120 476 129 487 129 c 0
EndSplineSet
EndChar

StartChar: Euro
Encoding: 8364 8364 229
Width: 613
Flags: W
HStem: -17 61<269.303 450.045> 177 53<34 86 165 445> 273 53<34 92 166 485> 458 62<266.085 449.119>
VStem: 92 59<230 273>
LayerCount: 3
Back
SplineSet
533.203125 47.8515625 m 5
 483.88671875 6.8359375 428.22265625 -17.08984375 357.91015625 -17.08984375 c 4
 269.04296875 -17.08984375 147.94921875 27.83203125 99.609375 176.7578125 c 5
 12.20703125 176.7578125 l 5
 37.59765625 239.74609375 l 5
 89.84375 239.74609375 l 5
 89.84375 263.671875 l 5
 8.7890625 263.671875 l 5
 34.1796875 325.68359375 l 5
 99.609375 325.68359375 l 5
 145.99609375 475.09765625 278.3203125 519.53125 351.5625 519.53125 c 4
 464.84375 519.53125 515.13671875 470.21484375 554.19921875 436.03515625 c 5
 529.78515625 380.859375 l 5
 517.08984375 380.859375 l 5
 507.32421875 396.484375 453.61328125 458.0078125 356.4453125 458.0078125 c 4
 293.9453125 458.0078125 206.54296875 426.26953125 165.52734375 325.68359375 c 5
 506.8359375 325.68359375 l 5
 481.4453125 263.671875 l 5
 151.85546875 263.671875 l 5
 151.85546875 260.25390625 151.3671875 256.34765625 151.3671875 251.953125 c 4
 151.3671875 247.0703125 151.85546875 243.1640625 151.85546875 239.74609375 c 5
 471.6796875 239.74609375 l 5
 444.82421875 176.7578125 l 5
 165.0390625 176.7578125 l 5
 201.66015625 83.0078125 291.50390625 44.43359375 354.98046875 44.43359375 c 4
 459.47265625 44.43359375 506.8359375 106.4453125 518.5546875 118.65234375 c 5
 533.203125 118.65234375 l 5
 533.203125 47.8515625 l 5
EndSplineSet
Fore
SplineSet
533 48 m 1
 484 7 428 -17 358 -17 c 0
 269 -17 148 28 100 177 c 1
 12 177 l 1
 34 230 l 1
 86 230 l 1
 92 273 l 1
 13 273 l 1
 34 326 l 1
 100 326 l 1
 146 475 279 520 352 520 c 0
 465 520 515 470 554 436 c 1
 530 381 l 1
 517 381 l 1
 507 397 453 458 356 458 c 0
 294 458 207 427 166 326 c 1
 507 326 l 1
 485 273 l 1
 154 273 l 1
 154 270 151 256 151 252 c 0
 151 247 148 233 148 230 c 1
 468 230 l 1
 445 177 l 1
 165 177 l 1
 202 83 292 44 355 44 c 0
 459 44 507 107 519 119 c 1
 533 119 l 1
 533 48 l 1
EndSplineSet
EndChar

StartChar: gravecomb
Encoding: 768 768 231
Width: 0
VWidth: 0
Flags: W
HStem: 483 162<-221 -212>
VStem: -307 146
AnchorPoint: "top" -195 488 mark 0
LayerCount: 3
Fore
SplineSet
-161 483 m 25
 -221 483 l 25
 -307 645 l 25
 -212 645 l 25
 -161 483 l 25
EndSplineSet
EndChar

StartChar: acutecomb
Encoding: 769 769 232
Width: 0
VWidth: 0
Flags: W
HStem: 483 162<-178 -169>
VStem: -230 147
AnchorPoint: "top" -195 488 mark 0
LayerCount: 3
Back
SplineSet
-217.7734375 483.3984375 m 29
 -166.015625 644.53125 l 29
 -95.703125 644.53125 l 29
 -181.640625 483.3984375 l 29
 -217.7734375 483.3984375 l 29
EndSplineSet
Fore
SplineSet
-230 483 m 25
 -178 645 l 25
 -83 645 l 25
 -169 483 l 25
 -230 483 l 25
EndSplineSet
EndChar

StartChar: uni0302
Encoding: 770 770 233
Width: 0
VWidth: 0
Flags: W
HStem: 498 142<-230 -223.216>
VStem: -307 246
DStem2: -307 498 -257 498 0.534837 0.844955<26.7418 134.343> -141 640 -198 588 0.514496 -0.857493<15.2634 120.221>
AnchorPoint: "top" -195 488 mark 0
LayerCount: 3
Back
SplineSet
-78.125 497.55859375 m 5
 -136.23046875 497.55859375 l 5
 -157.2265625 520.99609375 -177.734375 559.5703125 -197.75390625 588.37890625 c 5
 -218.26171875 557.6171875 -237.79296875 521.97265625 -259.27734375 497.55859375 c 5
 -296.875 497.55859375 l 5
 -270.5078125 537.59765625 -246.58203125 581.54296875 -216.796875 635.25390625 c 5
 -158.203125 635.25390625 l 5
 -131.34765625 586.42578125 -105.95703125 537.59765625 -78.125 497.55859375 c 5
EndSplineSet
Fore
SplineSet
-61 498 m 1
 -144 498 l 1
 -159 522 -181 559 -198 588 c 1
 -218 556 -237 526 -257 498 c 1
 -307 498 l 1
 -280 541 -257 586 -227 640 c 1
 -141 640 l 1
 -114 591 -89 541 -61 498 c 1
EndSplineSet
EndChar

StartChar: tildecomb
Encoding: 771 771 234
Width: 0
VWidth: 0
Flags: W
HStem: 532 64<-188.906 -102.696> 567 66<-282.412 -193.672>
VStem: -89 23<617.647 636.826>
DStem2: -195 621 -217 558 0.876812 -0.480833<-27.7391 65.0943>
AnchorPoint: "top" -195 488 mark 0
LayerCount: 3
Fore
SplineSet
-240 633 m 0x60
 -223 633 -208 628 -195 621 c 2
 -165 605 l 2
 -154 599 -144 596 -134 596 c 0
 -116 596 -98 614 -89 641 c 1
 -66 635 l 1
 -72 597 -98 532 -147 532 c 0xa0
 -163 532 -175 535 -186 541 c 2
 -217 558 l 2
 -226 563 -241 567 -257 567 c 0
 -274 567 -291 551 -298 515 c 1
 -322 520 l 1
 -321 524 -301 633 -240 633 c 0x60
EndSplineSet
Layer: 2
SplineSet
-316.40625 523.4375 m 1x60
 -316.40625 523.4375 -296.875 628.41796875 -240.234375 628.41796875 c 0x60
 -224.609375 628.41796875 -209.9609375 623.53515625 -197.265625 616.69921875 c 2
 -166.9921875 600.5859375 l 2
 -155.2734375 594.23828125 -145.01953125 590.8203125 -133.7890625 590.8203125 c 0
 -101.07421875 590.8203125 -85.9375 635.25390625 -85.9375 635.25390625 c 1
 -71.2890625 631.8359375 l 1
 -72.75390625 626.46484375 -91.30859375 537.59765625 -146.97265625 537.59765625 c 0xa0
 -160.64453125 537.59765625 -172.36328125 541.015625 -183.59375 546.38671875 c 2
 -214.84375 562.01171875 l 2
 -225.09765625 566.89453125 -240.72265625 571.77734375 -256.8359375 571.77734375 c 0
 -291.9921875 571.77734375 -302.24609375 520.01953125 -302.24609375 520.01953125 c 1
 -316.40625 523.4375 l 1x60
EndSplineSet
EndChar

StartChar: uni0304
Encoding: 772 772 235
Width: 0
VWidth: 0
Flags: W
HStem: 556 53<-304 -74>
VStem: -304 230<556 609>
AnchorPoint: "top" -195 488 mark 0
LayerCount: 3
Fore
SplineSet
-74 556 m 1
 -304 556 l 1
 -304 609 l 1
 -74 609 l 1
 -74 556 l 1
EndSplineSet
Layer: 2
SplineSet
-73.73046875 569.82421875 m 5
 -303.7109375 569.82421875 l 5
 -303.7109375 617.67578125 l 5
 -73.73046875 617.67578125 l 5
 -73.73046875 569.82421875 l 5
EndSplineSet
EndChar

StartChar: uni0306
Encoding: 774 774 236
Width: 0
VWidth: 0
Flags: W
HStem: 500 55<-223.777 -141.333>
VStem: -305 69<567.062 635> -126 40<573.323 635>
AnchorPoint: "top" -195 488 mark 0
LayerCount: 3
Fore
SplineSet
-182 555 m 0
 -155 555 -126 579 -126 629 c 0
 -126 631 -126 633 -126 635 c 1
 -86 635 l 1
 -86 631 -86 626 -86 621 c 0
 -86 571 -110 500 -194 500 c 0
 -246 500 -305 521 -305 623 c 0
 -305 627 -304 631 -304 635 c 1
 -236 635 l 1
 -236 628 l 2
 -236 588 -222 555 -182 555 c 0
EndSplineSet
Layer: 2
SplineSet
-244.62890625 615.234375 m 4
 -243.65234375 576.171875 -212.890625 554.6875 -181.640625 554.6875 c 4
 -149.90234375 554.6875 -118.1640625 576.66015625 -118.1640625 625.48828125 c 4
 -118.1640625 631.34765625 -118.65234375 635.25390625 -118.65234375 635.25390625 c 5
 -93.75 635.25390625 l 5
 -93.75 635.25390625 -92.7734375 627.9296875 -92.7734375 617.67578125 c 4
 -92.7734375 542.48046875 -139.16015625 504.8828125 -193.84765625 504.8828125 c 4
 -248.53515625 504.8828125 -294.921875 542.96875 -294.921875 620.1171875 c 4
 -294.921875 628.90625 -294.43359375 635.25390625 -294.43359375 635.25390625 c 5
 -243.65234375 635.25390625 l 5
 -243.65234375 635.25390625 -244.62890625 626.953125 -244.62890625 615.234375 c 4
EndSplineSet
EndChar

StartChar: uni0307
Encoding: 775 775 237
Width: 0
VWidth: 0
Flags: W
HStem: 510 129<-208.87 -146.79>
VStem: -238 122<540.256 608.091>
AnchorPoint: "top" -195 488 mark 0
LayerCount: 3
Fore
SplineSet
-116 575 m 0
 -116 555 -164 510 -177 510 c 0
 -197 510 -238 563 -238 575 c 0
 -238 590 -197 639 -180 639 c 0
 -164 639 -116 592 -116 575 c 0
EndSplineSet
Layer: 2
SplineSet
-238.28125 574.21875 m 4
 -238.28125 593.75 -190.4296875 639.16015625 -177.24609375 639.16015625 c 4
 -157.2265625 639.16015625 -115.72265625 585.9375 -115.72265625 574.21875 c 4
 -115.72265625 559.5703125 -157.2265625 510.25390625 -174.31640625 510.25390625 c 4
 -189.94140625 510.25390625 -238.28125 557.12890625 -238.28125 574.21875 c 4
EndSplineSet
EndChar

StartChar: uni0308
Encoding: 776 776 238
Width: 0
VWidth: 0
Flags: W
HStem: 510 129<-309.21 -246.746 -135.939 -72.1667>
VStem: -340 123<540.909 608.22> -166 123<540.909 608.744>
AnchorPoint: "top" -195 488 mark 0
LayerCount: 3
Fore
SplineSet
-340 574 m 0
 -340 594 -292 639 -279 639 c 0
 -259 639 -217 586 -217 574 c 0
 -217 559 -259 510 -276 510 c 0
 -292 510 -340 557 -340 574 c 0
-166 574 m 0
 -166 594 -117 639 -104 639 c 0
 -84 639 -43 586 -43 574 c 0
 -43 559 -85 510 -102 510 c 0
 -118 510 -166 557 -166 574 c 0
EndSplineSet
Layer: 2
SplineSet
-307.12890625 593.75 m 4
 -307.12890625 607.421875 -273.92578125 636.23046875 -263.671875 636.23046875 c 4
 -245.60546875 636.23046875 -222.16796875 602.05078125 -222.16796875 590.8203125 c 4
 -222.16796875 575.1953125 -252.9296875 549.31640625 -266.11328125 549.31640625 c 4
 -277.34375 549.31640625 -307.12890625 577.1484375 -307.12890625 593.75 c 4
-160.64453125 593.75 m 4
 -160.64453125 607.421875 -127.44140625 636.23046875 -117.1875 636.23046875 c 4
 -99.12109375 636.23046875 -75.68359375 602.05078125 -75.68359375 590.8203125 c 4
 -75.68359375 575.1953125 -106.4453125 549.31640625 -119.62890625 549.31640625 c 4
 -130.859375 549.31640625 -160.64453125 577.1484375 -160.64453125 593.75 c 4
EndSplineSet
EndChar

StartChar: uni030A
Encoding: 778 778 239
Width: 0
VWidth: 0
Flags: W
HStem: 490 44<-223.978 -155.865> 608 47<-221.3 -155.843>
VStem: -274 48<536.978 604.536> -153 49<536.801 605.338>
AnchorPoint: "top" -195 488 mark 0
LayerCount: 3
Fore
SplineSet
-104 570 m 0
 -104 527 -142 490 -186 490 c 0
 -230 490 -274 522 -274 566 c 0
 -274 606 -233 655 -189 655 c 0
 -143 655 -104 613 -104 570 c 0
-188 534 m 0
 -173 534 -153 541 -153 571 c 0
 -153 600 -174 608 -189 608 c 0
 -220 608 -226 578 -226 568 c 0
 -226 547 -211 534 -188 534 c 0
EndSplineSet
Layer: 2
SplineSet
-188.96484375 650.390625 m 0
 -152.83203125 650.390625 -122.0703125 616.69921875 -122.0703125 582.51953125 c 0
 -122.0703125 548.33984375 -151.85546875 518.5546875 -187.01171875 518.5546875 c 0
 -222.16796875 518.5546875 -256.8359375 544.921875 -256.8359375 579.58984375 c 0
 -256.8359375 611.81640625 -223.6328125 650.390625 -188.96484375 650.390625 c 0
-187.98828125 548.828125 m 0
 -173.33984375 548.828125 -155.76171875 555.6640625 -155.76171875 583.0078125 c 0
 -155.76171875 610.83984375 -175.78125 617.67578125 -188.96484375 617.67578125 c 0
 -217.7734375 617.67578125 -223.14453125 589.84375 -223.14453125 581.0546875 c 0
 -223.14453125 561.5234375 -209.47265625 548.828125 -187.98828125 548.828125 c 0
EndSplineSet
EndChar

StartChar: uni030B
Encoding: 779 779 240
Width: 0
VWidth: 0
Flags: W
HStem: 483 162<-264 -255 -118 -109>
VStem: -316 293
AnchorPoint: "top" -195 488 mark 0
LayerCount: 3
Fore
SplineSet
-169 483 m 25
 -118 645 l 25
 -23 645 l 25
 -109 483 l 25
 -169 483 l 25
-316 483 m 25
 -264 645 l 25
 -169 645 l 25
 -255 483 l 25
 -316 483 l 25
EndSplineSet
EndChar

StartChar: uni030C
Encoding: 780 780 241
Width: 0
VWidth: 0
Flags: W
HStem: 498 142<-246.784 -226.79>
VStem: -323 246
DStem2: -240 640 -323 640 0.51124 -0.859438<0 105.816> -186 549 -157 498 0.531258 0.84721<0 108.44>
AnchorPoint: "top" -195 488 mark 0
LayerCount: 3
Fore
SplineSet
-323 640 m 1
 -240 640 l 1
 -225 616 -203 578 -186 549 c 1
 -166 581 -147 612 -127 640 c 1
 -77 640 l 1
 -104 597 -127 552 -157 498 c 1
 -243 498 l 1
 -270 547 -295 597 -323 640 c 1
EndSplineSet
EndChar

StartChar: uni0312
Encoding: 786 786 242
Width: 0
VWidth: 0
Flags: W
HStem: 456 203
VStem: -266 77<503.5 604.707>
AnchorPoint: "top" -195 488 mark 0
LayerCount: 3
Fore
SplineSet
-189 581 m 0
 -189 534 -139 534 -139 518 c 0
 -139 505 -185 456 -195 456 c 0
 -202 456 -266 472 -266 535 c 0
 -266 639 -159 659 -150 659 c 0
 -141 659 -139 651 -139 648 c 0
 -139 626 -189 627 -189 581 c 0
EndSplineSet
Layer: 2
SplineSet
-240.72265625 539.0625 m 4
 -240.72265625 605.46875 -170.41015625 645.5078125 -144.53125 645.5078125 c 4
 -138.18359375 645.5078125 -134.27734375 643.06640625 -134.27734375 638.18359375 c 4
 -134.27734375 618.65234375 -188.4765625 616.2109375 -188.4765625 566.89453125 c 4
 -188.4765625 527.34375 -143.5546875 534.66796875 -143.5546875 521.97265625 c 4
 -143.5546875 520.01953125 -145.01953125 517.578125 -146.97265625 514.6484375 c 6
 -168.45703125 486.81640625 l 6
 -170.41015625 484.86328125 -176.7578125 477.5390625 -182.12890625 477.5390625 c 4
 -187.01171875 477.5390625 -194.82421875 480.95703125 -207.51953125 488.28125 c 4
 -226.07421875 499.0234375 -240.72265625 504.39453125 -240.72265625 539.0625 c 4
EndSplineSet
EndChar

StartChar: uni0315
Encoding: 789 789 243
Width: 0
VWidth: 732
Flags: W
HStem: 504 173
VStem: -229 48<511 526.82>
AnchorPoint: "commaright" -195 655 mark 0
LayerCount: 3
Fore
SplineSet
-229 511 m 25
 -212 677 l 25
 -131 667 l 25
 -181 504 l 25
 -229 511 l 25
EndSplineSet
Layer: 2
SplineSet
-229.4921875 509.765625 m 29
 -211.9140625 675.78125 l 29
 -148.92578125 668.45703125 l 29
 -195.80078125 504.8828125 l 29
 -229.4921875 509.765625 l 29
EndSplineSet
EndChar

StartChar: uni0326
Encoding: 806 806 244
Width: 0
VWidth: 0
Flags: W
HStem: -263 203
VStem: -201 76<-208.52 -107.5>
AnchorPoint: "cedilla" -195 -93 mark 0
LayerCount: 3
Fore
SplineSet
-201 -186 m 0
 -201 -139 -252 -138 -252 -122 c 0
 -252 -109 -205 -60 -195 -60 c 0
 -188 -60 -125 -76 -125 -139 c 0
 -125 -243 -231 -263 -240 -263 c 0
 -249 -263 -252 -256 -252 -253 c 0
 -252 -231 -201 -232 -201 -186 c 0
EndSplineSet
EndChar

StartChar: uni0327
Encoding: 807 807 245
Width: 0
VWidth: 0
Flags: W
HStem: -263 203
VStem: -201 76<-208.52 -107.5>
AnchorPoint: "cedilla" -195 -93 mark 0
LayerCount: 3
Fore
SplineSet
-201 -186 m 0
 -201 -139 -252 -138 -252 -122 c 0
 -252 -109 -205 -60 -195 -60 c 0
 -188 -60 -125 -76 -125 -139 c 0
 -125 -243 -231 -263 -240 -263 c 0
 -249 -263 -252 -256 -252 -253 c 0
 -252 -231 -201 -232 -201 -186 c 0
EndSplineSet
Layer: 2
SplineSet
-139.6484375 -137.6953125 m 4
 -139.6484375 -204.1015625 -209.9609375 -244.140625 -235.83984375 -244.140625 c 4
 -242.1875 -244.140625 -246.09375 -241.69921875 -246.09375 -236.81640625 c 4
 -246.09375 -217.28515625 -191.89453125 -214.84375 -191.89453125 -165.52734375 c 4
 -191.89453125 -125.9765625 -236.81640625 -133.30078125 -236.81640625 -120.60546875 c 4
 -236.81640625 -118.65234375 -235.3515625 -116.2109375 -233.3984375 -113.28125 c 6
 -211.9140625 -85.44921875 l 6
 -209.9609375 -83.49609375 -203.61328125 -76.171875 -198.2421875 -76.171875 c 4
 -193.359375 -76.171875 -185.546875 -79.58984375 -172.8515625 -86.9140625 c 4
 -154.296875 -97.65625 -139.6484375 -103.02734375 -139.6484375 -137.6953125 c 4
EndSplineSet
EndChar

StartChar: gravecomb.cap
Encoding: 65602 -1 284
Width: 0
VWidth: 0
Flags: W
HStem: 483 142<-221 -212>
VStem: -307 146
AnchorPoint: "top" -195 488 mark 0
LayerCount: 3
Fore
SplineSet
-161 483 m 25
 -221 483 l 25
 -307 625 l 25
 -212 625 l 25
 -161 483 l 25
EndSplineSet
EndChar

StartChar: acutecomb.cap
Encoding: 65603 -1 285
Width: 0
VWidth: 0
Flags: W
HStem: 483 142<-178 -169>
VStem: -230 147
AnchorPoint: "top" -195 488 mark 0
LayerCount: 3
Fore
SplineSet
-230 483 m 25
 -178 625 l 25
 -83 625 l 25
 -169 483 l 25
 -230 483 l 25
EndSplineSet
EndChar

StartChar: uni0302.cap
Encoding: 65604 -1 286
Width: 0
VWidth: 0
Flags: W
HStem: 502 119<-247.088 -222.711>
VStem: -307 246
DStem2: -307 502 -257 502 0.619863 0.78471<30.9931 123.185>
AnchorPoint: "top" -195 488 mark 0
LayerCount: 3
Back
SplineSet
-78.125 502.44140625 m 5
 -136.23046875 502.44140625 l 5
 -157.2265625 525.87890625 -172.8515625 544.43359375 -197.75390625 573.73046875 c 5
 -222.65625 544.43359375 -237.79296875 526.85546875 -259.27734375 502.44140625 c 5
 -296.875 502.44140625 l 5
 -266.6015625 544.43359375 -251.953125 566.89453125 -216.796875 620.60546875 c 5
 -158.203125 620.60546875 l 5
 -126.953125 571.77734375 -107.421875 543.45703125 -78.125 502.44140625 c 5
EndSplineSet
Fore
SplineSet
-61 502 m 1
 -144 502 l 1
 -164 525 -173 541 -198 574 c 1
 -222 543 -236 526 -257 502 c 1
 -307 502 l 1
 -277 544 -262 567 -227 621 c 1
 -141 621 l 1
 -110 572 -90 543 -61 502 c 1
EndSplineSet
EndChar

StartChar: uni030C.cap
Encoding: 65605 -1 287
Width: 0
VWidth: 0
Flags: W
HStem: 502 119<-247.289 -222.912>
VStem: -323 246
DStem2: -186 549 -157 502 0.619863 0.78471<0 93.071>
AnchorPoint: "top" -195 488 mark 0
LayerCount: 3
Fore
SplineSet
-323 621 m 1
 -240 621 l 1
 -220 598 -211 582 -186 549 c 1
 -162 580 -148 597 -127 621 c 1
 -77 621 l 1
 -107 579 -122 556 -157 502 c 1
 -243 502 l 1
 -274 551 -294 580 -323 621 c 1
EndSplineSet
EndChar

StartChar: uni0307.cap
Encoding: 65606 -1 288
Width: 0
VWidth: 0
Flags: W
HStem: 483 129<-220.509 -157.167>
VStem: -250 122<513.389 581.744>
AnchorPoint: "top" -195 488 mark 0
LayerCount: 3
Fore
SplineSet
-250 547 m 0
 -250 567 -202 612 -189 612 c 0
 -169 612 -128 559 -128 547 c 0
 -128 532 -170 483 -187 483 c 0
 -203 483 -250 530 -250 547 c 0
EndSplineSet
Layer: 2
SplineSet
-250.48828125 547.36328125 m 4
 -250.48828125 566.89453125 -202.63671875 612.3046875 -189.453125 612.3046875 c 4
 -169.43359375 612.3046875 -127.9296875 559.08203125 -127.9296875 547.36328125 c 4
 -127.9296875 532.71484375 -169.43359375 483.3984375 -186.5234375 483.3984375 c 4
 -202.1484375 483.3984375 -250.48828125 530.2734375 -250.48828125 547.36328125 c 4
EndSplineSet
EndChar

StartChar: uni030A.cap
Encoding: 65607 -1 289
Width: 0
VWidth: 0
Flags: W
HStem: 467 45<-227.594 -160.704> 585 47<-226.152 -160.843>
VStem: -279 49<514.759 582.196> -158 49<514.618 581.828>
AnchorPoint: "top" -195 488 mark 0
LayerCount: 3
Fore
SplineSet
-109 548 m 0
 -109 505 -147 467 -191 467 c 0
 -235 467 -279 500 -279 544 c 0
 -279 584 -238 632 -194 632 c 0
 -148 632 -109 591 -109 548 c 0
-193 512 m 0
 -178 512 -158 518 -158 548 c 0
 -158 577 -179 585 -194 585 c 0
 -225 585 -230 556 -230 546 c 0
 -230 525 -216 512 -193 512 c 0
EndSplineSet
EndChar

StartChar: uni0308.cap
Encoding: 65608 -1 290
Width: 0
VWidth: 0
Flags: W
HStem: 483 129<-311.21 -249.13 -137.21 -74.7463>
VStem: -342 122<513.909 581.744> -168 123<513.909 581.22>
AnchorPoint: "top" -195 488 mark 0
LayerCount: 3
Fore
SplineSet
-342 547 m 0
 -342 567 -294 612 -281 612 c 0
 -261 612 -220 559 -220 547 c 0
 -220 532 -261 483 -278 483 c 0
 -294 483 -342 530 -342 547 c 0
-168 547 m 0
 -168 567 -120 612 -107 612 c 0
 -87 612 -45 559 -45 547 c 0
 -45 532 -87 483 -104 483 c 0
 -120 483 -168 530 -168 547 c 0
EndSplineSet
EndChar

StartChar: uni030B.cap
Encoding: 65609 -1 291
Width: 0
VWidth: 0
Flags: W
HStem: 483 142<-259 -250 -113 -104>
VStem: -311 293
AnchorPoint: "top" -195 488 mark 0
LayerCount: 3
Fore
SplineSet
-165 483 m 25
 -113 625 l 25
 -18 625 l 25
 -104 483 l 25
 -165 483 l 25
-311 483 m 25
 -259 625 l 25
 -165 625 l 25
 -250 483 l 25
 -311 483 l 25
EndSplineSet
EndChar

StartChar: uni0304.cap
Encoding: 65610 -1 292
Width: 0
VWidth: 0
Flags: W
HStem: 531 54<-304 -74>
VStem: -304 230<531 585>
AnchorPoint: "top" -195 488 mark 0
LayerCount: 3
Fore
SplineSet
-74 531 m 1
 -304 531 l 1
 -304 585 l 1
 -74 585 l 1
 -74 531 l 1
EndSplineSet
EndChar

StartChar: uni0306.cap
Encoding: 65611 -1 293
Width: 0
VWidth: 0
Flags: W
HStem: 500 55<-223.337 -139.71>
VStem: -304 68<567.922 621> -126 40<569.972 621>
AnchorPoint: "top" -195 488 mark 0
LayerCount: 3
Fore
SplineSet
-86 621 m 1
 -86 612 l 2
 -86 518 -154 500 -193 500 c 0
 -260 500 -304 540 -304 621 c 1
 -236 621 l 1
 -236 597 -227 555 -180 555 c 0
 -149 555 -126 583 -126 621 c 1
 -86 621 l 1
EndSplineSet
Layer: 2
SplineSet
-93.75 620.60546875 m 5
 -93.75 614.2578125 l 6
 -93.75 546.38671875 -123.046875 504.8828125 -192.87109375 504.8828125 c 4
 -273.92578125 504.8828125 -294.921875 562.98828125 -294.921875 597.65625 c 4
 -294.921875 604.4921875 -294.43359375 612.79296875 -294.43359375 620.60546875 c 5
 -243.65234375 620.60546875 l 5
 -243.65234375 612.3046875 l 6
 -243.65234375 583.0078125 -236.328125 554.6875 -179.6875 554.6875 c 4
 -150.87890625 554.6875 -118.1640625 573.2421875 -118.1640625 613.28125 c 4
 -118.1640625 615.72265625 -118.65234375 618.1640625 -118.65234375 620.60546875 c 5
 -93.75 620.60546875 l 5
EndSplineSet
EndChar

StartChar: tildecomb.cap
Encoding: 65612 -1 294
Width: 0
VWidth: 0
Flags: W
HStem: 515 64<-188.906 -102.696> 550 66<-282.412 -193.672>
VStem: -89 23<600.647 619.826>
DStem2: -195 604 -217 541 0.876812 -0.480833<-27.7391 65.0943>
AnchorPoint: "top" -195 488 mark 0
LayerCount: 3
Fore
SplineSet
-240 616 m 0x60
 -223 616 -208 611 -195 604 c 2
 -165 588 l 2
 -154 582 -144 579 -134 579 c 0
 -116 579 -98 597 -89 624 c 1
 -66 618 l 1
 -72 580 -98 515 -147 515 c 0xa0
 -163 515 -175 518 -186 524 c 2
 -217 541 l 2
 -226 546 -241 550 -257 550 c 0
 -274 550 -291 534 -298 498 c 1
 -322 503 l 1
 -321 507 -301 616 -240 616 c 0x60
EndSplineSet
Layer: 2
SplineSet
-313.96484375 508.7890625 m 5x60
 -313.96484375 508.7890625 -294.43359375 613.76953125 -237.79296875 613.76953125 c 4x60
 -222.16796875 613.76953125 -207.51953125 608.88671875 -194.82421875 602.05078125 c 6
 -164.55078125 585.9375 l 6
 -152.83203125 579.58984375 -142.578125 576.171875 -131.34765625 576.171875 c 4
 -98.6328125 576.171875 -83.49609375 620.60546875 -83.49609375 620.60546875 c 5
 -68.84765625 617.1875 l 5
 -70.3125 611.81640625 -88.8671875 522.94921875 -144.53125 522.94921875 c 4xa0
 -158.203125 522.94921875 -169.921875 526.3671875 -181.15234375 531.73828125 c 6
 -212.40234375 547.36328125 l 6
 -222.65625 552.24609375 -238.28125 557.12890625 -254.39453125 557.12890625 c 4
 -289.55078125 557.12890625 -299.8046875 505.37109375 -299.8046875 505.37109375 c 5
 -313.96484375 508.7890625 l 5x60
EndSplineSet
EndChar

StartChar: periodcentered
Encoding: 183 183 428
Width: 202
VWidth: 0
Flags: W
HStem: 270 128<71.7463 134.21>
VStem: 42 123<300.234 367.091>
LayerCount: 3
Fore
SplineSet
165 334 m 0
 165 314 117 270 104 270 c 0
 84 270 42 322 42 334 c 0
 42 349 84 398 101 398 c 0
 117 398 165 351 165 334 c 0
EndSplineSet
EndChar

StartChar: longs
Encoding: 383 383 431
Width: 327
VWidth: 0
Flags: W
HStem: 0 37<31 99.7188 214.299 290> 343 49<56 100> 684 45<223.108 299>
VStem: 100 114<37.5625 343 392 624.551>
LayerCount: 3
Fore
SplineSet
100 392 m 1
 100 500 l 2
 100 697 206 729 280 729 c 0
 318 729 369 707 369 674 c 0
 369 658 329 606 306 606 c 0
 285 606 277 684 251 684 c 0
 214 684 214 634 214 589 c 2
 214 67 l 2
 214 38 216 37 260 37 c 2
 291 37 l 1
 290 0 l 1
 31 0 l 1
 30 37 l 1
 61 37 l 2
 95 37 100 38 100 64 c 2
 100 343 l 1
 44 343 l 1
 56 392 l 1
 100 392 l 1
EndSplineSet
EndChar

StartChar: thorn
Encoding: 254 254 432
Width: 529
VWidth: 0
Flags: MW
HStem: -259 37<9 78.7858 193.243 301> -6 42<211.993 351.415> 334 66<252.607 392> 707 20G<167 193>
VStem: 79 114<-220.097 9 55.3669 315.89 339 648.992> 393 117<101.547 266.072>
LayerCount: 3
Back
SplineSet
78.61328125 -198.2421875 m 6
 78.61328125 596.6796875 l 6
 78.61328125 637.6953125 74.70703125 648.92578125 60.05859375 648.92578125 c 4
 51.7578125 648.92578125 35.64453125 643.5546875 7.32421875 639.6484375 c 5
 3.90625 678.22265625 l 5
 86.42578125 693.359375 141.11328125 710.44921875 193.359375 727.05078125 c 5
 193.359375 338.8671875 l 5
 193.84765625 339.35546875 255.37109375 400.390625 339.35546875 400.390625 c 4
 445.80078125 400.390625 510.25390625 298.33984375 510.25390625 196.2890625 c 4
 510.25390625 121.09375 467.7734375 -5.859375 296.875 -5.859375 c 4
 231.4453125 -5.859375 193.359375 8.7890625 193.359375 8.7890625 c 5
 193.359375 -197.265625 l 6
 193.359375 -223.6328125 197.265625 -221.6796875 301.7578125 -222.16796875 c 5
 301.26953125 -258.7890625 l 5
 8.7890625 -258.7890625 l 5
 8.7890625 -222.16796875 l 5
 70.3125 -221.6796875 78.61328125 -223.6328125 78.61328125 -198.2421875 c 6
193.359375 73.2421875 m 5
 193.359375 73.2421875 220.21484375 36.1328125 291.015625 36.1328125 c 4
 365.72265625 36.1328125 393.06640625 95.703125 393.06640625 169.43359375 c 4
 393.06640625 248.53515625 352.05078125 333.984375 273.92578125 333.984375 c 4
 218.26171875 333.984375 193.359375 296.38671875 193.359375 296.38671875 c 5
 193.359375 73.2421875 l 5
EndSplineSet
Fore
SplineSet
79 -198 m 2
 79 597 l 2
 79 638 75 649 60 649 c 0
 52 649 35 644 7 640 c 1
 6 679 l 1
 89 694 141 710 193 727 c 1
 193 339 l 1
 193 339 255 400 339 400 c 0
 445 400 510 298 510 196 c 0
 510 121 468 -6 297 -6 c 0
 232 -6 193 9 193 9 c 1
 193 -197 l 2
 193 -221 197 -222 281 -222 c 2
 302 -222 l 1
 301 -259 l 1
 9 -259 l 1
 9 -222 l 1
 22 -222 l 2
 72 -222 79 -221 79 -198 c 2
193 73 m 1
 193 73 220 36 291 36 c 0
 366 36 393 95 393 169 c 0
 393 248 352 334 274 334 c 0
 218 334 193 296 193 296 c 1
 193 73 l 1
EndSplineSet
EndChar

StartChar: lacute
Encoding: 314 314 434
Width: 312
VWidth: 0
Flags: HMW
HStem: 0 37<31 98.1583 213.587 295> 707 20G<187 213>
VStem: 99 114<39.0388 648.992>
LayerCount: 3
Back
SplineSet
102.5390625 727.5390625 m 29
 154.296875 869.140625 l 29
 249.0234375 869.140625 l 29
 163.0859375 727.5390625 l 29
 102.5390625 727.5390625 l 29
EndSplineSet
Fore
SplineSet
24 678 m 1
 107 693 161 710 213 727 c 1
 213 63 l 2
 213 34 228 39 295 37 c 1
 295 0 l 1
 31 0 l 1
 31 37 l 1
 53 37 l 2
 85 37 99 39 99 64 c 2
 99 597 l 2
 99 638 95 649 80 649 c 0
 72 649 55 644 27 640 c 1
 24 678 l 1
105 734 m 25
 154 869 l 25
 249 869 l 25
 177 750 l 25
 105 734 l 25
EndSplineSet
EndChar

StartChar: Thorn
Encoding: 222 222 453
Width: 672
VWidth: 0
Flags: W
HStem: 0 44<35 114.712 258.18 358> 131 46<257.026 435.505> 493 48<257.902 396.392> 623 44<28 114.94 258.523 345>
VStem: 116 141<46.4011 147 183.672 492.369 541 620.069> 487 133<244.1 405.592>
LayerCount: 3
Fore
SplineSet
304 493 m 2
 294 493 l 2
 263 493 257 490 257 453 c 2
 257 191 l 1
 257 191 279 177 347 177 c 0
 452 177 487 229 487 321 c 0
 487 424 408 493 304 493 c 2
257 147 m 1
 257 87 l 2
 257 39 263 45 358 44 c 1
 359 0 l 1
 35 0 l 1
 34 44 l 1
 68 44 l 2
 109 44 116 46 116 88 c 2
 116 589 l 2
 116 625 100 622 28 623 c 1
 28 667 l 1
 345 667 l 1
 345 623 l 1
 268 622 257 629 257 578 c 2
 257 541 l 1
 379 541 l 2
 477 541 620 523 620 335 c 0
 620 247 566 131 376 131 c 0
 306 131 257 147 257 147 c 1
EndSplineSet
Position2: "'cpsp' Capital Spacing in Latin lookup 1 subtable" dx=5 dy=0 dh=10 dv=0
EndChar

StartChar: germandbls
Encoding: 223 223 456
Width: 570
VWidth: 0
Flags: W
HStem: -23 21G<286 320> 0 37<31 99.7188 214.173 266 348.647 445.982> 343 49<56 100> 685 45<243.097 353.495>
VStem: 100 114<37.3691 343 392 620.19> 263 65<330 436.747> 274 29<103.375 140> 287 32<-23 8.43848> 382 67<566.956 656.611> 460 88<60.2577 136.681>
DStem2: 415 312 340 226 0.783111 -0.621882<-107.346 160.767>
LayerCount: 3
Fore
SplineSet
330 10 m 0xfcc0
 322 10 319 1 319 -9 c 0
 319 -14 320 -20 320 -23 c 1
 287 -23 l 1xf9c0
 285 38 282 67 274 140 c 1
 303 141 l 1xfac0
 311 98 l 2
 317 65 368 39 408 39 c 0
 437 39 460 58 460 89 c 0
 460 131 396 182 374 199 c 2
 340 226 l 2
 298 260 263 295 263 365 c 0
 263 465 382 523 382 592 c 0
 382 640 352 685 300 685 c 0
 258 685 214 656 214 589 c 2
 214 67 l 2
 214 39 214 37 248 37 c 2
 267 37 l 1
 266 0 l 1
 31 0 l 1
 30 37 l 1
 61 37 l 2
 95 37 100 38 100 64 c 2
 100 343 l 1
 44 343 l 1
 56 392 l 1
 100 392 l 1
 100 500 l 2
 100 674 202 730 289 730 c 0
 423 730 449 652 449 618 c 0
 449 556 328 487 328 425 c 0
 328 387 368 350 415 312 c 2
 440 292 l 2
 495 249 548 209 548 132 c 0
 548 62 490 -4 408 -4 c 0
 362 -4 342 10 330 10 c 0xfcc0
EndSplineSet
Layer: 2
SplineSet
330 10 m 4xfcc0
 322 10 319 1 319 -9 c 4
 319 -14 320 -20 320 -23 c 5
 287 -23 l 5xf9c0
 285 38 282 67 274 140 c 5
 303 141 l 5xfac0
 311 98 l 6
 317 65 368 39 408 39 c 4
 437 39 460 58 460 89 c 4
 460 131 395 181 374 199 c 4
 318 245 263 277 263 365 c 4
 263 465 382 523 382 592 c 4
 382 640 352 685 300 685 c 4
 258 685 214 656 214 589 c 6
 214 67 l 6
 214 39 214 37 248 37 c 6
 267 37 l 5
 266 0 l 5
 31 0 l 5
 30 37 l 5
 61 37 l 6
 95 37 100 38 100 64 c 6
 100 343 l 5
 44 343 l 5
 56 392 l 5
 100 392 l 5
 100 500 l 6
 100 674 202 730 289 730 c 4
 423 730 449 652 449 618 c 4
 449 556 328 487 328 425 c 4
 328 387 367 352 415 312 c 4
 477 261 548 221 548 132 c 4
 548 62 490 -4 408 -4 c 4
 362 -4 342 10 330 10 c 4xfcc0
EndSplineSet
EndChar

StartChar: f_thorn
Encoding: 65615 -1 464
Width: 857
VWidth: 0
Flags: W
HStem: -259 37<332 400.81 515.243 623> 0 37<30 89.9267 204.5 285 536.121 672.387> 334 66<574.607 714> 343 49<30 90 204 307> 688 37<231.818 303.657>
VStem: 90 114<37.7226 343 392 620.846> 401 114<-220.097 9 55.3669 315.89 339 649> 715 117<101.547 266.072>
LayerCount: 3
Fore
SplineSet
401 649 m 1xef
 383 628 356 602 339 602 c 0
 302 602 332 688 267 688 c 0
 208 688 204 590 204 545 c 2
 204 392 l 1
 309 392 l 1
 307 343 l 1
 204 343 l 1
 204 67 l 2
 204 38 209 37 254 37 c 2
 286 37 l 1
 285 0 l 1
 30 0 l 1
 30 37 l 1
 89 38 90 35 90 62 c 2
 90 343 l 1
 30 343 l 1
 30 392 l 1
 90 392 l 1xdf
 90 500 l 2
 90 690 202 725 272 725 c 0
 303 725 372 713 402 694 c 1
 446 705 481 716 515 727 c 1
 515 339 l 1
 515 339 577 400 661 400 c 0
 767 400 832 298 832 196 c 0
 832 121 790 -6 619 -6 c 0
 554 -6 515 9 515 9 c 1
 515 -197 l 2
 515 -221 519 -222 603 -222 c 2
 624 -222 l 1
 623 -259 l 1
 332 -259 l 1
 332 -222 l 1
 345 -222 l 2
 395 -222 401 -221 401 -198 c 2
 401 649 l 1xef
515 73 m 1
 515 73 542 36 613 36 c 0
 688 36 715 95 715 169 c 0
 715 248 674 334 596 334 c 0xef
 540 334 515 296 515 296 c 1
 515 73 l 1
EndSplineSet
Ligature2: "'liga' Standard Ligatures in Latin lookup 9 subtable" f thorn
LCarets2: 1 0 
EndChar

StartChar: f_f_thorn
Encoding: 65616 -1 465
Width: 1075
VWidth: 0
Flags: W
HStem: -259 37<545 614.786 729.243 837> 0 37<15 70.6987 185.542 258 282 342.566 458.403 524 750.121 886.387> 334 66<788.607 928> 343 49<14 71 185 343 457 555> 654 37<217.246 300.32> 679 42<482.287 552.167>
VStem: 71 114<37.6094 343 392 599.872> 343 114<38.3843 343 392 560> 615 114<-220.097 9 55.3669 315.89 339 596> 929 117<101.547 266.072>
LayerCount: 3
Fore
SplineSet
615 596 m 1xe7c0
 607 594 600 592 593 592 c 0
 579 592 572 598 567 617 c 0
 560 643 552 679 522 679 c 0xe7c0
 465 679 457 602 457 542 c 2
 457 392 l 1
 555 392 l 1
 555 343 l 1
 457 343 l 1
 457 67 l 2
 457 39 473 37 502 37 c 2
 525 37 l 1
 524 0 l 1
 282 0 l 1
 280 37 l 1
 332 38 343 33 343 64 c 2
 343 343 l 1
 185 343 l 1
 185 67 l 2
 185 38 191 37 230 37 c 2
 258 37 l 1
 259 0 l 1
 15 0 l 1
 14 37 l 1
 36 37 l 2
 67 37 71 39 71 64 c 2
 71 343 l 1
 12 343 l 1
 14 392 l 1
 71 392 l 1
 71 502 l 2
 71 602 119 650 171 672 c 0
 196 683 228 691 262 691 c 0xdbc0
 305 691 358 677 387 653 c 1
 387 653 435 721 520 721 c 0
 547 721 582 710 617 695 c 1
 660 706 695 716 729 727 c 1
 729 339 l 1
 729 339 791 400 875 400 c 0
 981 400 1046 298 1046 196 c 0
 1046 121 1004 -6 833 -6 c 0
 768 -6 729 9 729 9 c 1
 729 -197 l 2
 729 -221 733 -222 817 -222 c 2
 838 -222 l 1
 837 -259 l 1
 545 -259 l 1
 545 -222 l 1
 558 -222 l 2
 608 -222 615 -221 615 -198 c 2
 615 596 l 1xe7c0
729 73 m 1
 729 73 756 36 827 36 c 0
 902 36 929 95 929 169 c 0
 929 248 888 334 810 334 c 0
 754 334 729 296 729 296 c 1
 729 73 l 1
343 392 m 1xdbc0
 343 481 l 2
 343 495 346 543 349 560 c 1
 340 561 325 580 316 606 c 0
 308 630 295 654 263 654 c 0
 192 654 185 567 185 527 c 2
 185 392 l 1
 343 392 l 1xdbc0
EndSplineSet
Ligature2: "'liga' Standard Ligatures in Latin lookup 9 subtable" f f thorn
LCarets2: 2 0 0 
EndChar

